<svg xmlns="http://www.w3.org/2000/svg" xmlns:xlink="http://www.w3.org/1999/xlink" width="1040" height="711.3"><rect width="1040" height="711.3" rx="5" ry="5" class="a" /><svg y="0%" x="0%"><circle cx="20" cy="20" r="6" fill="#ff5f58" /><circle cx="40" cy="20" r="6" fill="#ffbd2e" /><circle cx="60" cy="20" r="6" fill="#18c132" /></svg><svg height="651.3" viewBox="0 0 100 65.13" width="1000" x="15" y="50"><style>@keyframes r{0%{transform:translateX(-100px)}1.01%{transform:translateX(-200px)}2.01%{transform:translateX(-300px)}3.02%{transform:translateX(-400px)}3.74%{transform:translateX(-500px)}4.75%{transform:translateX(-600px)}5.76%{transform:translateX(-700px)}6.76%{transform:translateX(-800px)}7.48%{transform:translateX(-900px)}8.49%{transform:translateX(-1000px)}9.5%{transform:translateX(-1100px)}10.5%{transform:translateX(-1200px)}11.51%{transform:translateX(-1300px)}12.52%{transform:translateX(-1400px)}13.24%{transform:translateX(-1500px)}14.24%{transform:translateX(-1600px)}15.25%{transform:translateX(-1700px)}16.26%{transform:translateX(-1800px)}16.98%{transform:translateX(-1900px)}17.99%{transform:translateX(-2000px)}18.99%{transform:translateX(-2100px)}20%{transform:translateX(-2200px)}21.01%{transform:translateX(-2300px)}22.01%{transform:translateX(-2400px)}23.02%{transform:translateX(-2500px)}23.74%{transform:translateX(-2600px)}24.75%{transform:translateX(-2700px)}25.76%{transform:translateX(-2800px)}26.76%{transform:translateX(-2900px)}27.77%{transform:translateX(-3000px)}28.78%{transform:translateX(-3100px)}29.78%{transform:translateX(-3200px)}30.79%{transform:translateX(-3300px)}31.8%{transform:translateX(-3400px)}32.81%{transform:translateX(-3500px)}33.81%{transform:translateX(-3600px)}34.82%{transform:translateX(-3700px)}35.54%{transform:translateX(-3800px)}36.55%{transform:translateX(-3900px)}37.55%{transform:translateX(-4000px)}38.56%{transform:translateX(-4100px)}39.28%{transform:translateX(-4200px)}40.29%{transform:translateX(-4300px)}41.29%{transform:translateX(-4400px)}42.3%{transform:translateX(-4500px)}43.31%{transform:translateX(-4600px)}44.03%{transform:translateX(-4700px)}45.04%{transform:translateX(-4800px)}46.04%{transform:translateX(-4900px)}47.05%{transform:translateX(-5000px)}48.06%{transform:translateX(-5100px)}49.06%{transform:translateX(-5200px)}49.78%{transform:translateX(-5300px)}50.79%{transform:translateX(-5400px)}51.51%{transform:translateX(-5500px)}52.52%{transform:translateX(-5600px)}53.53%{transform:translateX(-5700px)}54.53%{transform:translateX(-5800px)}55.25%{transform:translateX(-5900px)}56.26%{transform:translateX(-6000px)}56.98%{transform:translateX(-6100px)}57.99%{transform:translateX(-6200px)}58.99%{transform:translateX(-6300px)}59.71%{transform:translateX(-6400px)}60.72%{transform:translateX(-6500px)}61.73%{transform:translateX(-6600px)}62.45%{transform:translateX(-6700px)}63.45%{transform:translateX(-6800px)}64.46%{transform:translateX(-6900px)}65.47%{transform:translateX(-7000px)}66.19%{transform:translateX(-7100px)}67.19%{transform:translateX(-7200px)}68.2%{transform:translateX(-7300px)}68.92%{transform:translateX(-7400px)}69.93%{transform:translateX(-7500px)}70.94%{transform:translateX(-7600px)}71.94%{transform:translateX(-7700px)}72.66%{transform:translateX(-7800px)}73.67%{transform:translateX(-7900px)}74.39%{transform:translateX(-8000px)}75.4%{transform:translateX(-8100px)}76.4%{transform:translateX(-8200px)}77.12%{transform:translateX(-8300px)}78.13%{transform:translateX(-8400px)}79.14%{transform:translateX(-8500px)}80.14%{transform:translateX(-8600px)}81.15%{transform:translateX(-8700px)}81.87%{transform:translateX(-8800px)}82.88%{transform:translateX(-8900px)}83.6%{transform:translateX(-9000px)}84.6%{transform:translateX(-9100px)}85.61%{transform:translateX(-9200px)}86.62%{transform:translateX(-9300px)}87.63%{transform:translateX(-9400px)}88.63%{transform:translateX(-9500px)}89.64%{transform:translateX(-9600px)}90.65%{transform:translateX(-9700px)}to{transform:translateX(-9800px)}}.a{fill:#282d35}.f,.g{white-space:pre}.f{fill:#71bef2;font-weight:700}.g{fill:#b9c0cb}.h{font-weight:700}.h,.i{fill:#66c2cd;white-space:pre}.j,.k,.l,.m,.n,.o{fill:#d290e4;white-space:pre}.k,.l,.m,.n,.o{fill:#a8cc8c}.l,.m,.n,.o{fill:#71bef2}.m,.n,.o{fill:#dbab79;font-weight:700}.n,.o{fill:#b9c0cb}.o{fill:#a8cc8c}</style><g font-family="Monaco,Consolas,Menlo,'Bitstream Vera Sans Mono','Powerline Symbols',monospace" font-size="1.67"><defs><symbol id="1"><text y="1.67" class="f">┌────────────────────────────────────────────────────────────────┐</text></symbol><symbol id="2"><text y="1.67" class="f">│</text><text x="3.006" y="1.67" class="f">🔔</text><text x="6.012" y="1.67" class="f">Traigent:</text><text x="16.032" y="1.67" class="f">Optimization</text><text x="29.058" y="1.67" class="f">Callbacks</text><text x="65.13" y="1.67" class="f">│</text></symbol><symbol id="3"><text y="1.67" class="f">└────────────────────────────────────────────────────────────────┘</text></symbol><symbol id="4"><text y="1.67" class="g">━━━━━━━━━━━━━━━━━━━━━━━━━━━━━━━━━━━━━━━━━━━━━━━━━━━━━━━━━━━━━━━━━━</text></symbol><symbol id="5"><text y="1.67" class="h">#</text><text x="2.004" y="1.67" class="h">Lifecycle</text><text x="12.024" y="1.67" class="h">Hooks</text><text x="18.036" y="1.67" class="h">for</text><text x="22.044" y="1.67" class="h">Monitoring</text></symbol><symbol id="6"><text y="1.67" class="g">Available</text><text x="10.02" y="1.67" class="g">callback</text><text x="19.038" y="1.67" class="g">events:</text></symbol><symbol id="7"><text x="2.004" y="1.67" class="i">on_optimization_start</text><text x="26.052" y="1.67" class="g">─</text><text x="28.056" y="1.67" class="g">Called</text><text x="35.07" y="1.67" class="g">when</text><text x="40.08" y="1.67" class="g">optimization</text><text x="53.106" y="1.67" class="g">begins</text></symbol><symbol id="8"><text x="2.004" y="1.67" class="i">on_trial_start</text><text x="26.052" y="1.67" class="g">─</text><text x="28.056" y="1.67" class="g">Called</text><text x="35.07" y="1.67" class="g">before</text><text x="42.084" y="1.67" class="g">each</text><text x="47.094" y="1.67" class="g">trial</text></symbol><symbol id="9"><text x="2.004" y="1.67" class="i">on_trial_complete</text><text x="26.052" y="1.67" class="g">─</text><text x="28.056" y="1.67" class="g">Called</text><text x="35.07" y="1.67" class="g">after</text><text x="41.082" y="1.67" class="g">each</text><text x="46.092" y="1.67" class="g">trial</text></symbol><symbol id="10"><text x="2.004" y="1.67" class="i">on_optimization_complete</text><text x="27.054" y="1.67" class="g">─</text><text x="29.058" y="1.67" class="g">Called</text><text x="36.072" y="1.67" class="g">when</text><text x="41.082" y="1.67" class="g">optimization</text><text x="54.108" y="1.67" class="g">ends</text></symbol><symbol id="11"><text y="1.67" class="h">#</text><text x="2.004" y="1.67" class="h">Built-in</text><text x="11.022" y="1.67" class="h">Callbacks</text></symbol><symbol id="12"><text y="1.67" class="j">from</text><text x="5.01" y="1.67" class="g">traigent.utils.callbacks</text><text x="30.06" y="1.67" class="j">import</text><text x="37.074" y="1.67" class="g">(</text></symbol><symbol id="13"><text x="4.008" y="1.67" class="i">ProgressBarCallback</text><text x="23.046" y="1.67" class="g">,</text><text x="29.058" y="1.67" class="g">#</text><text x="31.062" y="1.67" class="g">Visual</text><text x="38.076" y="1.67" class="g">progress</text><text x="47.094" y="1.67" class="g">bar</text></symbol><symbol id="14"><text x="4.008" y="1.67" class="i">LoggingCallback</text><text x="19.038" y="1.67" class="g">,</text><text x="29.058" y="1.67" class="g">#</text><text x="31.062" y="1.67" class="g">Log</text><text x="35.07" y="1.67" class="g">all</text><text x="39.078" y="1.67" class="g">events</text></symbol><symbol id="15"><text x="4.008" y="1.67" class="i">StatisticsCallback</text><text x="22.044" y="1.67" class="g">,</text><text x="29.058" y="1.67" class="g">#</text><text x="31.062" y="1.67" class="g">Collect</text><text x="39.078" y="1.67" class="g">optimization</text><text x="52.104" y="1.67" class="g">stats</text></symbol><symbol id="16"><text x="4.008" y="1.67" class="i">DetailedProgressCallback</text><text x="30.06" y="1.67" class="g">#</text><text x="32.064" y="1.67" class="g">Comprehensive</text><text x="46.092" y="1.67" class="g">output</text></symbol><symbol id="17"><text y="1.67" class="g">)</text></symbol><symbol id="18"><text y="1.67" class="i">@traigent.optimize</text><text x="18.036" y="1.67" class="g">(</text></symbol><symbol id="19"><text x="4.008" y="1.67" class="g">configuration_space={</text><text x="25.05" y="1.67" class="k">"model"</text><text x="32.064" y="1.67" class="g">:</text><text x="34.068" y="1.67" class="g">["gpt-4o-mini",</text><text x="50.1" y="1.67" class="g">"gpt-4o"]},</text></symbol><symbol id="20"><text x="4.008" y="1.67" class="g">objectives=[</text><text x="16.032" y="1.67" class="k">"accuracy"</text><text x="26.052" y="1.67" class="g">],</text></symbol><symbol id="21"><text x="4.008" y="1.67" class="g">eval_dataset=</text><text x="17.034" y="1.67" class="k">"data/callback_eval.jsonl"</text><text x="43.086" y="1.67" class="g">,</text></symbol><symbol id="22"><text x="4.008" y="1.67" class="g">callbacks=[</text></symbol><symbol id="23"><text x="8.016" y="1.67" class="g">ProgressBarCallback(width=</text><text x="34.068" y="1.67" class="i">50</text><text x="36.072" y="1.67" class="g">),</text></symbol><symbol id="24"><text x="8.016" y="1.67" class="g">StatisticsCallback()</text></symbol><symbol id="25"><text x="4.008" y="1.67" class="g">]</text></symbol><symbol id="26"><text y="1.67" class="l">def</text><text x="4.008" y="1.67" class="m">my_agent</text><text x="12.024" y="1.67" class="g">(query:</text><text x="20.04" y="1.67" class="g">str)</text><text x="25.05" y="1.67" class="g">-&gt;</text><text x="28.056" y="1.67" class="g">str:</text></symbol><symbol id="27"><text x="4.008" y="1.67" class="g">...</text></symbol><symbol id="28"><text y="1.67" class="h">#</text><text x="2.004" y="1.67" class="h">ProgressBarCallback</text><text x="22.044" y="1.67" class="h">in</text><text x="25.05" y="1.67" class="h">Action</text></symbol><symbol id="29"><text y="1.67" class="g">Starting</text><text x="9.018" y="1.67" class="g">optimization</text><text x="22.044" y="1.67" class="g">with</text><text x="27.054" y="1.67" class="i">grid</text><text x="32.064" y="1.67" class="i">search</text><text x="38.076" y="1.67" class="g">...</text></symbol><symbol id="30"><text y="1.67" class="g">Objectives:</text><text x="12.024" y="1.67" class="k">accuracy</text></symbol><symbol id="31"><text y="1.67" class="g">Evaluation</text><text x="11.022" y="1.67" class="g">dataset:</text><text x="20.04" y="1.67" class="k">data/callback_eval.jsonl</text></symbol><symbol id="32"><text y="1.67" class="g">Configuration</text><text x="14.028" y="1.67" class="g">space:</text><text x="21.042" y="1.67" class="n">5</text><text x="23.046" y="1.67" class="n">combinations</text></symbol><symbol id="33"><text y="1.67" class="g">[</text><text x="1.002" y="1.67" class="k">██████████</text><text x="11.022" y="1.67" class="g">░░░░░░░░░░░░░░░░░░░░░░░░░░░░░░░░░░░░░░░░]</text><text x="54.108" y="1.67" class="g">20%</text><text x="58.116" y="1.67" class="g">(1/5)</text><text x="64.128" y="1.67" class="g">Best:</text><text x="70.14" y="1.67" class="g">0.72</text></symbol><symbol id="34"><text y="1.67" class="g">[</text><text x="1.002" y="1.67" class="k">████████████████████</text><text x="21.042" y="1.67" class="g">░░░░░░░░░░░░░░░░░░░░░░░░░░░░░░]</text><text x="54.108" y="1.67" class="g">40%</text><text x="58.116" y="1.67" class="g">(2/5)</text><text x="64.128" y="1.67" class="g">Best:</text><text x="70.14" y="1.67" class="k">0.78</text></symbol><symbol id="35"><text y="1.67" class="g">[</text><text x="1.002" y="1.67" class="k">██████████████████████████████</text><text x="31.062" y="1.67" class="g">░░░░░░░░░░░░░░░░░░░░]</text><text x="54.108" y="1.67" class="g">60%</text><text x="58.116" y="1.67" class="g">(3/5)</text><text x="64.128" y="1.67" class="g">Best:</text><text x="70.14" y="1.67" class="k">0.85</text></symbol><symbol id="36"><text y="1.67" class="g">[</text><text x="1.002" y="1.67" class="k">████████████████████████████████████████</text><text x="41.082" y="1.67" class="g">░░░░░░░░░░]</text><text x="54.108" y="1.67" class="g">80%</text><text x="58.116" y="1.67" class="g">(4/5)</text><text x="64.128" y="1.67" class="g">Best:</text><text x="70.14" y="1.67" class="g">0.85</text></symbol><symbol id="37"><text y="1.67" class="g">[</text><text x="1.002" y="1.67" class="k">██████████████████████████████████████████████████</text><text x="51.102" y="1.67" class="g">]</text><text x="53.106" y="1.67" class="g">100%</text><text x="58.116" y="1.67" class="g">(5/5)</text><text x="64.128" y="1.67" class="g">Best:</text><text x="70.14" y="1.67" class="o">0.89</text></symbol><symbol id="38"><text y="1.67" class="k">✓</text><text x="2.004" y="1.67" class="g">Optimization</text><text x="15.03" y="1.67" class="g">complete!</text><text x="25.05" y="1.67" class="g">Best</text><text x="30.06" y="1.67" class="g">score:</text><text x="37.074" y="1.67" class="o">0.89</text></symbol><symbol id="39"><text y="1.67" class="h">#</text><text x="2.004" y="1.67" class="h">Creating</text><text x="11.022" y="1.67" class="h">a</text><text x="13.026" y="1.67" class="h">Custom</text><text x="20.04" y="1.67" class="h">Callback</text></symbol><symbol id="40"><text y="1.67" class="j">from</text><text x="5.01" y="1.67" class="g">traigent.utils.callbacks</text><text x="30.06" y="1.67" class="j">import</text><text x="37.074" y="1.67" class="g">OptimizationCallback</text></symbol><symbol id="41"><text y="1.67" class="l">class</text><text x="6.012" y="1.67" class="m">SlackNotificationCallback</text><text x="31.062" y="1.67" class="g">(OptimizationCallback):</text></symbol><symbol id="42"><text x="4.008" y="1.67" class="g">"""Send</text><text x="12.024" y="1.67" class="g">Slack</text><text x="18.036" y="1.67" class="g">notifications</text><text x="32.064" y="1.67" class="g">on</text><text x="35.07" y="1.67" class="g">optimization</text><text x="48.096" y="1.67" class="g">events."""</text></symbol><symbol id="43"><text x="4.008" y="1.67" class="l">def</text><text x="8.016" y="1.67" class="i">on_optimization_start</text><text x="29.058" y="1.67" class="g">(self,</text><text x="36.072" y="1.67" class="g">config_space,</text><text x="50.1" y="1.67" class="g">objectives,</text><text x="62.124" y="1.67" class="g">algorithm):</text></symbol><symbol id="44"><text x="8.016" y="1.67" class="g">slack.post(f</text><text x="20.04" y="1.67" class="k">"🚀</text><text x="24.048" y="1.67" class="k">Optimization</text><text x="37.074" y="1.67" class="k">started:</text><text x="46.092" y="1.67" class="k">{algorithm}"</text><text x="58.116" y="1.67" class="g">)</text></symbol><symbol id="45"><text x="4.008" y="1.67" class="l">def</text><text x="8.016" y="1.67" class="i">on_trial_complete</text><text x="25.05" y="1.67" class="g">(self,</text><text x="32.064" y="1.67" class="g">trial,</text><text x="39.078" y="1.67" class="g">progress):</text></symbol><symbol id="46"><text x="8.016" y="1.67" class="j">if</text><text x="11.022" y="1.67" class="g">progress.best_score</text><text x="31.062" y="1.67" class="j">and</text><text x="35.07" y="1.67" class="g">progress.best_score</text><text x="55.11" y="1.67" class="g">&gt;</text><text x="57.114" y="1.67" class="i">0.9</text><text x="60.12" y="1.67" class="g">:</text></symbol><symbol id="47"><text x="12.024" y="1.67" class="g">slack.post(f</text><text x="24.048" y="1.67" class="k">"🎯</text><text x="28.056" y="1.67" class="k">New</text><text x="32.064" y="1.67" class="k">best</text><text x="37.074" y="1.67" class="k">score:</text><text x="44.088" y="1.67" class="k">{progress.best_score:.1%}"</text><text x="70.14" y="1.67" class="g">)</text></symbol><symbol id="48"><text x="4.008" y="1.67" class="l">def</text><text x="8.016" y="1.67" class="i">on_optimization_complete</text><text x="32.064" y="1.67" class="g">(self,</text><text x="39.078" y="1.67" class="g">result):</text></symbol><symbol id="49"><text x="8.016" y="1.67" class="g">slack.post(f</text><text x="20.04" y="1.67" class="k">"✅</text><text x="23.046" y="1.67" class="k">Done!</text><text x="29.058" y="1.67" class="k">Best:</text><text x="35.07" y="1.67" class="k">{result.best_config}"</text><text x="56.112" y="1.67" class="g">)</text></symbol><symbol id="50"><text y="1.67" class="h">#</text><text x="2.004" y="1.67" class="h">Parameter</text><text x="12.024" y="1.67" class="h">Importance</text><text x="23.046" y="1.67" class="h">Analysis</text></symbol><symbol id="51"><text y="1.67" class="g">stats_callback</text><text x="15.03" y="1.67" class="g">=</text><text x="17.034" y="1.67" class="g">StatisticsCallback()</text></symbol><symbol id="52"><text y="1.67" class="g">#</text><text x="2.004" y="1.67" class="g">After</text><text x="8.016" y="1.67" class="g">optimization...</text></symbol><symbol id="53"><text y="1.67" class="g">importance</text><text x="11.022" y="1.67" class="g">=</text><text x="13.026" y="1.67" class="g">stats_callback.get_parameter_importance()</text></symbol><symbol id="54"><text y="1.67" class="n">Parameter</text><text x="10.02" y="1.67" class="n">Importance:</text></symbol><symbol id="55"><text x="2.004" y="1.67" class="g">model:</text><text x="15.03" y="1.67" class="k">████████░░</text><text x="26.052" y="1.67" class="n">0.85</text><text x="32.064" y="1.67" class="g">←</text><text x="34.068" y="1.67" class="g">Most</text><text x="39.078" y="1.67" class="g">impactful</text></symbol><symbol id="56"><text x="2.004" y="1.67" class="g">temperature:</text><text x="15.03" y="1.67" class="m">████░░░░░░</text><text x="26.052" y="1.67" class="n">0.42</text></symbol><symbol id="57"><text x="2.004" y="1.67" class="g">max_tokens:</text><text x="15.03" y="1.67" class="g">██░░░░░░░░</text><text x="26.052" y="1.67" class="n">0.18</text></symbol><symbol id="58"><text y="1.67" class="g">→</text><text x="2.004" y="1.67" class="g">Model</text><text x="8.016" y="1.67" class="g">choice</text><text x="15.03" y="1.67" class="g">has</text><text x="19.038" y="1.67" class="g">the</text><text x="23.046" y="1.67" class="g">most</text><text x="28.056" y="1.67" class="g">impact</text><text x="35.07" y="1.67" class="g">on</text><text x="38.076" y="1.67" class="g">results!</text></symbol><symbol id="59"><text y="1.67" class="n">Callbacks</text><text x="10.02" y="1.67" class="n">enable:</text></symbol><symbol id="60"><text x="2.004" y="1.67" class="k">✓</text><text x="4.008" y="1.67" class="g">Real-time</text><text x="14.028" y="1.67" class="g">monitoring</text><text x="25.05" y="1.67" class="g">dashboards</text></symbol><symbol id="61"><text x="2.004" y="1.67" class="k">✓</text><text x="4.008" y="1.67" class="g">Slack/email</text><text x="16.032" y="1.67" class="g">notifications</text></symbol><symbol id="62"><text x="2.004" y="1.67" class="k">✓</text><text x="4.008" y="1.67" class="g">Custom</text><text x="11.022" y="1.67" class="g">logging</text><text x="19.038" y="1.67" class="g">and</text><text x="23.046" y="1.67" class="g">metrics</text></symbol><symbol id="63"><text x="2.004" y="1.67" class="k">✓</text><text x="4.008" y="1.67" class="g">Early</text><text x="10.02" y="1.67" class="g">stopping</text><text x="19.038" y="1.67" class="g">conditions</text></symbol><symbol id="64"><text x="2.004" y="1.67" class="k">✓</text><text x="4.008" y="1.67" class="g">Parameter</text><text x="14.028" y="1.67" class="g">importance</text><text x="25.05" y="1.67" class="g">analysis</text></symbol><symbol id="a"><path fill="transparent" d="M0 0h100v31H0z" /></symbol><symbol id="b"><path fill="#6f7683" d="M0 0h1.102v2.171H0z" /></symbol></defs><path class="a" d="M0 0h100v65.13H0z" /><g><svg><use xlink:href="#a" /><use xlink:href="#b" x="-.004" y="65.105" /><use xlink:href="#18" /><use xlink:href="#19" y="2.171" /><use xlink:href="#20" y="4.342" /><use xlink:href="#21" y="6.513" /><use xlink:href="#22" y="8.684" /><use xlink:href="#23" y="10.855" /><use xlink:href="#24" y="13.026" /><use xlink:href="#25" y="15.197" /><use xlink:href="#17" y="17.368" /><use xlink:href="#26" y="19.539" /><use xlink:href="#27" y="21.71" /><use xlink:href="#4" y="26.052" /><use xlink:href="#28" y="28.223" /><use xlink:href="#4" y="30.394" /><use xlink:href="#29" y="34.736" /><use xlink:href="#30" y="36.907" /><use xlink:href="#31" y="39.078" /><use xlink:href="#32" y="41.249" /><use xlink:href="#33" y="45.591" /><use xlink:href="#34" y="47.762" /><use xlink:href="#35" y="49.933" /><use xlink:href="#36" y="52.104" /><use xlink:href="#37" y="54.275" /><use xlink:href="#38" y="58.617" /><use xlink:href="#4" y="62.959" /></svg></g></g></svg></svg>
