<svg xmlns="http://www.w3.org/2000/svg" xmlns:xlink="http://www.w3.org/1999/xlink" width="1040" height="711.3"><rect width="1040" height="711.3" rx="5" ry="5" class="a"/><svg y="0%" x="0%"><circle cx="20" cy="20" r="6" fill="#ff5f58"/><circle cx="40" cy="20" r="6" fill="#ffbd2e"/><circle cx="60" cy="20" r="6" fill="#18c132"/></svg><svg height="651.3" viewBox="0 0 100 65.13" width="1000" x="15" xmlns="http://www.w3.org/2000/svg" xmlns:xlink="http://www.w3.org/1999/xlink" y="50"><style>.a{fill:#282d35}.f{fill:#b9c0cb;white-space:pre}.i{fill:#a8cc8c}.i,.k,.l,.n,.o{white-space:pre}.k{fill:#dbab79;font-weight:700}.l,.n,.o{fill:#66c2cd}.n,.o{font-weight:700}.o{fill:#b9c0cb}</style><g font-family="Monaco,Consolas,Menlo,'Bitstream Vera Sans Mono','Powerline Symbols',monospace" font-size="1.67"><defs><symbol id="1"><text y="1.67" class="f">━━━━━━━━━━━━━━━━━━━━━━━━━━━━━━━━━━━━━━━━━━━━━━━━━━━━━━━━━━━━━━━━━━</text></symbol><symbol id="a"><path fill="transparent" d="M0 0h100v31H0z"/></symbol><symbol id="b"><path fill="#6f7683" d="M0 0h1.102v2.171H0z"/></symbol></defs><path class="a" d="M0 0h100v65.13H0z"/><svg width="100"><svg><use xlink:href="#a"/><use xlink:href="#b" x="-.004" y="65.105"/><text x="8.016" y="1.67" class="i">&quot;temperature&quot;</text><text x="21.042" y="1.67" class="f">:</text><text x="23.046" y="1.67" class="f">[0.1,</text><text x="29.058" y="1.67" class="f">0.5,</text><text x="34.068" y="1.67" class="f">0.9],</text><text x="8.016" y="3.841" class="i">&quot;max_tokens&quot;</text><text x="20.04" y="3.841" class="f">:</text><text x="22.044" y="3.841" class="f">[500,</text><text x="28.056" y="3.841" class="f">1000,</text><text x="34.068" y="3.841" class="f">2000]</text><text x="4.008" y="6.012" class="f">},</text><text x="4.008" y="10.354" class="f">#</text><text x="6.012" y="10.354" class="f">Define</text><text x="13.026" y="10.354" class="f">OBJECTIVES</text><text x="24.048" y="10.354" class="f">-</text><text x="26.052" y="10.354" class="f">what</text><text x="31.062" y="10.354" class="f">to</text><text x="34.068" y="10.354" class="f">optimize</text><text x="43.086" y="10.354" class="f">for</text><text x="4.008" y="12.525" class="f">objectives=[</text><text x="16.032" y="12.525" class="i">&quot;accuracy&quot;</text><text x="26.052" y="12.525" class="f">,</text><text x="28.056" y="12.525" class="i">&quot;cost&quot;</text><text x="34.068" y="12.525" class="f">],</text><text x="4.008" y="16.867" class="f">#</text><text x="6.012" y="16.867" class="f">Evaluation</text><text x="17.034" y="16.867" class="f">dataset</text><text x="25.05" y="16.867" class="f">for</text><text x="29.058" y="16.867" class="f">testing</text><text x="4.008" y="19.038" class="f">eval_dataset=</text><text x="17.034" y="19.038" class="i">&quot;data/qa_samples.jsonl&quot;</text><text y="21.209" class="f">)</text><text y="23.38" style="white-space:pre" fill="#71bef2">def</text><text x="4.008" y="23.38" class="k">qa_agent</text><text x="12.024" y="23.38" class="f">(question:</text><text x="23.046" y="23.38" class="f">str)</text><text x="28.056" y="23.38" class="f">-&gt;</text><text x="31.062" y="23.38" class="f">str:</text><text x="4.008" y="25.551" class="f">&quot;&quot;&quot;Q&amp;A</text><text x="11.022" y="25.551" class="f">agent</text><text x="17.034" y="25.551" class="f">with</text><text x="22.044" y="25.551" class="f">tunable</text><text x="30.06" y="25.551" class="f">parameters&quot;&quot;&quot;</text><text x="4.008" y="27.722" class="f">llm</text><text x="8.016" y="27.722" class="f">=</text><text x="10.02" y="27.722" class="f">ChatOpenAI(</text><text x="8.016" y="29.893" class="f">model=</text><text x="14.028" y="29.893" class="i">&quot;gpt-3.5-turbo&quot;</text><text x="29.058" y="29.893" class="f">,</text><text x="34.068" y="29.893" class="f">#</text><text x="36.072" y="29.893" class="f">Traigent</text><text x="45.09" y="29.893" class="f">will</text><text x="50.1" y="29.893" class="f">tune</text><text x="55.11" y="29.893" class="f">this</text><text x="8.016" y="32.064" class="f">temperature=</text><text x="20.04" y="32.064" class="l">0.7</text><text x="34.068" y="32.064" class="f">#</text><text x="36.072" y="32.064" class="f">Traigent</text><text x="45.09" y="32.064" class="f">will</text><text x="50.1" y="32.064" class="f">tune</text><text x="55.11" y="32.064" class="f">this</text><text x="4.008" y="34.235" class="f">)</text><text x="4.008" y="36.406" style="white-space:pre" fill="#d290e4">return</text><text x="11.022" y="36.406" class="f">llm.invoke(question).content</text><use xlink:href="#1" y="39.078"/><text y="42.919" class="n">#</text><text x="2.004" y="42.919" class="n">Step</text><text x="7.014" y="42.919" class="n">3:</text><text x="10.02" y="42.919" class="n">Run</text><text x="14.028" y="42.919" class="n">the</text><text x="18.036" y="42.919" class="n">optimization</text><use xlink:href="#1" y="43.42"/><text y="49.432" class="f">$</text><text x="2.004" y="49.432" class="o">python</text><text x="9.018" y="49.432" class="o">-c</text><text x="12.024" y="49.432" class="o">&quot;import</text><text x="20.04" y="49.432" class="o">asyncio;</text><text x="29.058" y="49.432" class="o">asyncio.run(qa_agent.optimize())&quot;</text><text y="53.774" class="f">Starting</text><text x="9.018" y="53.774" class="f">optimization</text><text x="22.044" y="53.774" class="f">with</text><text x="27.054" y="53.774" class="l">grid</text><text x="32.064" y="53.774" class="l">search</text><text x="38.076" y="53.774" class="f">...</text><text y="55.945" class="f">Objectives:</text><text x="12.024" y="55.945" class="i">accuracy</text><text x="20.04" y="55.945" class="f">,</text><text x="22.044" y="55.945" class="k">cost</text><text y="58.116" class="f">Configuration</text><text x="14.028" y="58.116" class="f">space:</text><text x="21.042" y="58.116" class="o">27</text><text x="24.048" y="58.116" class="o">combinations</text><text x="37.074" y="58.116" class="f">(3</text><text x="40.08" y="58.116" class="f">models</text><text x="47.094" y="58.116" class="f">×</text><text x="49.098" y="58.116" class="f">3</text><text x="51.102" y="58.116" class="f">temps</text><text x="57.114" y="58.116" class="f">×</text><text x="59.118" y="58.116" class="f">3</text><text x="61.122" y="58.116" class="f">tokens)</text><text y="60.287" class="f">Cost</text><text x="5.01" y="60.287" class="f">limit:</text><text x="12.024" y="60.287" class="k">$2.00</text><text y="64.629" class="f">[</text><text x="2.004" y="64.629" class="f">1/27]</text><text x="8.016" y="64.629" class="f">Testing:</text><text x="17.034" y="64.629" class="f">gpt-3.5-turbo,</text><text x="32.064" y="64.629" class="f">temp=0.1,</text><text x="42.084" y="64.629" class="f">tokens=500</text></svg></svg></g></svg></svg>
