<?xml version="1.0" encoding="UTF-8" standalone="no"?>
<!DOCTYPE svg PUBLIC "-//W3C//DTD SVG 1.1//EN"
 "http://www.w3.org/Graphics/SVG/1.1/DTD/svg11.dtd">
<!-- Generated by graphviz version 2.43.0 (0)
 -->
<!-- Title: ClassHierarchy Pages: 1 -->
<svg width="3132pt" height="171pt"
 viewBox="0.00 0.00 3132.00 171.00" xmlns="http://www.w3.org/2000/svg" xmlns:xlink="http://www.w3.org/1999/xlink">
<g id="graph0" class="graph" transform="scale(1 1) rotate(0) translate(4 167)">
<title>ClassHierarchy</title>
<polygon fill="white" stroke="transparent" points="-4,4 -4,-167 3128,-167 3128,4 -4,4"/>
<g id="clust1" class="cluster">
<title>cluster_traigent_evaluators_base</title>
<polygon fill="none" stroke="gray" stroke-dasharray="5,2" points="8,-8 8,-155 638,-155 638,-8 8,-8"/>
<text text-anchor="middle" x="323" y="-15.8" font-family="Times,serif" font-size="14.00">traigent.evaluators.base</text>
</g>
<g id="clust2" class="cluster">
<title>cluster_traigent_evaluators_dataset_registry</title>
<polygon fill="none" stroke="gray" stroke-dasharray="5,2" points="853,-8 853,-83 1128,-83 1128,-8 853,-8"/>
<text text-anchor="middle" x="990.5" y="-15.8" font-family="Times,serif" font-size="14.00">traigent.evaluators.dataset_registry</text>
</g>
<g id="clust3" class="cluster">
<title>cluster_traigent_evaluators_local</title>
<polygon fill="none" stroke="gray" stroke-dasharray="5,2" points="646,-8 646,-83 845,-83 845,-8 646,-8"/>
<text text-anchor="middle" x="745.5" y="-15.8" font-family="Times,serif" font-size="14.00">traigent.evaluators.local</text>
</g>
<g id="clust4" class="cluster">
<title>cluster_traigent_evaluators_metrics</title>
<polygon fill="none" stroke="gray" stroke-dasharray="5,2" points="1136,-8 1136,-83 1407,-83 1407,-8 1136,-8"/>
<text text-anchor="middle" x="1271.5" y="-15.8" font-family="Times,serif" font-size="14.00">traigent.evaluators.metrics</text>
</g>
<g id="clust5" class="cluster">
<title>cluster_traigent_evaluators_metrics_tracker</title>
<polygon fill="none" stroke="gray" stroke-dasharray="5,2" points="1415,-8 1415,-155 3116,-155 3116,-8 1415,-8"/>
<text text-anchor="middle" x="2265.5" y="-15.8" font-family="Times,serif" font-size="14.00">traigent.evaluators.metrics_tracker</text>
</g>
<!-- traigent_evaluators_base_EvaluationExample -->
<g id="node1" class="node">
<title>traigent_evaluators_base_EvaluationExample</title>
<polygon fill="#c8e6c9" stroke="black" points="630.5,-75 519.5,-75 519.5,-39 630.5,-39 630.5,-75"/>
<text text-anchor="middle" x="575" y="-60" font-family="Helvetica,sans-Serif" font-size="10.00">EvaluationExample</text>
<text text-anchor="middle" x="575" y="-49" font-family="Helvetica,sans-Serif" font-size="10.00">(1 methods)</text>
</g>
<!-- traigent_evaluators_base_BaseEvaluator -->
<g id="node2" class="node">
<title>traigent_evaluators_base_BaseEvaluator</title>
<polygon fill="#bbdefb" stroke="black" points="436.5,-147 349.5,-147 349.5,-111 436.5,-111 436.5,-147"/>
<text text-anchor="middle" x="393" y="-132" font-family="Helvetica,sans-Serif" font-size="10.00">BaseEvaluator</text>
<text text-anchor="middle" x="393" y="-121" font-family="Helvetica,sans-Serif" font-size="10.00">(26 methods)</text>
</g>
<!-- traigent_evaluators_base_Dataset -->
<g id="node3" class="node">
<title>traigent_evaluators_base_Dataset</title>
<polygon fill="#c8e6c9" stroke="black" points="501,-75 425,-75 425,-39 501,-39 501,-75"/>
<text text-anchor="middle" x="463" y="-60" font-family="Helvetica,sans-Serif" font-size="10.00">Dataset</text>
<text text-anchor="middle" x="463" y="-49" font-family="Helvetica,sans-Serif" font-size="10.00">(7 methods)</text>
</g>
<!-- traigent_evaluators_base__FallbackRagasConfig -->
<g id="node4" class="node">
<title>traigent_evaluators_base__FallbackRagasConfig</title>
<polygon fill="#c8e6c9" stroke="black" points="407,-75 285,-75 285,-39 407,-39 407,-75"/>
<text text-anchor="middle" x="346" y="-60" font-family="Helvetica,sans-Serif" font-size="10.00">_FallbackRagasConfig</text>
<text text-anchor="middle" x="346" y="-49" font-family="Helvetica,sans-Serif" font-size="10.00">(0 methods)</text>
</g>
<!-- traigent_evaluators_base_SimpleScoringEvaluator -->
<g id="node5" class="node">
<title>traigent_evaluators_base_SimpleScoringEvaluator</title>
<polygon fill="#c8e6c9" stroke="black" points="266.5,-75 133.5,-75 133.5,-39 266.5,-39 266.5,-75"/>
<text text-anchor="middle" x="200" y="-60" font-family="Helvetica,sans-Serif" font-size="10.00">SimpleScoringEvaluator</text>
<text text-anchor="middle" x="200" y="-49" font-family="Helvetica,sans-Serif" font-size="10.00">(15 methods)</text>
</g>
<!-- traigent_evaluators_base_SimpleScoringEvaluator&#45;&gt;traigent_evaluators_base_BaseEvaluator -->
<g id="edge1" class="edge">
<title>traigent_evaluators_base_SimpleScoringEvaluator&#45;&gt;traigent_evaluators_base_BaseEvaluator</title>
<path fill="none" stroke="black" d="M247.21,-75.12C275.19,-85.27 310.71,-98.15 339.69,-108.67"/>
<polygon fill="none" stroke="black" points="338.65,-112.01 349.25,-112.13 341.04,-105.43 338.65,-112.01"/>
</g>
<!-- traigent_evaluators_base_EvaluationResult -->
<g id="node6" class="node">
<title>traigent_evaluators_base_EvaluationResult</title>
<polygon fill="#c8e6c9" stroke="black" points="115.5,-75 16.5,-75 16.5,-39 115.5,-39 115.5,-75"/>
<text text-anchor="middle" x="66" y="-60" font-family="Helvetica,sans-Serif" font-size="10.00">EvaluationResult</text>
<text text-anchor="middle" x="66" y="-49" font-family="Helvetica,sans-Serif" font-size="10.00">(3 methods)</text>
</g>
<!-- traigent_evaluators_dataset_registry_DatasetRegistryEntry -->
<g id="node7" class="node">
<title>traigent_evaluators_dataset_registry_DatasetRegistryEntry</title>
<polygon fill="#c8e6c9" stroke="black" points="1050.5,-75 929.5,-75 929.5,-39 1050.5,-39 1050.5,-75"/>
<text text-anchor="middle" x="990" y="-60" font-family="Helvetica,sans-Serif" font-size="10.00">DatasetRegistryEntry</text>
<text text-anchor="middle" x="990" y="-49" font-family="Helvetica,sans-Serif" font-size="10.00">(0 methods)</text>
</g>
<!-- traigent_evaluators_local_LocalEvaluator -->
<g id="node8" class="node">
<title>traigent_evaluators_local_LocalEvaluator</title>
<polygon fill="#c8e6c9" stroke="black" points="837.5,-75 748.5,-75 748.5,-39 837.5,-39 837.5,-75"/>
<text text-anchor="middle" x="793" y="-60" font-family="Helvetica,sans-Serif" font-size="10.00">LocalEvaluator</text>
<text text-anchor="middle" x="793" y="-49" font-family="Helvetica,sans-Serif" font-size="10.00">(24 methods)</text>
</g>
<!-- traigent_evaluators_local_LocalEvaluator&#45;&gt;traigent_evaluators_base_BaseEvaluator -->
<g id="edge2" class="edge">
<title>traigent_evaluators_local_LocalEvaluator&#45;&gt;traigent_evaluators_base_BaseEvaluator</title>
<path fill="none" stroke="black" d="M760.2,-75.11C753.34,-78.13 746.05,-80.96 739,-83 638.4,-112.09 515.89,-122.41 446.93,-126.05"/>
<polygon fill="none" stroke="black" points="446.56,-122.56 436.74,-126.56 446.91,-129.55 446.56,-122.56"/>
</g>
<!-- traigent_evaluators_local_PromptInfo -->
<g id="node9" class="node">
<title>traigent_evaluators_local_PromptInfo</title>
<polygon fill="#c8e6c9" stroke="black" points="730,-75 654,-75 654,-39 730,-39 730,-75"/>
<text text-anchor="middle" x="692" y="-60" font-family="Helvetica,sans-Serif" font-size="10.00">PromptInfo</text>
<text text-anchor="middle" x="692" y="-49" font-family="Helvetica,sans-Serif" font-size="10.00">(0 methods)</text>
</g>
<!-- traigent_evaluators_metrics_MetricsComputer -->
<g id="node10" class="node">
<title>traigent_evaluators_metrics_MetricsComputer</title>
<polygon fill="#c8e6c9" stroke="black" points="1398.5,-75 1297.5,-75 1297.5,-39 1398.5,-39 1398.5,-75"/>
<text text-anchor="middle" x="1348" y="-60" font-family="Helvetica,sans-Serif" font-size="10.00">MetricsComputer</text>
<text text-anchor="middle" x="1348" y="-49" font-family="Helvetica,sans-Serif" font-size="10.00">(4 methods)</text>
</g>
<!-- traigent_evaluators_metrics_MetricsEvaluationResult -->
<g id="node11" class="node">
<title>traigent_evaluators_metrics_MetricsEvaluationResult</title>
<polygon fill="#c8e6c9" stroke="black" points="1279.5,-75 1144.5,-75 1144.5,-39 1279.5,-39 1279.5,-75"/>
<text text-anchor="middle" x="1212" y="-60" font-family="Helvetica,sans-Serif" font-size="10.00">MetricsEvaluationResult</text>
<text text-anchor="middle" x="1212" y="-49" font-family="Helvetica,sans-Serif" font-size="10.00">(2 methods)</text>
</g>
<!-- traigent_evaluators_metrics_tracker_OpenAIResponseHandler -->
<g id="node12" class="node">
<title>traigent_evaluators_metrics_tracker_OpenAIResponseHandler</title>
<polygon fill="#c8e6c9" stroke="black" points="3107.5,-75 2970.5,-75 2970.5,-39 3107.5,-39 3107.5,-75"/>
<text text-anchor="middle" x="3039" y="-60" font-family="Helvetica,sans-Serif" font-size="10.00">OpenAIResponseHandler</text>
<text text-anchor="middle" x="3039" y="-49" font-family="Helvetica,sans-Serif" font-size="10.00">(3 methods)</text>
</g>
<!-- traigent_evaluators_metrics_tracker_ResponseHandler -->
<g id="node23" class="node">
<title>traigent_evaluators_metrics_tracker_ResponseHandler</title>
<polygon fill="#bbdefb" stroke="black" points="2576,-147 2474,-147 2474,-111 2576,-111 2576,-147"/>
<text text-anchor="middle" x="2525" y="-132" font-family="Helvetica,sans-Serif" font-size="10.00">ResponseHandler</text>
<text text-anchor="middle" x="2525" y="-121" font-family="Helvetica,sans-Serif" font-size="10.00">(7 methods)</text>
</g>
<!-- traigent_evaluators_metrics_tracker_OpenAIResponseHandler&#45;&gt;traigent_evaluators_metrics_tracker_ResponseHandler -->
<g id="edge3" class="edge">
<title>traigent_evaluators_metrics_tracker_OpenAIResponseHandler&#45;&gt;traigent_evaluators_metrics_tracker_ResponseHandler</title>
<path fill="none" stroke="black" d="M2991.15,-75.05C2981.28,-78.08 2970.88,-80.93 2961,-83 2829.27,-110.6 2671.44,-121.54 2586.46,-125.67"/>
<polygon fill="none" stroke="black" points="2586.03,-122.19 2576.21,-126.15 2586.36,-129.18 2586.03,-122.19"/>
</g>
<!-- traigent_evaluators_metrics_tracker_DictResponseHandler -->
<g id="node13" class="node">
<title>traigent_evaluators_metrics_tracker_DictResponseHandler</title>
<polygon fill="#c8e6c9" stroke="black" points="2952,-75 2830,-75 2830,-39 2952,-39 2952,-75"/>
<text text-anchor="middle" x="2891" y="-60" font-family="Helvetica,sans-Serif" font-size="10.00">DictResponseHandler</text>
<text text-anchor="middle" x="2891" y="-49" font-family="Helvetica,sans-Serif" font-size="10.00">(3 methods)</text>
</g>
<!-- traigent_evaluators_metrics_tracker_DictResponseHandler&#45;&gt;traigent_evaluators_metrics_tracker_ResponseHandler -->
<g id="edge6" class="edge">
<title>traigent_evaluators_metrics_tracker_DictResponseHandler&#45;&gt;traigent_evaluators_metrics_tracker_ResponseHandler</title>
<path fill="none" stroke="black" d="M2847.34,-75.05C2838.7,-78 2829.63,-80.82 2821,-83 2741.07,-103.15 2646.59,-115.6 2586.25,-122.16"/>
<polygon fill="none" stroke="black" points="2585.7,-118.7 2576.13,-123.24 2586.45,-125.66 2585.7,-118.7"/>
</g>
<!-- traigent_evaluators_metrics_tracker_CostMetrics -->
<g id="node14" class="node">
<title>traigent_evaluators_metrics_tracker_CostMetrics</title>
<polygon fill="#c8e6c9" stroke="black" points="2812,-75 2736,-75 2736,-39 2812,-39 2812,-75"/>
<text text-anchor="middle" x="2774" y="-60" font-family="Helvetica,sans-Serif" font-size="10.00">CostMetrics</text>
<text text-anchor="middle" x="2774" y="-49" font-family="Helvetica,sans-Serif" font-size="10.00">(1 methods)</text>
</g>
<!-- traigent_evaluators_metrics_tracker_ResponseMetrics -->
<g id="node15" class="node">
<title>traigent_evaluators_metrics_tracker_ResponseMetrics</title>
<polygon fill="#c8e6c9" stroke="black" points="2718,-75 2618,-75 2618,-39 2718,-39 2718,-75"/>
<text text-anchor="middle" x="2668" y="-60" font-family="Helvetica,sans-Serif" font-size="10.00">ResponseMetrics</text>
<text text-anchor="middle" x="2668" y="-49" font-family="Helvetica,sans-Serif" font-size="10.00">(1 methods)</text>
</g>
<!-- traigent_evaluators_metrics_tracker_AnthropicResponseHandler -->
<g id="node16" class="node">
<title>traigent_evaluators_metrics_tracker_AnthropicResponseHandler</title>
<polygon fill="#c8e6c9" stroke="black" points="2599.5,-75 2450.5,-75 2450.5,-39 2599.5,-39 2599.5,-75"/>
<text text-anchor="middle" x="2525" y="-60" font-family="Helvetica,sans-Serif" font-size="10.00">AnthropicResponseHandler</text>
<text text-anchor="middle" x="2525" y="-49" font-family="Helvetica,sans-Serif" font-size="10.00">(3 methods)</text>
</g>
<!-- traigent_evaluators_metrics_tracker_AnthropicResponseHandler&#45;&gt;traigent_evaluators_metrics_tracker_ResponseHandler -->
<g id="edge4" class="edge">
<title>traigent_evaluators_metrics_tracker_AnthropicResponseHandler&#45;&gt;traigent_evaluators_metrics_tracker_ResponseHandler</title>
<path fill="none" stroke="black" d="M2525,-75.3C2525,-83.02 2525,-92.29 2525,-100.89"/>
<polygon fill="none" stroke="black" points="2521.5,-100.9 2525,-110.9 2528.5,-100.9 2521.5,-100.9"/>
</g>
<!-- traigent_evaluators_metrics_tracker_GenericResponseHandler -->
<g id="node17" class="node">
<title>traigent_evaluators_metrics_tracker_GenericResponseHandler</title>
<polygon fill="#c8e6c9" stroke="black" points="2432,-75 2292,-75 2292,-39 2432,-39 2432,-75"/>
<text text-anchor="middle" x="2362" y="-60" font-family="Helvetica,sans-Serif" font-size="10.00">GenericResponseHandler</text>
<text text-anchor="middle" x="2362" y="-49" font-family="Helvetica,sans-Serif" font-size="10.00">(3 methods)</text>
</g>
<!-- traigent_evaluators_metrics_tracker_GenericResponseHandler&#45;&gt;traigent_evaluators_metrics_tracker_ResponseHandler -->
<g id="edge7" class="edge">
<title>traigent_evaluators_metrics_tracker_GenericResponseHandler&#45;&gt;traigent_evaluators_metrics_tracker_ResponseHandler</title>
<path fill="none" stroke="black" d="M2401.87,-75.12C2424.16,-84.69 2452.12,-96.7 2475.76,-106.85"/>
<polygon fill="none" stroke="black" points="2474.69,-110.2 2485.26,-110.93 2477.45,-103.77 2474.69,-110.2"/>
</g>
<!-- traigent_evaluators_metrics_tracker_MetricsCalculator -->
<g id="node18" class="node">
<title>traigent_evaluators_metrics_tracker_MetricsCalculator</title>
<polygon fill="#c8e6c9" stroke="black" points="2274,-75 2172,-75 2172,-39 2274,-39 2274,-75"/>
<text text-anchor="middle" x="2223" y="-60" font-family="Helvetica,sans-Serif" font-size="10.00">MetricsCalculator</text>
<text text-anchor="middle" x="2223" y="-49" font-family="Helvetica,sans-Serif" font-size="10.00">(1 methods)</text>
</g>
<!-- traigent_evaluators_metrics_tracker_TokenMetrics -->
<g id="node19" class="node">
<title>traigent_evaluators_metrics_tracker_TokenMetrics</title>
<polygon fill="#c8e6c9" stroke="black" points="2154,-75 2074,-75 2074,-39 2154,-39 2154,-75"/>
<text text-anchor="middle" x="2114" y="-60" font-family="Helvetica,sans-Serif" font-size="10.00">TokenMetrics</text>
<text text-anchor="middle" x="2114" y="-49" font-family="Helvetica,sans-Serif" font-size="10.00">(1 methods)</text>
</g>
<!-- traigent_evaluators_metrics_tracker_ResponseHandlerFactory -->
<g id="node20" class="node">
<title>traigent_evaluators_metrics_tracker_ResponseHandlerFactory</title>
<polygon fill="#c8e6c9" stroke="black" points="2055.5,-75 1918.5,-75 1918.5,-39 2055.5,-39 2055.5,-75"/>
<text text-anchor="middle" x="1987" y="-60" font-family="Helvetica,sans-Serif" font-size="10.00">ResponseHandlerFactory</text>
<text text-anchor="middle" x="1987" y="-49" font-family="Helvetica,sans-Serif" font-size="10.00">(1 methods)</text>
</g>
<!-- traigent_evaluators_metrics_tracker_ExampleMetrics -->
<g id="node21" class="node">
<title>traigent_evaluators_metrics_tracker_ExampleMetrics</title>
<polygon fill="#c8e6c9" stroke="black" points="1900.5,-75 1805.5,-75 1805.5,-39 1900.5,-39 1900.5,-75"/>
<text text-anchor="middle" x="1853" y="-60" font-family="Helvetica,sans-Serif" font-size="10.00">ExampleMetrics</text>
<text text-anchor="middle" x="1853" y="-49" font-family="Helvetica,sans-Serif" font-size="10.00">(0 methods)</text>
</g>
<!-- traigent_evaluators_metrics_tracker_LangChainResponseHandler -->
<g id="node22" class="node">
<title>traigent_evaluators_metrics_tracker_LangChainResponseHandler</title>
<polygon fill="#c8e6c9" stroke="black" points="1787.5,-75 1634.5,-75 1634.5,-39 1787.5,-39 1787.5,-75"/>
<text text-anchor="middle" x="1711" y="-60" font-family="Helvetica,sans-Serif" font-size="10.00">LangChainResponseHandler</text>
<text text-anchor="middle" x="1711" y="-49" font-family="Helvetica,sans-Serif" font-size="10.00">(3 methods)</text>
</g>
<!-- traigent_evaluators_metrics_tracker_LangChainResponseHandler&#45;&gt;traigent_evaluators_metrics_tracker_ResponseHandler -->
<g id="edge5" class="edge">
<title>traigent_evaluators_metrics_tracker_LangChainResponseHandler&#45;&gt;traigent_evaluators_metrics_tracker_ResponseHandler</title>
<path fill="none" stroke="black" d="M1762.87,-75.08C1774.02,-78.18 1785.82,-81.05 1797,-83 2041.2,-125.5 2337.59,-129.32 2463.58,-128.76"/>
<polygon fill="none" stroke="black" points="2463.82,-132.26 2473.8,-128.7 2463.78,-125.26 2463.82,-132.26"/>
</g>
<!-- traigent_evaluators_metrics_tracker_MetricsTracker -->
<g id="node24" class="node">
<title>traigent_evaluators_metrics_tracker_MetricsTracker</title>
<polygon fill="#c8e6c9" stroke="black" points="1616.5,-75 1529.5,-75 1529.5,-39 1616.5,-39 1616.5,-75"/>
<text text-anchor="middle" x="1573" y="-60" font-family="Helvetica,sans-Serif" font-size="10.00">MetricsTracker</text>
<text text-anchor="middle" x="1573" y="-49" font-family="Helvetica,sans-Serif" font-size="10.00">(13 methods)</text>
</g>
<!-- traigent_evaluators_metrics_tracker_CostCalculator -->
<g id="node25" class="node">
<title>traigent_evaluators_metrics_tracker_CostCalculator</title>
<polygon fill="#c8e6c9" stroke="black" points="1511,-75 1423,-75 1423,-39 1511,-39 1511,-75"/>
<text text-anchor="middle" x="1467" y="-60" font-family="Helvetica,sans-Serif" font-size="10.00">CostCalculator</text>
<text text-anchor="middle" x="1467" y="-49" font-family="Helvetica,sans-Serif" font-size="10.00">(4 methods)</text>
</g>
</g>
</svg>
