<?xml version="1.0" encoding="UTF-8" standalone="no"?>
<!DOCTYPE svg PUBLIC "-//W3C//DTD SVG 1.1//EN"
 "http://www.w3.org/Graphics/SVG/1.1/DTD/svg11.dtd">
<!-- Generated by graphviz version 2.43.0 (0)
 -->
<!-- Title: ClassHierarchy Pages: 1 -->
<svg width="10505pt" height="171pt"
 viewBox="0.00 0.00 10505.00 171.00" xmlns="http://www.w3.org/2000/svg" xmlns:xlink="http://www.w3.org/1999/xlink">
<g id="graph0" class="graph" transform="scale(1 1) rotate(0) translate(4 167)">
<title>ClassHierarchy</title>
<polygon fill="white" stroke="transparent" points="-4,4 -4,-167 10501,-167 10501,4 -4,4"/>
<g id="clust1" class="cluster">
<title>cluster_traigent_core_backend_session_manager</title>
<polygon fill="none" stroke="gray" stroke-dasharray="5,2" points="8,-8 8,-83 310,-83 310,-8 8,-8"/>
<text text-anchor="middle" x="159" y="-15.8" font-family="Times,serif" font-size="14.00">traigent.core.backend_session_manager</text>
</g>
<g id="clust2" class="cluster">
<title>cluster_traigent_core_cache_policy</title>
<polygon fill="none" stroke="gray" stroke-dasharray="5,2" points="318,-8 318,-83 521,-83 521,-8 318,-8"/>
<text text-anchor="middle" x="419.5" y="-15.8" font-family="Times,serif" font-size="14.00">traigent.core.cache_policy</text>
</g>
<g id="clust3" class="cluster">
<title>cluster_traigent_core_config_builder</title>
<polygon fill="none" stroke="gray" stroke-dasharray="5,2" points="529,-8 529,-83 849,-83 849,-8 529,-8"/>
<text text-anchor="middle" x="689" y="-15.8" font-family="Times,serif" font-size="14.00">traigent.core.config_builder</text>
</g>
<g id="clust4" class="cluster">
<title>cluster_traigent_core_evaluator_wrapper</title>
<polygon fill="none" stroke="gray" stroke-dasharray="5,2" points="857,-8 857,-83 1105,-83 1105,-8 857,-8"/>
<text text-anchor="middle" x="981" y="-15.8" font-family="Times,serif" font-size="14.00">traigent.core.evaluator_wrapper</text>
</g>
<g id="clust5" class="cluster">
<title>cluster_traigent_core_llm_processor</title>
<polygon fill="none" stroke="gray" stroke-dasharray="5,2" points="1113,-8 1113,-83 1326,-83 1326,-8 1113,-8"/>
<text text-anchor="middle" x="1219.5" y="-15.8" font-family="Times,serif" font-size="14.00">traigent.core.llm_processor</text>
</g>
<g id="clust6" class="cluster">
<title>cluster_traigent_core_logger_facade</title>
<polygon fill="none" stroke="gray" stroke-dasharray="5,2" points="1334,-8 1334,-83 1547,-83 1547,-8 1334,-8"/>
<text text-anchor="middle" x="1440.5" y="-15.8" font-family="Times,serif" font-size="14.00">traigent.core.logger_facade</text>
</g>
<g id="clust7" class="cluster">
<title>cluster_traigent_core_mandatory_metrics</title>
<polygon fill="none" stroke="gray" stroke-dasharray="5,2" points="1555,-8 1555,-83 1872,-83 1872,-8 1555,-8"/>
<text text-anchor="middle" x="1713.5" y="-15.8" font-family="Times,serif" font-size="14.00">traigent.core.mandatory_metrics</text>
</g>
<g id="clust8" class="cluster">
<title>cluster_traigent_core_metric_registry</title>
<polygon fill="none" stroke="gray" stroke-dasharray="5,2" points="1880,-8 1880,-83 2104,-83 2104,-8 1880,-8"/>
<text text-anchor="middle" x="1992" y="-15.8" font-family="Times,serif" font-size="14.00">traigent.core.metric_registry</text>
</g>
<g id="clust9" class="cluster">
<title>cluster_traigent_core_metrics_aggregator</title>
<polygon fill="none" stroke="gray" stroke-dasharray="5,2" points="2112,-8 2112,-83 2366,-83 2366,-8 2112,-8"/>
<text text-anchor="middle" x="2239" y="-15.8" font-family="Times,serif" font-size="14.00">traigent.core.metrics_aggregator</text>
</g>
<g id="clust10" class="cluster">
<title>cluster_traigent_core_objectives</title>
<polygon fill="none" stroke="gray" stroke-dasharray="5,2" points="2374,-8 2374,-83 2742,-83 2742,-8 2374,-8"/>
<text text-anchor="middle" x="2558" y="-15.8" font-family="Times,serif" font-size="14.00">traigent.core.objectives</text>
</g>
<g id="clust11" class="cluster">
<title>cluster_traigent_core_optimized_function</title>
<polygon fill="none" stroke="gray" stroke-dasharray="5,2" points="2750,-8 2750,-83 3000,-83 3000,-8 2750,-8"/>
<text text-anchor="middle" x="2875" y="-15.8" font-family="Times,serif" font-size="14.00">traigent.core.optimized_function</text>
</g>
<g id="clust12" class="cluster">
<title>cluster_traigent_core_orchestrator</title>
<polygon fill="none" stroke="gray" stroke-dasharray="5,2" points="3008,-8 3008,-83 3262,-83 3262,-8 3008,-8"/>
<text text-anchor="middle" x="3135" y="-15.8" font-family="Times,serif" font-size="14.00">traigent.core.orchestrator</text>
</g>
<g id="clust13" class="cluster">
<title>cluster_traigent_core_parallel_execution_manager</title>
<polygon fill="none" stroke="gray" stroke-dasharray="5,2" points="3270,-8 3270,-83 3657,-83 3657,-8 3270,-8"/>
<text text-anchor="middle" x="3463.5" y="-15.8" font-family="Times,serif" font-size="14.00">traigent.core.parallel_execution_manager</text>
</g>
<g id="clust14" class="cluster">
<title>cluster_traigent_core_progress_manager</title>
<polygon fill="none" stroke="gray" stroke-dasharray="5,2" points="3665,-8 3665,-83 3912,-83 3912,-8 3665,-8"/>
<text text-anchor="middle" x="3788.5" y="-15.8" font-family="Times,serif" font-size="14.00">traigent.core.progress_manager</text>
</g>
<g id="clust15" class="cluster">
<title>cluster_traigent_core_pruning_progress_tracker</title>
<polygon fill="none" stroke="gray" stroke-dasharray="5,2" points="3920,-8 3920,-83 4219,-83 4219,-8 3920,-8"/>
<text text-anchor="middle" x="4069.5" y="-15.8" font-family="Times,serif" font-size="14.00">traigent.core.pruning_progress_tracker</text>
</g>
<g id="clust16" class="cluster">
<title>cluster_traigent_core_refactoring_utils</title>
<polygon fill="none" stroke="gray" stroke-dasharray="5,2" points="4227,-8 4227,-83 4459,-83 4459,-8 4227,-8"/>
<text text-anchor="middle" x="4343" y="-15.8" font-family="Times,serif" font-size="14.00">traigent.core.refactoring_utils</text>
</g>
<g id="clust17" class="cluster">
<title>cluster_traigent_core_result_selection</title>
<polygon fill="none" stroke="gray" stroke-dasharray="5,2" points="4467,-8 4467,-83 4694,-83 4694,-8 4467,-8"/>
<text text-anchor="middle" x="4580.5" y="-15.8" font-family="Times,serif" font-size="14.00">traigent.core.result_selection</text>
</g>
<g id="clust18" class="cluster">
<title>cluster_traigent_core_sample_budget</title>
<polygon fill="none" stroke="gray" stroke-dasharray="5,2" points="4702,-8 4702,-83 5190,-83 5190,-8 4702,-8"/>
<text text-anchor="middle" x="4946" y="-15.8" font-family="Times,serif" font-size="14.00">traigent.core.sample_budget</text>
</g>
<g id="clust19" class="cluster">
<title>cluster_traigent_core_samplers</title>
<polygon fill="none" stroke="gray" stroke-dasharray="5,2" points="5198,-8 5198,-155 5560,-155 5560,-8 5198,-8"/>
<text text-anchor="middle" x="5379" y="-15.8" font-family="Times,serif" font-size="14.00">traigent.core.samplers</text>
</g>
<g id="clust20" class="cluster">
<title>cluster_traigent_core_session_context</title>
<polygon fill="none" stroke="gray" stroke-dasharray="5,2" points="5568,-8 5568,-83 5795,-83 5795,-8 5568,-8"/>
<text text-anchor="middle" x="5681.5" y="-15.8" font-family="Times,serif" font-size="14.00">traigent.core.session_context</text>
</g>
<g id="clust21" class="cluster">
<title>cluster_traigent_core_stop_condition_manager</title>
<polygon fill="none" stroke="gray" stroke-dasharray="5,2" points="5803,-8 5803,-83 6090,-83 6090,-8 5803,-8"/>
<text text-anchor="middle" x="5946.5" y="-15.8" font-family="Times,serif" font-size="14.00">traigent.core.stop_condition_manager</text>
</g>
<g id="clust22" class="cluster">
<title>cluster_traigent_core_stop_conditions</title>
<polygon fill="none" stroke="gray" stroke-dasharray="5,2" points="6098,-8 6098,-155 6719,-155 6719,-8 6098,-8"/>
<text text-anchor="middle" x="6408.5" y="-15.8" font-family="Times,serif" font-size="14.00">traigent.core.stop_conditions</text>
</g>
<g id="clust23" class="cluster">
<title>cluster_traigent_core_trial_context</title>
<polygon fill="none" stroke="gray" stroke-dasharray="5,2" points="6727,-8 6727,-83 6931,-83 6931,-8 6727,-8"/>
<text text-anchor="middle" x="6829" y="-15.8" font-family="Times,serif" font-size="14.00">traigent.core.trial_context</text>
</g>
<g id="clust24" class="cluster">
<title>cluster_traigent_core_types</title>
<polygon fill="none" stroke="gray" stroke-dasharray="5,2" points="6939,-8 6939,-83 7267,-83 7267,-8 6939,-8"/>
<text text-anchor="middle" x="7103" y="-15.8" font-family="Times,serif" font-size="14.00">traigent.core.types</text>
</g>
<g id="clust25" class="cluster">
<title>cluster_traigent_core_types_ext</title>
<polygon fill="none" stroke="gray" stroke-dasharray="5,2" points="7275,-8 7275,-83 10489,-83 10489,-8 7275,-8"/>
<text text-anchor="middle" x="8882" y="-15.8" font-family="Times,serif" font-size="14.00">traigent.core.types_ext</text>
</g>
<!-- traigent_core_backend_session_manager_BackendSessionManager -->
<g id="node1" class="node">
<title>traigent_core_backend_session_manager_BackendSessionManager</title>
<polygon fill="#c8e6c9" stroke="black" points="228,-75 90,-75 90,-39 228,-39 228,-75"/>
<text text-anchor="middle" x="159" y="-60" font-family="Helvetica,sans-Serif" font-size="10.00">BackendSessionManager</text>
<text text-anchor="middle" x="159" y="-49" font-family="Helvetica,sans-Serif" font-size="10.00">(9 methods)</text>
</g>
<!-- traigent_core_cache_policy_CachePolicyHandler -->
<g id="node2" class="node">
<title>traigent_core_cache_policy_CachePolicyHandler</title>
<polygon fill="#c8e6c9" stroke="black" points="476,-75 362,-75 362,-39 476,-39 476,-75"/>
<text text-anchor="middle" x="419" y="-60" font-family="Helvetica,sans-Serif" font-size="10.00">CachePolicyHandler</text>
<text text-anchor="middle" x="419" y="-49" font-family="Helvetica,sans-Serif" font-size="10.00">(7 methods)</text>
</g>
<!-- traigent_core_config_builder_ConfigurationSpaceBuilder -->
<g id="node3" class="node">
<title>traigent_core_config_builder_ConfigurationSpaceBuilder</title>
<polygon fill="#c8e6c9" stroke="black" points="841,-75 695,-75 695,-39 841,-39 841,-75"/>
<text text-anchor="middle" x="768" y="-60" font-family="Helvetica,sans-Serif" font-size="10.00">ConfigurationSpaceBuilder</text>
<text text-anchor="middle" x="768" y="-49" font-family="Helvetica,sans-Serif" font-size="10.00">(10 methods)</text>
</g>
<!-- traigent_core_config_builder_OptimizedFunctionConfig -->
<g id="node4" class="node">
<title>traigent_core_config_builder_OptimizedFunctionConfig</title>
<polygon fill="#c8e6c9" stroke="black" points="676.5,-75 537.5,-75 537.5,-39 676.5,-39 676.5,-75"/>
<text text-anchor="middle" x="607" y="-60" font-family="Helvetica,sans-Serif" font-size="10.00">OptimizedFunctionConfig</text>
<text text-anchor="middle" x="607" y="-49" font-family="Helvetica,sans-Serif" font-size="10.00">(9 methods)</text>
</g>
<!-- traigent_core_evaluator_wrapper_CustomEvaluatorWrapper -->
<g id="node5" class="node">
<title>traigent_core_evaluator_wrapper_CustomEvaluatorWrapper</title>
<polygon fill="#c8e6c9" stroke="black" points="1052,-75 910,-75 910,-39 1052,-39 1052,-75"/>
<text text-anchor="middle" x="981" y="-60" font-family="Helvetica,sans-Serif" font-size="10.00">CustomEvaluatorWrapper</text>
<text text-anchor="middle" x="981" y="-49" font-family="Helvetica,sans-Serif" font-size="10.00">(10 methods)</text>
</g>
<!-- traigent_evaluators_base_BaseEvaluator -->
<g id="node74" class="node">
<title>traigent_evaluators_base_BaseEvaluator</title>
<polygon fill="lightgrey" stroke="black" points="1089,-147 873,-147 873,-111 1089,-111 1089,-147"/>
<text text-anchor="middle" x="981" y="-126.5" font-family="Helvetica,sans-Serif" font-size="10.00">traigent_evaluators_base_BaseEvaluator</text>
</g>
<!-- traigent_core_evaluator_wrapper_CustomEvaluatorWrapper&#45;&gt;traigent_evaluators_base_BaseEvaluator -->
<g id="edge1" class="edge">
<title>traigent_core_evaluator_wrapper_CustomEvaluatorWrapper&#45;&gt;traigent_evaluators_base_BaseEvaluator</title>
<path fill="none" stroke="black" d="M981,-75.3C981,-83.02 981,-92.29 981,-100.89"/>
<polygon fill="none" stroke="black" points="977.5,-100.9 981,-110.9 984.5,-100.9 977.5,-100.9"/>
</g>
<!-- traigent_core_llm_processor_LLMResponseProcessor -->
<g id="node6" class="node">
<title>traigent_core_llm_processor_LLMResponseProcessor</title>
<polygon fill="#c8e6c9" stroke="black" points="1284.5,-75 1153.5,-75 1153.5,-39 1284.5,-39 1284.5,-75"/>
<text text-anchor="middle" x="1219" y="-60" font-family="Helvetica,sans-Serif" font-size="10.00">LLMResponseProcessor</text>
<text text-anchor="middle" x="1219" y="-49" font-family="Helvetica,sans-Serif" font-size="10.00">(11 methods)</text>
</g>
<!-- traigent_core_logger_facade_LoggerFacade -->
<g id="node7" class="node">
<title>traigent_core_logger_facade_LoggerFacade</title>
<polygon fill="#c8e6c9" stroke="black" points="1481.5,-75 1398.5,-75 1398.5,-39 1481.5,-39 1481.5,-75"/>
<text text-anchor="middle" x="1440" y="-60" font-family="Helvetica,sans-Serif" font-size="10.00">LoggerFacade</text>
<text text-anchor="middle" x="1440" y="-49" font-family="Helvetica,sans-Serif" font-size="10.00">(10 methods)</text>
</g>
<!-- traigent_core_mandatory_metrics_MandatoryMetricsCollector -->
<g id="node8" class="node">
<title>traigent_core_mandatory_metrics_MandatoryMetricsCollector</title>
<polygon fill="#c8e6c9" stroke="black" points="1864.5,-75 1715.5,-75 1715.5,-39 1864.5,-39 1864.5,-75"/>
<text text-anchor="middle" x="1790" y="-60" font-family="Helvetica,sans-Serif" font-size="10.00">MandatoryMetricsCollector</text>
<text text-anchor="middle" x="1790" y="-49" font-family="Helvetica,sans-Serif" font-size="10.00">(9 methods)</text>
</g>
<!-- traigent_core_mandatory_metrics_MandatoryMetricsTotals -->
<g id="node9" class="node">
<title>traigent_core_mandatory_metrics_MandatoryMetricsTotals</title>
<polygon fill="#c8e6c9" stroke="black" points="1697,-75 1563,-75 1563,-39 1697,-39 1697,-75"/>
<text text-anchor="middle" x="1630" y="-60" font-family="Helvetica,sans-Serif" font-size="10.00">MandatoryMetricsTotals</text>
<text text-anchor="middle" x="1630" y="-49" font-family="Helvetica,sans-Serif" font-size="10.00">(1 methods)</text>
</g>
<!-- traigent_core_metric_registry_MetricRegistry -->
<g id="node10" class="node">
<title>traigent_core_metric_registry_MetricRegistry</title>
<polygon fill="#c8e6c9" stroke="black" points="2089,-75 2001,-75 2001,-39 2089,-39 2089,-75"/>
<text text-anchor="middle" x="2045" y="-60" font-family="Helvetica,sans-Serif" font-size="10.00">MetricRegistry</text>
<text text-anchor="middle" x="2045" y="-49" font-family="Helvetica,sans-Serif" font-size="10.00">(11 methods)</text>
</g>
<!-- traigent_core_metric_registry_MetricSpec -->
<g id="node11" class="node">
<title>traigent_core_metric_registry_MetricSpec</title>
<polygon fill="#c8e6c9" stroke="black" points="1977,-75 1901,-75 1901,-39 1977,-39 1977,-75"/>
<text text-anchor="middle" x="1939" y="-60" font-family="Helvetica,sans-Serif" font-size="10.00">MetricSpec</text>
<text text-anchor="middle" x="1939" y="-49" font-family="Helvetica,sans-Serif" font-size="10.00">(0 methods)</text>
</g>
<!-- traigent_core_metrics_aggregator_AggregatedMetrics -->
<g id="node12" class="node">
<title>traigent_core_metrics_aggregator_AggregatedMetrics</title>
<polygon fill="#c8e6c9" stroke="black" points="2293.5,-75 2184.5,-75 2184.5,-39 2293.5,-39 2293.5,-75"/>
<text text-anchor="middle" x="2239" y="-60" font-family="Helvetica,sans-Serif" font-size="10.00">AggregatedMetrics</text>
<text text-anchor="middle" x="2239" y="-49" font-family="Helvetica,sans-Serif" font-size="10.00">(0 methods)</text>
</g>
<!-- traigent_core_objectives_ObjectiveSchema -->
<g id="node13" class="node">
<title>traigent_core_objectives_ObjectiveSchema</title>
<polygon fill="#c8e6c9" stroke="black" points="2734,-75 2632,-75 2632,-39 2734,-39 2734,-75"/>
<text text-anchor="middle" x="2683" y="-60" font-family="Helvetica,sans-Serif" font-size="10.00">ObjectiveSchema</text>
<text text-anchor="middle" x="2683" y="-49" font-family="Helvetica,sans-Serif" font-size="10.00">(18 methods)</text>
</g>
<!-- traigent_core_objectives_AggregationMode -->
<g id="node14" class="node">
<title>traigent_core_objectives_AggregationMode</title>
<polygon fill="#c8e6c9" stroke="black" points="2613.5,-75 2510.5,-75 2510.5,-39 2613.5,-39 2613.5,-75"/>
<text text-anchor="middle" x="2562" y="-60" font-family="Helvetica,sans-Serif" font-size="10.00">AggregationMode</text>
<text text-anchor="middle" x="2562" y="-49" font-family="Helvetica,sans-Serif" font-size="10.00">(0 methods)</text>
</g>
<!-- traigent_core_objectives_ObjectiveDefinition -->
<g id="node15" class="node">
<title>traigent_core_objectives_ObjectiveDefinition</title>
<polygon fill="#c8e6c9" stroke="black" points="2492,-75 2382,-75 2382,-39 2492,-39 2492,-75"/>
<text text-anchor="middle" x="2437" y="-60" font-family="Helvetica,sans-Serif" font-size="10.00">ObjectiveDefinition</text>
<text text-anchor="middle" x="2437" y="-49" font-family="Helvetica,sans-Serif" font-size="10.00">(3 methods)</text>
</g>
<!-- traigent_core_optimized_function_OptimizedFunction -->
<g id="node16" class="node">
<title>traigent_core_optimized_function_OptimizedFunction</title>
<polygon fill="#c8e6c9" stroke="black" points="2929,-75 2821,-75 2821,-39 2929,-39 2929,-75"/>
<text text-anchor="middle" x="2875" y="-60" font-family="Helvetica,sans-Serif" font-size="10.00">OptimizedFunction</text>
<text text-anchor="middle" x="2875" y="-49" font-family="Helvetica,sans-Serif" font-size="10.00">(50 methods)</text>
</g>
<!-- traigent_core_orchestrator_OptimizationOrchestrator -->
<g id="node17" class="node">
<title>traigent_core_orchestrator_OptimizationOrchestrator</title>
<polygon fill="#c8e6c9" stroke="black" points="3254,-75 3114,-75 3114,-39 3254,-39 3254,-75"/>
<text text-anchor="middle" x="3184" y="-60" font-family="Helvetica,sans-Serif" font-size="10.00">OptimizationOrchestrator</text>
<text text-anchor="middle" x="3184" y="-49" font-family="Helvetica,sans-Serif" font-size="10.00">(57 methods)</text>
</g>
<!-- traigent_core_orchestrator_TrialLifecycle -->
<g id="node18" class="node">
<title>traigent_core_orchestrator_TrialLifecycle</title>
<polygon fill="#c8e6c9" stroke="black" points="3096,-75 3016,-75 3016,-39 3096,-39 3096,-75"/>
<text text-anchor="middle" x="3056" y="-60" font-family="Helvetica,sans-Serif" font-size="10.00">TrialLifecycle</text>
<text text-anchor="middle" x="3056" y="-49" font-family="Helvetica,sans-Serif" font-size="10.00">(2 methods)</text>
</g>
<!-- traigent_core_parallel_execution_manager_ParallelBatchCaps -->
<g id="node19" class="node">
<title>traigent_core_parallel_execution_manager_ParallelBatchCaps</title>
<polygon fill="#c8e6c9" stroke="black" points="3649,-75 3545,-75 3545,-39 3649,-39 3649,-75"/>
<text text-anchor="middle" x="3597" y="-60" font-family="Helvetica,sans-Serif" font-size="10.00">ParallelBatchCaps</text>
<text text-anchor="middle" x="3597" y="-49" font-family="Helvetica,sans-Serif" font-size="10.00">(0 methods)</text>
</g>
<!-- traigent_core_parallel_execution_manager_ParallelExecutionManager -->
<g id="node20" class="node">
<title>traigent_core_parallel_execution_manager_ParallelExecutionManager</title>
<polygon fill="#c8e6c9" stroke="black" points="3526.5,-75 3383.5,-75 3383.5,-39 3526.5,-39 3526.5,-75"/>
<text text-anchor="middle" x="3455" y="-60" font-family="Helvetica,sans-Serif" font-size="10.00">ParallelExecutionManager</text>
<text text-anchor="middle" x="3455" y="-49" font-family="Helvetica,sans-Serif" font-size="10.00">(7 methods)</text>
</g>
<!-- traigent_core_parallel_execution_manager_TrialDescriptor -->
<g id="node21" class="node">
<title>traigent_core_parallel_execution_manager_TrialDescriptor</title>
<polygon fill="#c8e6c9" stroke="black" points="3365.5,-75 3278.5,-75 3278.5,-39 3365.5,-39 3365.5,-75"/>
<text text-anchor="middle" x="3322" y="-60" font-family="Helvetica,sans-Serif" font-size="10.00">TrialDescriptor</text>
<text text-anchor="middle" x="3322" y="-49" font-family="Helvetica,sans-Serif" font-size="10.00">(0 methods)</text>
</g>
<!-- traigent_core_progress_manager_ProgressState -->
<g id="node22" class="node">
<title>traigent_core_progress_manager_ProgressState</title>
<polygon fill="#c8e6c9" stroke="black" points="3897,-75 3813,-75 3813,-39 3897,-39 3897,-75"/>
<text text-anchor="middle" x="3855" y="-60" font-family="Helvetica,sans-Serif" font-size="10.00">ProgressState</text>
<text text-anchor="middle" x="3855" y="-49" font-family="Helvetica,sans-Serif" font-size="10.00">(4 methods)</text>
</g>
<!-- traigent_core_progress_manager_ProgressManager -->
<g id="node23" class="node">
<title>traigent_core_progress_manager_ProgressManager</title>
<polygon fill="#c8e6c9" stroke="black" points="3787.5,-75 3686.5,-75 3686.5,-39 3787.5,-39 3787.5,-75"/>
<text text-anchor="middle" x="3737" y="-60" font-family="Helvetica,sans-Serif" font-size="10.00">ProgressManager</text>
<text text-anchor="middle" x="3737" y="-49" font-family="Helvetica,sans-Serif" font-size="10.00">(10 methods)</text>
</g>
<!-- traigent_core_pruning_progress_tracker_PruningProgressTracker -->
<g id="node24" class="node">
<title>traigent_core_pruning_progress_tracker_PruningProgressTracker</title>
<polygon fill="#c8e6c9" stroke="black" points="4134,-75 4004,-75 4004,-39 4134,-39 4134,-75"/>
<text text-anchor="middle" x="4069" y="-60" font-family="Helvetica,sans-Serif" font-size="10.00">PruningProgressTracker</text>
<text text-anchor="middle" x="4069" y="-49" font-family="Helvetica,sans-Serif" font-size="10.00">(10 methods)</text>
</g>
<!-- traigent_core_refactoring_utils_RefactoringValidator -->
<g id="node25" class="node">
<title>traigent_core_refactoring_utils_RefactoringValidator</title>
<polygon fill="#c8e6c9" stroke="black" points="4401,-75 4285,-75 4285,-39 4401,-39 4401,-75"/>
<text text-anchor="middle" x="4343" y="-60" font-family="Helvetica,sans-Serif" font-size="10.00">RefactoringValidator</text>
<text text-anchor="middle" x="4343" y="-49" font-family="Helvetica,sans-Serif" font-size="10.00">(7 methods)</text>
</g>
<!-- traigent_core_result_selection_SelectionResult -->
<g id="node26" class="node">
<title>traigent_core_result_selection_SelectionResult</title>
<polygon fill="#c8e6c9" stroke="black" points="4626,-75 4534,-75 4534,-39 4626,-39 4626,-75"/>
<text text-anchor="middle" x="4580" y="-60" font-family="Helvetica,sans-Serif" font-size="10.00">SelectionResult</text>
<text text-anchor="middle" x="4580" y="-49" font-family="Helvetica,sans-Serif" font-size="10.00">(0 methods)</text>
</g>
<!-- traigent_core_sample_budget_BudgetMetrics -->
<g id="node27" class="node">
<title>traigent_core_sample_budget_BudgetMetrics</title>
<polygon fill="#c8e6c9" stroke="black" points="5181.5,-75 5094.5,-75 5094.5,-39 5181.5,-39 5181.5,-75"/>
<text text-anchor="middle" x="5138" y="-60" font-family="Helvetica,sans-Serif" font-size="10.00">BudgetMetrics</text>
<text text-anchor="middle" x="5138" y="-49" font-family="Helvetica,sans-Serif" font-size="10.00">(2 methods)</text>
</g>
<!-- traigent_core_sample_budget_LeaseClosure -->
<g id="node28" class="node">
<title>traigent_core_sample_budget_LeaseClosure</title>
<polygon fill="#c8e6c9" stroke="black" points="5076,-75 4994,-75 4994,-39 5076,-39 5076,-75"/>
<text text-anchor="middle" x="5035" y="-60" font-family="Helvetica,sans-Serif" font-size="10.00">LeaseClosure</text>
<text text-anchor="middle" x="5035" y="-49" font-family="Helvetica,sans-Serif" font-size="10.00">(0 methods)</text>
</g>
<!-- traigent_core_sample_budget_SampleBudgetLease -->
<g id="node29" class="node">
<title>traigent_core_sample_budget_SampleBudgetLease</title>
<polygon fill="#c8e6c9" stroke="black" points="4976,-75 4860,-75 4860,-39 4976,-39 4976,-75"/>
<text text-anchor="middle" x="4918" y="-60" font-family="Helvetica,sans-Serif" font-size="10.00">SampleBudgetLease</text>
<text text-anchor="middle" x="4918" y="-49" font-family="Helvetica,sans-Serif" font-size="10.00">(7 methods)</text>
</g>
<!-- traigent_core_sample_budget_SampleBudgetManager -->
<g id="node30" class="node">
<title>traigent_core_sample_budget_SampleBudgetManager</title>
<polygon fill="#c8e6c9" stroke="black" points="4841.5,-75 4710.5,-75 4710.5,-39 4841.5,-39 4841.5,-75"/>
<text text-anchor="middle" x="4776" y="-60" font-family="Helvetica,sans-Serif" font-size="10.00">SampleBudgetManager</text>
<text text-anchor="middle" x="4776" y="-49" font-family="Helvetica,sans-Serif" font-size="10.00">(10 methods)</text>
</g>
<!-- traigent_core_samplers_random_sampler_RandomSamplerPlan -->
<g id="node31" class="node">
<title>traigent_core_samplers_random_sampler_RandomSamplerPlan</title>
<polygon fill="#c8e6c9" stroke="black" points="5551.5,-75 5432.5,-75 5432.5,-39 5551.5,-39 5551.5,-75"/>
<text text-anchor="middle" x="5492" y="-60" font-family="Helvetica,sans-Serif" font-size="10.00">RandomSamplerPlan</text>
<text text-anchor="middle" x="5492" y="-49" font-family="Helvetica,sans-Serif" font-size="10.00">(3 methods)</text>
</g>
<!-- traigent_core_samplers_factory_SamplerFactory -->
<g id="node32" class="node">
<title>traigent_core_samplers_factory_SamplerFactory</title>
<polygon fill="#c8e6c9" stroke="black" points="5414,-75 5322,-75 5322,-39 5414,-39 5414,-75"/>
<text text-anchor="middle" x="5368" y="-60" font-family="Helvetica,sans-Serif" font-size="10.00">SamplerFactory</text>
<text text-anchor="middle" x="5368" y="-49" font-family="Helvetica,sans-Serif" font-size="10.00">(2 methods)</text>
</g>
<!-- traigent_core_samplers_base_BaseSampler -->
<g id="node33" class="node">
<title>traigent_core_samplers_base_BaseSampler</title>
<polygon fill="#bbdefb" stroke="black" points="5296,-147 5214,-147 5214,-111 5296,-111 5296,-147"/>
<text text-anchor="middle" x="5255" y="-132" font-family="Helvetica,sans-Serif" font-size="10.00">BaseSampler</text>
<text text-anchor="middle" x="5255" y="-121" font-family="Helvetica,sans-Serif" font-size="10.00">(10 methods)</text>
</g>
<!-- traigent_core_samplers_random_sampler_RandomSampler -->
<g id="node34" class="node">
<title>traigent_core_samplers_random_sampler_RandomSampler</title>
<polygon fill="#c8e6c9" stroke="black" points="5304,-75 5206,-75 5206,-39 5304,-39 5304,-75"/>
<text text-anchor="middle" x="5255" y="-60" font-family="Helvetica,sans-Serif" font-size="10.00">RandomSampler</text>
<text text-anchor="middle" x="5255" y="-49" font-family="Helvetica,sans-Serif" font-size="10.00">(14 methods)</text>
</g>
<!-- traigent_core_samplers_random_sampler_RandomSampler&#45;&gt;traigent_core_samplers_base_BaseSampler -->
<g id="edge7" class="edge">
<title>traigent_core_samplers_random_sampler_RandomSampler&#45;&gt;traigent_core_samplers_base_BaseSampler</title>
<path fill="none" stroke="black" d="M5255,-75.3C5255,-83.02 5255,-92.29 5255,-100.89"/>
<polygon fill="none" stroke="black" points="5251.5,-100.9 5255,-110.9 5258.5,-100.9 5251.5,-100.9"/>
</g>
<!-- traigent_core_session_context_SessionContext -->
<g id="node35" class="node">
<title>traigent_core_session_context_SessionContext</title>
<polygon fill="#c8e6c9" stroke="black" points="5727,-75 5635,-75 5635,-39 5727,-39 5727,-75"/>
<text text-anchor="middle" x="5681" y="-60" font-family="Helvetica,sans-Serif" font-size="10.00">SessionContext</text>
<text text-anchor="middle" x="5681" y="-49" font-family="Helvetica,sans-Serif" font-size="10.00">(0 methods)</text>
</g>
<!-- traigent_core_stop_condition_manager_StopConditionManager -->
<g id="node36" class="node">
<title>traigent_core_stop_condition_manager_StopConditionManager</title>
<polygon fill="#c8e6c9" stroke="black" points="6010,-75 5882,-75 5882,-39 6010,-39 6010,-75"/>
<text text-anchor="middle" x="5946" y="-60" font-family="Helvetica,sans-Serif" font-size="10.00">StopConditionManager</text>
<text text-anchor="middle" x="5946" y="-49" font-family="Helvetica,sans-Serif" font-size="10.00">(7 methods)</text>
</g>
<!-- traigent_core_stop_conditions_StopCondition -->
<g id="node37" class="node">
<title>traigent_core_stop_conditions_StopCondition</title>
<polygon fill="#bbdefb" stroke="black" points="6449.5,-147 6364.5,-147 6364.5,-111 6449.5,-111 6449.5,-147"/>
<text text-anchor="middle" x="6407" y="-132" font-family="Helvetica,sans-Serif" font-size="10.00">StopCondition</text>
<text text-anchor="middle" x="6407" y="-121" font-family="Helvetica,sans-Serif" font-size="10.00">(2 methods)</text>
</g>
<!-- traigent_core_stop_conditions_MaxSamplesStopCondition -->
<g id="node38" class="node">
<title>traigent_core_stop_conditions_MaxSamplesStopCondition</title>
<polygon fill="#c8e6c9" stroke="black" points="6711,-75 6563,-75 6563,-39 6711,-39 6711,-75"/>
<text text-anchor="middle" x="6637" y="-60" font-family="Helvetica,sans-Serif" font-size="10.00">MaxSamplesStopCondition</text>
<text text-anchor="middle" x="6637" y="-49" font-family="Helvetica,sans-Serif" font-size="10.00">(5 methods)</text>
</g>
<!-- traigent_core_stop_conditions_MaxSamplesStopCondition&#45;&gt;traigent_core_stop_conditions_StopCondition -->
<g id="edge5" class="edge">
<title>traigent_core_stop_conditions_MaxSamplesStopCondition&#45;&gt;traigent_core_stop_conditions_StopCondition</title>
<path fill="none" stroke="black" d="M6581.03,-75.03C6544.08,-86.28 6495.98,-100.92 6459.71,-111.96"/>
<polygon fill="none" stroke="black" points="6458.36,-108.71 6449.81,-114.97 6460.4,-115.41 6458.36,-108.71"/>
</g>
<!-- traigent_core_stop_conditions_MaxTrialsStopCondition -->
<g id="node39" class="node">
<title>traigent_core_stop_conditions_MaxTrialsStopCondition</title>
<polygon fill="#c8e6c9" stroke="black" points="6544.5,-75 6413.5,-75 6413.5,-39 6544.5,-39 6544.5,-75"/>
<text text-anchor="middle" x="6479" y="-60" font-family="Helvetica,sans-Serif" font-size="10.00">MaxTrialsStopCondition</text>
<text text-anchor="middle" x="6479" y="-49" font-family="Helvetica,sans-Serif" font-size="10.00">(3 methods)</text>
</g>
<!-- traigent_core_stop_conditions_MaxTrialsStopCondition&#45;&gt;traigent_core_stop_conditions_StopCondition -->
<g id="edge2" class="edge">
<title>traigent_core_stop_conditions_MaxTrialsStopCondition&#45;&gt;traigent_core_stop_conditions_StopCondition</title>
<path fill="none" stroke="black" d="M6461.2,-75.3C6452.4,-83.86 6441.62,-94.34 6432,-103.7"/>
<polygon fill="none" stroke="black" points="6429.32,-101.42 6424.59,-110.9 6434.2,-106.43 6429.32,-101.42"/>
</g>
<!-- traigent_core_stop_conditions_BudgetStopCondition -->
<g id="node40" class="node">
<title>traigent_core_stop_conditions_BudgetStopCondition</title>
<polygon fill="#c8e6c9" stroke="black" points="6395.5,-75 6276.5,-75 6276.5,-39 6395.5,-39 6395.5,-75"/>
<text text-anchor="middle" x="6336" y="-60" font-family="Helvetica,sans-Serif" font-size="10.00">BudgetStopCondition</text>
<text text-anchor="middle" x="6336" y="-49" font-family="Helvetica,sans-Serif" font-size="10.00">(3 methods)</text>
</g>
<!-- traigent_core_stop_conditions_BudgetStopCondition&#45;&gt;traigent_core_stop_conditions_StopCondition -->
<g id="edge4" class="edge">
<title>traigent_core_stop_conditions_BudgetStopCondition&#45;&gt;traigent_core_stop_conditions_StopCondition</title>
<path fill="none" stroke="black" d="M6353.55,-75.3C6362.23,-83.86 6372.86,-94.34 6382.35,-103.7"/>
<polygon fill="none" stroke="black" points="6380.07,-106.37 6389.65,-110.9 6384.99,-101.38 6380.07,-106.37"/>
</g>
<!-- traigent_core_stop_conditions_PlateauAfterNStopCondition -->
<g id="node41" class="node">
<title>traigent_core_stop_conditions_PlateauAfterNStopCondition</title>
<polygon fill="#c8e6c9" stroke="black" points="6258,-75 6106,-75 6106,-39 6258,-39 6258,-75"/>
<text text-anchor="middle" x="6182" y="-60" font-family="Helvetica,sans-Serif" font-size="10.00">PlateauAfterNStopCondition</text>
<text text-anchor="middle" x="6182" y="-49" font-family="Helvetica,sans-Serif" font-size="10.00">(3 methods)</text>
</g>
<!-- traigent_core_stop_conditions_PlateauAfterNStopCondition&#45;&gt;traigent_core_stop_conditions_StopCondition -->
<g id="edge3" class="edge">
<title>traigent_core_stop_conditions_PlateauAfterNStopCondition&#45;&gt;traigent_core_stop_conditions_StopCondition</title>
<path fill="none" stroke="black" d="M6236.75,-75.03C6272.66,-86.21 6319.34,-100.73 6354.73,-111.74"/>
<polygon fill="none" stroke="black" points="6353.81,-115.12 6364.4,-114.75 6355.89,-108.43 6353.81,-115.12"/>
</g>
<!-- traigent_core_trial_context_TrialRunContext -->
<g id="node42" class="node">
<title>traigent_core_trial_context_TrialRunContext</title>
<polygon fill="#c8e6c9" stroke="black" points="6876,-75 6782,-75 6782,-39 6876,-39 6876,-75"/>
<text text-anchor="middle" x="6829" y="-60" font-family="Helvetica,sans-Serif" font-size="10.00">TrialRunContext</text>
<text text-anchor="middle" x="6829" y="-49" font-family="Helvetica,sans-Serif" font-size="10.00">(0 methods)</text>
</g>
<!-- traigent_core_types_ParameterType -->
<g id="node43" class="node">
<title>traigent_core_types_ParameterType</title>
<polygon fill="#c8e6c9" stroke="black" points="7259.5,-75 7170.5,-75 7170.5,-39 7259.5,-39 7259.5,-75"/>
<text text-anchor="middle" x="7215" y="-60" font-family="Helvetica,sans-Serif" font-size="10.00">ParameterType</text>
<text text-anchor="middle" x="7215" y="-49" font-family="Helvetica,sans-Serif" font-size="10.00">(0 methods)</text>
</g>
<!-- str -->
<g id="node73" class="node">
<title>str</title>
<polygon fill="#eeeeee" stroke="black" stroke-dasharray="5,2" points="7242,-147 7188,-147 7188,-111 7242,-111 7242,-147"/>
<text text-anchor="middle" x="7215" y="-126.5" font-family="Helvetica,sans-Serif" font-size="10.00">str</text>
</g>
<!-- traigent_core_types_ParameterType&#45;&gt;str -->
<g id="edge6" class="edge">
<title>traigent_core_types_ParameterType&#45;&gt;str</title>
<path fill="none" stroke="black" d="M7215,-75.3C7215,-83.02 7215,-92.29 7215,-100.89"/>
<polygon fill="none" stroke="black" points="7211.5,-100.9 7215,-110.9 7218.5,-100.9 7211.5,-100.9"/>
</g>
<!-- traigent_core_types_ConfigurationSpace -->
<g id="node44" class="node">
<title>traigent_core_types_ConfigurationSpace</title>
<polygon fill="#c8e6c9" stroke="black" points="7152.5,-75 7041.5,-75 7041.5,-39 7152.5,-39 7152.5,-75"/>
<text text-anchor="middle" x="7097" y="-60" font-family="Helvetica,sans-Serif" font-size="10.00">ConfigurationSpace</text>
<text text-anchor="middle" x="7097" y="-49" font-family="Helvetica,sans-Serif" font-size="10.00">(13 methods)</text>
</g>
<!-- traigent_core_types_Parameter -->
<g id="node45" class="node">
<title>traigent_core_types_Parameter</title>
<polygon fill="#c8e6c9" stroke="black" points="7023,-75 6947,-75 6947,-39 7023,-39 7023,-75"/>
<text text-anchor="middle" x="6985" y="-60" font-family="Helvetica,sans-Serif" font-size="10.00">Parameter</text>
<text text-anchor="middle" x="6985" y="-49" font-family="Helvetica,sans-Serif" font-size="10.00">(2 methods)</text>
</g>
<!-- traigent_core_types_ext_ParameterConfig -->
<g id="node46" class="node">
<title>traigent_core_types_ext_ParameterConfig</title>
<polygon fill="#c8e6c9" stroke="black" points="10481,-75 10383,-75 10383,-39 10481,-39 10481,-75"/>
<text text-anchor="middle" x="10432" y="-60" font-family="Helvetica,sans-Serif" font-size="10.00">ParameterConfig</text>
<text text-anchor="middle" x="10432" y="-49" font-family="Helvetica,sans-Serif" font-size="10.00">(0 methods)</text>
</g>
<!-- traigent_core_types_ext_LLMResponseMetadata -->
<g id="node47" class="node">
<title>traigent_core_types_ext_LLMResponseMetadata</title>
<polygon fill="#c8e6c9" stroke="black" points="10365,-75 10235,-75 10235,-39 10365,-39 10365,-75"/>
<text text-anchor="middle" x="10300" y="-60" font-family="Helvetica,sans-Serif" font-size="10.00">LLMResponseMetadata</text>
<text text-anchor="middle" x="10300" y="-49" font-family="Helvetica,sans-Serif" font-size="10.00">(0 methods)</text>
</g>
<!-- traigent_core_types_ext_ExampleResult -->
<g id="node48" class="node">
<title>traigent_core_types_ext_ExampleResult</title>
<polygon fill="#c8e6c9" stroke="black" points="10217,-75 10127,-75 10127,-39 10217,-39 10217,-75"/>
<text text-anchor="middle" x="10172" y="-60" font-family="Helvetica,sans-Serif" font-size="10.00">ExampleResult</text>
<text text-anchor="middle" x="10172" y="-49" font-family="Helvetica,sans-Serif" font-size="10.00">(0 methods)</text>
</g>
<!-- traigent_core_types_ext_FileMetadata -->
<g id="node49" class="node">
<title>traigent_core_types_ext_FileMetadata</title>
<polygon fill="#c8e6c9" stroke="black" points="10109,-75 10029,-75 10029,-39 10109,-39 10109,-75"/>
<text text-anchor="middle" x="10069" y="-60" font-family="Helvetica,sans-Serif" font-size="10.00">FileMetadata</text>
<text text-anchor="middle" x="10069" y="-49" font-family="Helvetica,sans-Serif" font-size="10.00">(0 methods)</text>
</g>
<!-- traigent_core_types_ext_SupportsOptimization -->
<g id="node50" class="node">
<title>traigent_core_types_ext_SupportsOptimization</title>
<polygon fill="#c8e6c9" stroke="black" points="10011,-75 9889,-75 9889,-39 10011,-39 10011,-75"/>
<text text-anchor="middle" x="9950" y="-60" font-family="Helvetica,sans-Serif" font-size="10.00">SupportsOptimization</text>
<text text-anchor="middle" x="9950" y="-49" font-family="Helvetica,sans-Serif" font-size="10.00">(1 methods)</text>
</g>
<!-- traigent_core_types_ext_HealthCheckResult -->
<g id="node51" class="node">
<title>traigent_core_types_ext_HealthCheckResult</title>
<polygon fill="#c8e6c9" stroke="black" points="9871,-75 9761,-75 9761,-39 9871,-39 9871,-75"/>
<text text-anchor="middle" x="9816" y="-60" font-family="Helvetica,sans-Serif" font-size="10.00">HealthCheckResult</text>
<text text-anchor="middle" x="9816" y="-49" font-family="Helvetica,sans-Serif" font-size="10.00">(0 methods)</text>
</g>
<!-- traigent_core_types_ext_SupportsValidation -->
<g id="node52" class="node">
<title>traigent_core_types_ext_SupportsValidation</title>
<polygon fill="#c8e6c9" stroke="black" points="9743,-75 9635,-75 9635,-39 9743,-39 9743,-75"/>
<text text-anchor="middle" x="9689" y="-60" font-family="Helvetica,sans-Serif" font-size="10.00">SupportsValidation</text>
<text text-anchor="middle" x="9689" y="-49" font-family="Helvetica,sans-Serif" font-size="10.00">(1 methods)</text>
</g>
<!-- traigent_core_types_ext_APIRequest -->
<g id="node53" class="node">
<title>traigent_core_types_ext_APIRequest</title>
<polygon fill="#c8e6c9" stroke="black" points="9617,-75 9541,-75 9541,-39 9617,-39 9617,-75"/>
<text text-anchor="middle" x="9579" y="-60" font-family="Helvetica,sans-Serif" font-size="10.00">APIRequest</text>
<text text-anchor="middle" x="9579" y="-49" font-family="Helvetica,sans-Serif" font-size="10.00">(0 methods)</text>
</g>
<!-- traigent_core_types_ext_OptimizationContext -->
<g id="node54" class="node">
<title>traigent_core_types_ext_OptimizationContext</title>
<polygon fill="#c8e6c9" stroke="black" points="9523,-75 9405,-75 9405,-39 9523,-39 9523,-75"/>
<text text-anchor="middle" x="9464" y="-60" font-family="Helvetica,sans-Serif" font-size="10.00">OptimizationContext</text>
<text text-anchor="middle" x="9464" y="-49" font-family="Helvetica,sans-Serif" font-size="10.00">(0 methods)</text>
</g>
<!-- traigent_core_types_ext_APIResponse -->
<g id="node55" class="node">
<title>traigent_core_types_ext_APIResponse</title>
<polygon fill="#c8e6c9" stroke="black" points="9387,-75 9307,-75 9307,-39 9387,-39 9387,-75"/>
<text text-anchor="middle" x="9347" y="-60" font-family="Helvetica,sans-Serif" font-size="10.00">APIResponse</text>
<text text-anchor="middle" x="9347" y="-49" font-family="Helvetica,sans-Serif" font-size="10.00">(0 methods)</text>
</g>
<!-- traigent_core_types_ext_StorageConfig -->
<g id="node56" class="node">
<title>traigent_core_types_ext_StorageConfig</title>
<polygon fill="#c8e6c9" stroke="black" points="9288.5,-75 9203.5,-75 9203.5,-39 9288.5,-39 9288.5,-75"/>
<text text-anchor="middle" x="9246" y="-60" font-family="Helvetica,sans-Serif" font-size="10.00">StorageConfig</text>
<text text-anchor="middle" x="9246" y="-49" font-family="Helvetica,sans-Serif" font-size="10.00">(0 methods)</text>
</g>
<!-- traigent_core_types_ext_ValidationError -->
<g id="node57" class="node">
<title>traigent_core_types_ext_ValidationError</title>
<polygon fill="#c8e6c9" stroke="black" points="9185.5,-75 9096.5,-75 9096.5,-39 9185.5,-39 9185.5,-75"/>
<text text-anchor="middle" x="9141" y="-60" font-family="Helvetica,sans-Serif" font-size="10.00">ValidationError</text>
<text text-anchor="middle" x="9141" y="-49" font-family="Helvetica,sans-Serif" font-size="10.00">(0 methods)</text>
</g>
<!-- traigent_core_types_ext_LogEntry -->
<g id="node58" class="node">
<title>traigent_core_types_ext_LogEntry</title>
<polygon fill="#c8e6c9" stroke="black" points="9078,-75 9002,-75 9002,-39 9078,-39 9078,-75"/>
<text text-anchor="middle" x="9040" y="-60" font-family="Helvetica,sans-Serif" font-size="10.00">LogEntry</text>
<text text-anchor="middle" x="9040" y="-49" font-family="Helvetica,sans-Serif" font-size="10.00">(0 methods)</text>
</g>
<!-- traigent_core_types_ext_ErrorContext -->
<g id="node59" class="node">
<title>traigent_core_types_ext_ErrorContext</title>
<polygon fill="#c8e6c9" stroke="black" points="8984,-75 8906,-75 8906,-39 8984,-39 8984,-75"/>
<text text-anchor="middle" x="8945" y="-60" font-family="Helvetica,sans-Serif" font-size="10.00">ErrorContext</text>
<text text-anchor="middle" x="8945" y="-49" font-family="Helvetica,sans-Serif" font-size="10.00">(0 methods)</text>
</g>
<!-- traigent_core_types_ext_PerformanceMetrics -->
<g id="node60" class="node">
<title>traigent_core_types_ext_PerformanceMetrics</title>
<polygon fill="#c8e6c9" stroke="black" points="8887.5,-75 8772.5,-75 8772.5,-39 8887.5,-39 8887.5,-75"/>
<text text-anchor="middle" x="8830" y="-60" font-family="Helvetica,sans-Serif" font-size="10.00">PerformanceMetrics</text>
<text text-anchor="middle" x="8830" y="-49" font-family="Helvetica,sans-Serif" font-size="10.00">(0 methods)</text>
</g>
<!-- traigent_core_types_ext_SupportsEvaluation -->
<g id="node61" class="node">
<title>traigent_core_types_ext_SupportsEvaluation</title>
<polygon fill="#c8e6c9" stroke="black" points="8754.5,-75 8643.5,-75 8643.5,-39 8754.5,-39 8754.5,-75"/>
<text text-anchor="middle" x="8699" y="-60" font-family="Helvetica,sans-Serif" font-size="10.00">SupportsEvaluation</text>
<text text-anchor="middle" x="8699" y="-49" font-family="Helvetica,sans-Serif" font-size="10.00">(1 methods)</text>
</g>
<!-- traigent_core_types_ext_WebSocketMessage -->
<g id="node62" class="node">
<title>traigent_core_types_ext_WebSocketMessage</title>
<polygon fill="#c8e6c9" stroke="black" points="8625.5,-75 8512.5,-75 8512.5,-39 8625.5,-39 8625.5,-75"/>
<text text-anchor="middle" x="8569" y="-60" font-family="Helvetica,sans-Serif" font-size="10.00">WebSocketMessage</text>
<text text-anchor="middle" x="8569" y="-49" font-family="Helvetica,sans-Serif" font-size="10.00">(0 methods)</text>
</g>
<!-- traigent_core_types_ext_CostBreakdown -->
<g id="node63" class="node">
<title>traigent_core_types_ext_CostBreakdown</title>
<polygon fill="#c8e6c9" stroke="black" points="8494.5,-75 8401.5,-75 8401.5,-39 8494.5,-39 8494.5,-75"/>
<text text-anchor="middle" x="8448" y="-60" font-family="Helvetica,sans-Serif" font-size="10.00">CostBreakdown</text>
<text text-anchor="middle" x="8448" y="-49" font-family="Helvetica,sans-Serif" font-size="10.00">(0 methods)</text>
</g>
<!-- traigent_core_types_ext_TrialMetadata -->
<g id="node64" class="node">
<title>traigent_core_types_ext_TrialMetadata</title>
<polygon fill="#c8e6c9" stroke="black" points="8383.5,-75 8300.5,-75 8300.5,-39 8383.5,-39 8383.5,-75"/>
<text text-anchor="middle" x="8342" y="-60" font-family="Helvetica,sans-Serif" font-size="10.00">TrialMetadata</text>
<text text-anchor="middle" x="8342" y="-49" font-family="Helvetica,sans-Serif" font-size="10.00">(0 methods)</text>
</g>
<!-- traigent_core_types_ext_OptimizationSummary -->
<g id="node65" class="node">
<title>traigent_core_types_ext_OptimizationSummary</title>
<polygon fill="#c8e6c9" stroke="black" points="8282.5,-75 8155.5,-75 8155.5,-39 8282.5,-39 8282.5,-75"/>
<text text-anchor="middle" x="8219" y="-60" font-family="Helvetica,sans-Serif" font-size="10.00">OptimizationSummary</text>
<text text-anchor="middle" x="8219" y="-49" font-family="Helvetica,sans-Serif" font-size="10.00">(0 methods)</text>
</g>
<!-- traigent_core_types_ext_ValidationResult -->
<g id="node66" class="node">
<title>traigent_core_types_ext_ValidationResult</title>
<polygon fill="#c8e6c9" stroke="black" points="8137,-75 8041,-75 8041,-39 8137,-39 8137,-75"/>
<text text-anchor="middle" x="8089" y="-60" font-family="Helvetica,sans-Serif" font-size="10.00">ValidationResult</text>
<text text-anchor="middle" x="8089" y="-49" font-family="Helvetica,sans-Serif" font-size="10.00">(0 methods)</text>
</g>
<!-- traigent_core_types_ext_ConfigurationValidation -->
<g id="node67" class="node">
<title>traigent_core_types_ext_ConfigurationValidation</title>
<polygon fill="#c8e6c9" stroke="black" points="8022.5,-75 7891.5,-75 7891.5,-39 8022.5,-39 8022.5,-75"/>
<text text-anchor="middle" x="7957" y="-60" font-family="Helvetica,sans-Serif" font-size="10.00">ConfigurationValidation</text>
<text text-anchor="middle" x="7957" y="-49" font-family="Helvetica,sans-Serif" font-size="10.00">(0 methods)</text>
</g>
<!-- traigent_core_types_ext_MetricsAggregation -->
<g id="node68" class="node">
<title>traigent_core_types_ext_MetricsAggregation</title>
<polygon fill="#c8e6c9" stroke="black" points="7873,-75 7761,-75 7761,-39 7873,-39 7873,-75"/>
<text text-anchor="middle" x="7817" y="-60" font-family="Helvetica,sans-Serif" font-size="10.00">MetricsAggregation</text>
<text text-anchor="middle" x="7817" y="-49" font-family="Helvetica,sans-Serif" font-size="10.00">(0 methods)</text>
</g>
<!-- traigent_core_types_ext_EvaluationSummary -->
<g id="node69" class="node">
<title>traigent_core_types_ext_EvaluationSummary</title>
<polygon fill="#c8e6c9" stroke="black" points="7743,-75 7627,-75 7627,-39 7743,-39 7743,-75"/>
<text text-anchor="middle" x="7685" y="-60" font-family="Helvetica,sans-Serif" font-size="10.00">EvaluationSummary</text>
<text text-anchor="middle" x="7685" y="-49" font-family="Helvetica,sans-Serif" font-size="10.00">(0 methods)</text>
</g>
<!-- traigent_core_types_ext_CategoricalChoices -->
<g id="node70" class="node">
<title>traigent_core_types_ext_CategoricalChoices</title>
<polygon fill="#c8e6c9" stroke="black" points="7609,-75 7499,-75 7499,-39 7609,-39 7609,-75"/>
<text text-anchor="middle" x="7554" y="-60" font-family="Helvetica,sans-Serif" font-size="10.00">CategoricalChoices</text>
<text text-anchor="middle" x="7554" y="-49" font-family="Helvetica,sans-Serif" font-size="10.00">(0 methods)</text>
</g>
<!-- traigent_core_types_ext_LLMMetrics -->
<g id="node71" class="node">
<title>traigent_core_types_ext_LLMMetrics</title>
<polygon fill="#c8e6c9" stroke="black" points="7481,-75 7405,-75 7405,-39 7481,-39 7481,-75"/>
<text text-anchor="middle" x="7443" y="-60" font-family="Helvetica,sans-Serif" font-size="10.00">LLMMetrics</text>
<text text-anchor="middle" x="7443" y="-49" font-family="Helvetica,sans-Serif" font-size="10.00">(0 methods)</text>
</g>
<!-- traigent_core_types_ext_ParameterBounds -->
<g id="node72" class="node">
<title>traigent_core_types_ext_ParameterBounds</title>
<polygon fill="#c8e6c9" stroke="black" points="7386.5,-75 7283.5,-75 7283.5,-39 7386.5,-39 7386.5,-75"/>
<text text-anchor="middle" x="7335" y="-60" font-family="Helvetica,sans-Serif" font-size="10.00">ParameterBounds</text>
<text text-anchor="middle" x="7335" y="-49" font-family="Helvetica,sans-Serif" font-size="10.00">(0 methods)</text>
</g>
</g>
</svg>
