<?xml version="1.0" encoding="UTF-8" standalone="no"?>
<!DOCTYPE svg PUBLIC "-//W3C//DTD SVG 1.1//EN"
 "http://www.w3.org/Graphics/SVG/1.1/DTD/svg11.dtd">
<!-- Generated by graphviz version 2.43.0 (0)
 -->
<!-- Title: ClassHierarchy Pages: 1 -->
<svg width="6152pt" height="265pt"
 viewBox="0.00 0.00 6152.00 265.00" xmlns="http://www.w3.org/2000/svg" xmlns:xlink="http://www.w3.org/1999/xlink">
<g id="graph0" class="graph" transform="scale(1 1) rotate(0) translate(4 261)">
<title>ClassHierarchy</title>
<polygon fill="white" stroke="transparent" points="-4,4 -4,-261 6148,-261 6148,4 -4,4"/>
<g id="clust1" class="cluster">
<title>cluster_traigent_optimizers_base</title>
<polygon fill="none" stroke="gray" stroke-dasharray="5,2" points="1065,-174 1065,-249 1257,-249 1257,-174 1065,-174"/>
<text text-anchor="middle" x="1161" y="-181.8" font-family="Times,serif" font-size="14.00">traigent.optimizers.base</text>
</g>
<g id="clust2" class="cluster">
<title>cluster_traigent_optimizers_batch_optimizers</title>
<polygon fill="none" stroke="gray" stroke-dasharray="5,2" points="8,-91 8,-166 644,-166 644,-91 8,-91"/>
<text text-anchor="middle" x="326" y="-98.8" font-family="Times,serif" font-size="14.00">traigent.optimizers.batch_optimizers</text>
</g>
<g id="clust3" class="cluster">
<title>cluster_traigent_optimizers_bayesian</title>
<polygon fill="none" stroke="gray" stroke-dasharray="5,2" points="652,-91 652,-166 874,-166 874,-91 652,-91"/>
<text text-anchor="middle" x="763" y="-98.8" font-family="Times,serif" font-size="14.00">traigent.optimizers.bayesian</text>
</g>
<g id="clust4" class="cluster">
<title>cluster_traigent_optimizers_benchmarking</title>
<polygon fill="none" stroke="gray" stroke-dasharray="5,2" points="2547,-8 2547,-83 2808,-83 2808,-8 2547,-8"/>
<text text-anchor="middle" x="2677.5" y="-15.8" font-family="Times,serif" font-size="14.00">traigent.optimizers.benchmarking</text>
</g>
<g id="clust5" class="cluster">
<title>cluster_traigent_optimizers_cloud_optimizer</title>
<polygon fill="none" stroke="gray" stroke-dasharray="5,2" points="882,-91 882,-166 1154,-166 1154,-91 882,-91"/>
<text text-anchor="middle" x="1018" y="-98.8" font-family="Times,serif" font-size="14.00">traigent.optimizers.cloud_optimizer</text>
</g>
<g id="clust6" class="cluster">
<title>cluster_traigent_optimizers_grid</title>
<polygon fill="none" stroke="gray" stroke-dasharray="5,2" points="1162,-91 1162,-166 1350,-166 1350,-91 1162,-91"/>
<text text-anchor="middle" x="1256" y="-98.8" font-family="Times,serif" font-size="14.00">traigent.optimizers.grid</text>
</g>
<g id="clust7" class="cluster">
<title>cluster_traigent_optimizers_interactive_optimizer</title>
<polygon fill="none" stroke="gray" stroke-dasharray="5,2" points="1358,-91 1358,-166 1669,-166 1669,-91 1358,-91"/>
<text text-anchor="middle" x="1513.5" y="-98.8" font-family="Times,serif" font-size="14.00">traigent.optimizers.interactive_optimizer</text>
</g>
<g id="clust8" class="cluster">
<title>cluster_traigent_optimizers_optuna_adapter</title>
<polygon fill="none" stroke="gray" stroke-dasharray="5,2" points="2816,-8 2816,-83 3087,-83 3087,-8 2816,-8"/>
<text text-anchor="middle" x="2951.5" y="-15.8" font-family="Times,serif" font-size="14.00">traigent.optimizers.optuna_adapter</text>
</g>
<g id="clust9" class="cluster">
<title>cluster_traigent_optimizers_optuna_checkpoint</title>
<polygon fill="none" stroke="gray" stroke-dasharray="5,2" points="3095,-8 3095,-83 3388,-83 3388,-8 3095,-8"/>
<text text-anchor="middle" x="3241.5" y="-15.8" font-family="Times,serif" font-size="14.00">traigent.optimizers.optuna_checkpoint</text>
</g>
<g id="clust10" class="cluster">
<title>cluster_traigent_optimizers_optuna_coordinator</title>
<polygon fill="none" stroke="gray" stroke-dasharray="5,2" points="3396,-8 3396,-83 4104,-83 4104,-8 3396,-8"/>
<text text-anchor="middle" x="3750" y="-15.8" font-family="Times,serif" font-size="14.00">traigent.optimizers.optuna_coordinator</text>
</g>
<g id="clust11" class="cluster">
<title>cluster_traigent_optimizers_optuna_optimizer</title>
<polygon fill="none" stroke="gray" stroke-dasharray="5,2" points="1677,-8 1677,-166 2539,-166 2539,-8 1677,-8"/>
<text text-anchor="middle" x="2108" y="-15.8" font-family="Times,serif" font-size="14.00">traigent.optimizers.optuna_optimizer</text>
</g>
<g id="clust12" class="cluster">
<title>cluster_traigent_optimizers_pruners</title>
<polygon fill="none" stroke="gray" stroke-dasharray="5,2" points="4112,-8 4112,-83 4342,-83 4342,-8 4112,-8"/>
<text text-anchor="middle" x="4227" y="-15.8" font-family="Times,serif" font-size="14.00">traigent.optimizers.pruners</text>
</g>
<g id="clust13" class="cluster">
<title>cluster_traigent_optimizers_random</title>
<polygon fill="none" stroke="gray" stroke-dasharray="5,2" points="2547,-91 2547,-166 2761,-166 2761,-91 2547,-91"/>
<text text-anchor="middle" x="2654" y="-98.8" font-family="Times,serif" font-size="14.00">traigent.optimizers.random</text>
</g>
<g id="clust14" class="cluster">
<title>cluster_traigent_optimizers_remote</title>
<polygon fill="none" stroke="gray" stroke-dasharray="5,2" points="2769,-91 2769,-166 3071,-166 3071,-91 2769,-91"/>
<text text-anchor="middle" x="2920" y="-98.8" font-family="Times,serif" font-size="14.00">traigent.optimizers.remote</text>
</g>
<g id="clust15" class="cluster">
<title>cluster_traigent_optimizers_remote_services</title>
<polygon fill="none" stroke="gray" stroke-dasharray="5,2" points="4378,-8 4378,-166 5502,-166 5502,-8 4378,-8"/>
<text text-anchor="middle" x="4940" y="-15.8" font-family="Times,serif" font-size="14.00">traigent.optimizers.remote_services</text>
</g>
<g id="clust16" class="cluster">
<title>cluster_traigent_optimizers_results</title>
<polygon fill="none" stroke="gray" stroke-dasharray="5,2" points="5510,-8 5510,-83 5730,-83 5730,-8 5510,-8"/>
<text text-anchor="middle" x="5620" y="-15.8" font-family="Times,serif" font-size="14.00">traigent.optimizers.results</text>
</g>
<g id="clust17" class="cluster">
<title>cluster_traigent_optimizers_service_registry</title>
<polygon fill="none" stroke="gray" stroke-dasharray="5,2" points="5738,-8 5738,-83 6136,-83 6136,-8 5738,-8"/>
<text text-anchor="middle" x="5937" y="-15.8" font-family="Times,serif" font-size="14.00">traigent.optimizers.service_registry</text>
</g>
<!-- traigent_optimizers_base_BaseOptimizer -->
<g id="node1" class="node">
<title>traigent_optimizers_base_BaseOptimizer</title>
<polygon fill="#bbdefb" stroke="black" points="1205.5,-241 1116.5,-241 1116.5,-205 1205.5,-205 1205.5,-241"/>
<text text-anchor="middle" x="1161" y="-226" font-family="Helvetica,sans-Serif" font-size="10.00">BaseOptimizer</text>
<text text-anchor="middle" x="1161" y="-215" font-family="Helvetica,sans-Serif" font-size="10.00">(13 methods)</text>
</g>
<!-- traigent_optimizers_batch_optimizers_AdaptiveBatchOptimizer -->
<g id="node2" class="node">
<title>traigent_optimizers_batch_optimizers_AdaptiveBatchOptimizer</title>
<polygon fill="#c8e6c9" stroke="black" points="636,-158 500,-158 500,-122 636,-122 636,-158"/>
<text text-anchor="middle" x="568" y="-143" font-family="Helvetica,sans-Serif" font-size="10.00">AdaptiveBatchOptimizer</text>
<text text-anchor="middle" x="568" y="-132" font-family="Helvetica,sans-Serif" font-size="10.00">(7 methods)</text>
</g>
<!-- traigent_optimizers_batch_optimizers_AdaptiveBatchOptimizer&#45;&gt;traigent_optimizers_base_BaseOptimizer -->
<g id="edge3" class="edge">
<title>traigent_optimizers_batch_optimizers_AdaptiveBatchOptimizer&#45;&gt;traigent_optimizers_base_BaseOptimizer</title>
<path fill="none" stroke="black" d="M617.54,-158.12C627.53,-161.11 638.03,-163.92 648,-166 812.63,-200.37 1011.65,-214.44 1106.11,-219.51"/>
<polygon fill="none" stroke="black" points="1106.12,-223.01 1116.28,-220.04 1106.48,-216.02 1106.12,-223.01"/>
</g>
<!-- traigent_optimizers_batch_optimizers_MultiObjectiveBatchOptimizer -->
<g id="node3" class="node">
<title>traigent_optimizers_batch_optimizers_MultiObjectiveBatchOptimizer</title>
<polygon fill="#c8e6c9" stroke="black" points="482,-158 318,-158 318,-122 482,-122 482,-158"/>
<text text-anchor="middle" x="400" y="-143" font-family="Helvetica,sans-Serif" font-size="10.00">MultiObjectiveBatchOptimizer</text>
<text text-anchor="middle" x="400" y="-132" font-family="Helvetica,sans-Serif" font-size="10.00">(8 methods)</text>
</g>
<!-- traigent_optimizers_batch_optimizers_MultiObjectiveBatchOptimizer&#45;&gt;traigent_optimizers_base_BaseOptimizer -->
<g id="edge2" class="edge">
<title>traigent_optimizers_batch_optimizers_MultiObjectiveBatchOptimizer&#45;&gt;traigent_optimizers_base_BaseOptimizer</title>
<path fill="none" stroke="black" d="M455.94,-158.11C467.45,-161.14 479.55,-163.97 491,-166 716.96,-206.13 991.04,-217.65 1106.04,-220.84"/>
<polygon fill="none" stroke="black" points="1106.25,-224.34 1116.34,-221.11 1106.44,-217.34 1106.25,-224.34"/>
</g>
<!-- traigent_optimizers_batch_optimizers_ParallelBatchOptimizer -->
<g id="node4" class="node">
<title>traigent_optimizers_batch_optimizers_ParallelBatchOptimizer</title>
<polygon fill="#c8e6c9" stroke="black" points="300,-158 172,-158 172,-122 300,-122 300,-158"/>
<text text-anchor="middle" x="236" y="-143" font-family="Helvetica,sans-Serif" font-size="10.00">ParallelBatchOptimizer</text>
<text text-anchor="middle" x="236" y="-132" font-family="Helvetica,sans-Serif" font-size="10.00">(7 methods)</text>
</g>
<!-- traigent_optimizers_batch_optimizers_ParallelBatchOptimizer&#45;&gt;traigent_optimizers_base_BaseOptimizer -->
<g id="edge1" class="edge">
<title>traigent_optimizers_batch_optimizers_ParallelBatchOptimizer&#45;&gt;traigent_optimizers_base_BaseOptimizer</title>
<path fill="none" stroke="black" d="M279.88,-158.11C289.36,-161.22 299.41,-164.08 309,-166 462.51,-196.77 942.78,-214.89 1106.04,-220.28"/>
<polygon fill="none" stroke="black" points="1106.22,-223.79 1116.33,-220.62 1106.45,-216.8 1106.22,-223.79"/>
</g>
<!-- traigent_optimizers_batch_optimizers_BatchOptimizationConfig -->
<g id="node5" class="node">
<title>traigent_optimizers_batch_optimizers_BatchOptimizationConfig</title>
<polygon fill="#c8e6c9" stroke="black" points="154,-158 16,-158 16,-122 154,-122 154,-158"/>
<text text-anchor="middle" x="85" y="-143" font-family="Helvetica,sans-Serif" font-size="10.00">BatchOptimizationConfig</text>
<text text-anchor="middle" x="85" y="-132" font-family="Helvetica,sans-Serif" font-size="10.00">(0 methods)</text>
</g>
<!-- traigent_optimizers_bayesian_BayesianOptimizer -->
<g id="node6" class="node">
<title>traigent_optimizers_bayesian_BayesianOptimizer</title>
<polygon fill="#c8e6c9" stroke="black" points="866,-158 756,-158 756,-122 866,-122 866,-158"/>
<text text-anchor="middle" x="811" y="-143" font-family="Helvetica,sans-Serif" font-size="10.00">BayesianOptimizer</text>
<text text-anchor="middle" x="811" y="-132" font-family="Helvetica,sans-Serif" font-size="10.00">(10 methods)</text>
</g>
<!-- traigent_optimizers_bayesian_BayesianOptimizer&#45;&gt;traigent_optimizers_base_BaseOptimizer -->
<g id="edge4" class="edge">
<title>traigent_optimizers_bayesian_BayesianOptimizer&#45;&gt;traigent_optimizers_base_BaseOptimizer</title>
<path fill="none" stroke="black" d="M853.55,-158.05C861.59,-160.94 870,-163.73 878,-166 956.19,-188.16 1048.95,-204.73 1106.4,-213.89"/>
<polygon fill="none" stroke="black" points="1105.93,-217.36 1116.36,-215.46 1107.02,-210.44 1105.93,-217.36"/>
</g>
<!-- traigent_optimizers_benchmarking_BenchmarkRun -->
<g id="node7" class="node">
<title>traigent_optimizers_benchmarking_BenchmarkRun</title>
<polygon fill="#c8e6c9" stroke="black" points="2722.5,-75 2631.5,-75 2631.5,-39 2722.5,-39 2722.5,-75"/>
<text text-anchor="middle" x="2677" y="-60" font-family="Helvetica,sans-Serif" font-size="10.00">BenchmarkRun</text>
<text text-anchor="middle" x="2677" y="-49" font-family="Helvetica,sans-Serif" font-size="10.00">(0 methods)</text>
</g>
<!-- traigent_optimizers_cloud_optimizer_RemoteOptimizer -->
<g id="node8" class="node">
<title>traigent_optimizers_cloud_optimizer_RemoteOptimizer</title>
<polygon fill="#c8e6c9" stroke="black" points="1145.5,-158 1042.5,-158 1042.5,-122 1145.5,-122 1145.5,-158"/>
<text text-anchor="middle" x="1094" y="-143" font-family="Helvetica,sans-Serif" font-size="10.00">RemoteOptimizer</text>
<text text-anchor="middle" x="1094" y="-132" font-family="Helvetica,sans-Serif" font-size="10.00">(14 methods)</text>
</g>
<!-- traigent_optimizers_cloud_optimizer_RemoteOptimizer&#45;&gt;traigent_optimizers_base_BaseOptimizer -->
<g id="edge5" class="edge">
<title>traigent_optimizers_cloud_optimizer_RemoteOptimizer&#45;&gt;traigent_optimizers_base_BaseOptimizer</title>
<path fill="none" stroke="black" d="M1108.21,-158.18C1117.54,-169.45 1129.89,-184.39 1140.3,-196.98"/>
<polygon fill="none" stroke="black" points="1137.74,-199.37 1146.81,-204.85 1143.13,-194.91 1137.74,-199.37"/>
</g>
<!-- traigent_optimizers_grid_GridSearchOptimizer -->
<g id="node9" class="node">
<title>traigent_optimizers_grid_GridSearchOptimizer</title>
<polygon fill="#c8e6c9" stroke="black" points="1288,-158 1170,-158 1170,-122 1288,-122 1288,-158"/>
<text text-anchor="middle" x="1229" y="-143" font-family="Helvetica,sans-Serif" font-size="10.00">GridSearchOptimizer</text>
<text text-anchor="middle" x="1229" y="-132" font-family="Helvetica,sans-Serif" font-size="10.00">(13 methods)</text>
</g>
<!-- traigent_optimizers_grid_GridSearchOptimizer&#45;&gt;traigent_optimizers_base_BaseOptimizer -->
<g id="edge6" class="edge">
<title>traigent_optimizers_grid_GridSearchOptimizer&#45;&gt;traigent_optimizers_base_BaseOptimizer</title>
<path fill="none" stroke="black" d="M1214.58,-158.18C1205.11,-169.45 1192.57,-184.39 1182.01,-196.98"/>
<polygon fill="none" stroke="black" points="1179.15,-194.94 1175.4,-204.85 1184.51,-199.44 1179.15,-194.94"/>
</g>
<!-- traigent_optimizers_interactive_optimizer_InteractiveOptimizer -->
<g id="node10" class="node">
<title>traigent_optimizers_interactive_optimizer_InteractiveOptimizer</title>
<polygon fill="#c8e6c9" stroke="black" points="1638.5,-158 1521.5,-158 1521.5,-122 1638.5,-122 1638.5,-158"/>
<text text-anchor="middle" x="1580" y="-143" font-family="Helvetica,sans-Serif" font-size="10.00">InteractiveOptimizer</text>
<text text-anchor="middle" x="1580" y="-132" font-family="Helvetica,sans-Serif" font-size="10.00">(9 methods)</text>
</g>
<!-- traigent_optimizers_interactive_optimizer_InteractiveOptimizer&#45;&gt;traigent_optimizers_base_BaseOptimizer -->
<g id="edge7" class="edge">
<title>traigent_optimizers_interactive_optimizer_InteractiveOptimizer&#45;&gt;traigent_optimizers_base_BaseOptimizer</title>
<path fill="none" stroke="black" d="M1538.24,-158.04C1529.97,-161 1521.28,-163.82 1513,-166 1409.84,-193.16 1285.98,-209.14 1216.09,-216.67"/>
<polygon fill="none" stroke="black" points="1215.34,-213.23 1205.77,-217.77 1216.08,-220.2 1215.34,-213.23"/>
</g>
<!-- traigent_optimizers_interactive_optimizer_RemoteGuidanceService -->
<g id="node11" class="node">
<title>traigent_optimizers_interactive_optimizer_RemoteGuidanceService</title>
<polygon fill="#c8e6c9" stroke="black" points="1503.5,-158 1366.5,-158 1366.5,-122 1503.5,-122 1503.5,-158"/>
<text text-anchor="middle" x="1435" y="-143" font-family="Helvetica,sans-Serif" font-size="10.00">RemoteGuidanceService</text>
<text text-anchor="middle" x="1435" y="-132" font-family="Helvetica,sans-Serif" font-size="10.00">(4 methods)</text>
</g>
<!-- traigent_optimizers_optuna_adapter_OptunaAdapter -->
<g id="node12" class="node">
<title>traigent_optimizers_optuna_adapter_OptunaAdapter</title>
<polygon fill="#c8e6c9" stroke="black" points="2996,-75 2906,-75 2906,-39 2996,-39 2996,-75"/>
<text text-anchor="middle" x="2951" y="-60" font-family="Helvetica,sans-Serif" font-size="10.00">OptunaAdapter</text>
<text text-anchor="middle" x="2951" y="-49" font-family="Helvetica,sans-Serif" font-size="10.00">(4 methods)</text>
</g>
<!-- traigent_optimizers_optuna_checkpoint_OptunaCheckpointManager -->
<g id="node13" class="node">
<title>traigent_optimizers_optuna_checkpoint_OptunaCheckpointManager</title>
<polygon fill="#c8e6c9" stroke="black" points="3315.5,-75 3166.5,-75 3166.5,-39 3315.5,-39 3315.5,-75"/>
<text text-anchor="middle" x="3241" y="-60" font-family="Helvetica,sans-Serif" font-size="10.00">OptunaCheckpointManager</text>
<text text-anchor="middle" x="3241" y="-49" font-family="Helvetica,sans-Serif" font-size="10.00">(14 methods)</text>
</g>
<!-- traigent_optimizers_optuna_coordinator_RateLimitedOptimizer -->
<g id="node14" class="node">
<title>traigent_optimizers_optuna_coordinator_RateLimitedOptimizer</title>
<polygon fill="#c8e6c9" stroke="black" points="4096,-75 3972,-75 3972,-39 4096,-39 4096,-75"/>
<text text-anchor="middle" x="4034" y="-60" font-family="Helvetica,sans-Serif" font-size="10.00">RateLimitedOptimizer</text>
<text text-anchor="middle" x="4034" y="-49" font-family="Helvetica,sans-Serif" font-size="10.00">(3 methods)</text>
</g>
<!-- traigent_optimizers_optuna_coordinator_EdgeExecutor -->
<g id="node15" class="node">
<title>traigent_optimizers_optuna_coordinator_EdgeExecutor</title>
<polygon fill="#c8e6c9" stroke="black" points="3953.5,-75 3870.5,-75 3870.5,-39 3953.5,-39 3953.5,-75"/>
<text text-anchor="middle" x="3912" y="-60" font-family="Helvetica,sans-Serif" font-size="10.00">EdgeExecutor</text>
<text text-anchor="middle" x="3912" y="-49" font-family="Helvetica,sans-Serif" font-size="10.00">(7 methods)</text>
</g>
<!-- traigent_optimizers_optuna_coordinator_BatchOptimizer -->
<g id="node16" class="node">
<title>traigent_optimizers_optuna_coordinator_BatchOptimizer</title>
<polygon fill="#c8e6c9" stroke="black" points="3852,-75 3760,-75 3760,-39 3852,-39 3852,-75"/>
<text text-anchor="middle" x="3806" y="-60" font-family="Helvetica,sans-Serif" font-size="10.00">BatchOptimizer</text>
<text text-anchor="middle" x="3806" y="-49" font-family="Helvetica,sans-Serif" font-size="10.00">(5 methods)</text>
</g>
<!-- traigent_optimizers_optuna_coordinator_OptunaCoordinator -->
<g id="node17" class="node">
<title>traigent_optimizers_optuna_coordinator_OptunaCoordinator</title>
<polygon fill="#c8e6c9" stroke="black" points="3741.5,-75 3632.5,-75 3632.5,-39 3741.5,-39 3741.5,-75"/>
<text text-anchor="middle" x="3687" y="-60" font-family="Helvetica,sans-Serif" font-size="10.00">OptunaCoordinator</text>
<text text-anchor="middle" x="3687" y="-49" font-family="Helvetica,sans-Serif" font-size="10.00">(11 methods)</text>
</g>
<!-- traigent_optimizers_optuna_coordinator_ResilientCoordinator -->
<g id="node18" class="node">
<title>traigent_optimizers_optuna_coordinator_ResilientCoordinator</title>
<polygon fill="#c8e6c9" stroke="black" points="3614,-75 3498,-75 3498,-39 3614,-39 3614,-75"/>
<text text-anchor="middle" x="3556" y="-60" font-family="Helvetica,sans-Serif" font-size="10.00">ResilientCoordinator</text>
<text text-anchor="middle" x="3556" y="-49" font-family="Helvetica,sans-Serif" font-size="10.00">(6 methods)</text>
</g>
<!-- traigent_optimizers_optuna_coordinator_RateLimiter -->
<g id="node19" class="node">
<title>traigent_optimizers_optuna_coordinator_RateLimiter</title>
<polygon fill="#c8e6c9" stroke="black" points="3480,-75 3404,-75 3404,-39 3480,-39 3480,-75"/>
<text text-anchor="middle" x="3442" y="-60" font-family="Helvetica,sans-Serif" font-size="10.00">RateLimiter</text>
<text text-anchor="middle" x="3442" y="-49" font-family="Helvetica,sans-Serif" font-size="10.00">(2 methods)</text>
</g>
<!-- traigent_optimizers_optuna_optimizer_OptunaNSGAIIOptimizer -->
<g id="node20" class="node">
<title>traigent_optimizers_optuna_optimizer_OptunaNSGAIIOptimizer</title>
<polygon fill="#c8e6c9" stroke="black" points="2531,-75 2397,-75 2397,-39 2531,-39 2531,-75"/>
<text text-anchor="middle" x="2464" y="-60" font-family="Helvetica,sans-Serif" font-size="10.00">OptunaNSGAIIOptimizer</text>
<text text-anchor="middle" x="2464" y="-49" font-family="Helvetica,sans-Serif" font-size="10.00">(0 methods)</text>
</g>
<!-- traigent_optimizers_optuna_optimizer_OptunaBaseOptimizer -->
<g id="node21" class="node">
<title>traigent_optimizers_optuna_optimizer_OptunaBaseOptimizer</title>
<polygon fill="#c8e6c9" stroke="black" points="2172,-158 2048,-158 2048,-122 2172,-122 2172,-158"/>
<text text-anchor="middle" x="2110" y="-143" font-family="Helvetica,sans-Serif" font-size="10.00">OptunaBaseOptimizer</text>
<text text-anchor="middle" x="2110" y="-132" font-family="Helvetica,sans-Serif" font-size="10.00">(18 methods)</text>
</g>
<!-- traigent_optimizers_optuna_optimizer_OptunaNSGAIIOptimizer&#45;&gt;traigent_optimizers_optuna_optimizer_OptunaBaseOptimizer -->
<g id="edge12" class="edge">
<title>traigent_optimizers_optuna_optimizer_OptunaNSGAIIOptimizer&#45;&gt;traigent_optimizers_optuna_optimizer_OptunaBaseOptimizer</title>
<path fill="none" stroke="black" d="M2415.2,-75C2406.21,-77.86 2396.86,-80.66 2388,-83 2318.74,-101.3 2238.39,-116.89 2181.95,-126.94"/>
<polygon fill="none" stroke="black" points="2181.28,-123.5 2172.04,-128.69 2182.5,-130.39 2181.28,-123.5"/>
</g>
<!-- traigent_optimizers_optuna_optimizer_OptunaBaseOptimizer&#45;&gt;traigent_optimizers_base_BaseOptimizer -->
<g id="edge8" class="edge">
<title>traigent_optimizers_optuna_optimizer_OptunaBaseOptimizer&#45;&gt;traigent_optimizers_base_BaseOptimizer</title>
<path fill="none" stroke="black" d="M2047.73,-146.31C1873.22,-161.21 1381.36,-203.19 1216.01,-217.3"/>
<polygon fill="none" stroke="black" points="1215.26,-213.86 1205.6,-218.19 1215.86,-220.83 1215.26,-213.86"/>
</g>
<!-- traigent_optimizers_optuna_optimizer_OptunaTPEOptimizer -->
<g id="node22" class="node">
<title>traigent_optimizers_optuna_optimizer_OptunaTPEOptimizer</title>
<polygon fill="#c8e6c9" stroke="black" points="2379,-75 2261,-75 2261,-39 2379,-39 2379,-75"/>
<text text-anchor="middle" x="2320" y="-60" font-family="Helvetica,sans-Serif" font-size="10.00">OptunaTPEOptimizer</text>
<text text-anchor="middle" x="2320" y="-49" font-family="Helvetica,sans-Serif" font-size="10.00">(0 methods)</text>
</g>
<!-- traigent_optimizers_optuna_optimizer_OptunaTPEOptimizer&#45;&gt;traigent_optimizers_optuna_optimizer_OptunaBaseOptimizer -->
<g id="edge9" class="edge">
<title>traigent_optimizers_optuna_optimizer_OptunaTPEOptimizer&#45;&gt;traigent_optimizers_optuna_optimizer_OptunaBaseOptimizer</title>
<path fill="none" stroke="black" d="M2275.72,-75.08C2243.05,-87.68 2198.44,-104.89 2163.73,-118.28"/>
<polygon fill="none" stroke="black" points="2162.29,-115.08 2154.22,-121.94 2164.81,-121.61 2162.29,-115.08"/>
</g>
<!-- traigent_optimizers_optuna_optimizer_OptunaGridOptimizer -->
<g id="node23" class="node">
<title>traigent_optimizers_optuna_optimizer_OptunaGridOptimizer</title>
<polygon fill="#c8e6c9" stroke="black" points="2243,-75 2123,-75 2123,-39 2243,-39 2243,-75"/>
<text text-anchor="middle" x="2183" y="-60" font-family="Helvetica,sans-Serif" font-size="10.00">OptunaGridOptimizer</text>
<text text-anchor="middle" x="2183" y="-49" font-family="Helvetica,sans-Serif" font-size="10.00">(1 methods)</text>
</g>
<!-- traigent_optimizers_optuna_optimizer_OptunaGridOptimizer&#45;&gt;traigent_optimizers_optuna_optimizer_OptunaBaseOptimizer -->
<g id="edge13" class="edge">
<title>traigent_optimizers_optuna_optimizer_OptunaGridOptimizer&#45;&gt;traigent_optimizers_optuna_optimizer_OptunaBaseOptimizer</title>
<path fill="none" stroke="black" d="M2167.52,-75.18C2157.26,-86.56 2143.64,-101.67 2132.23,-114.34"/>
<polygon fill="none" stroke="black" points="2129.55,-112.08 2125.46,-121.85 2134.75,-116.76 2129.55,-112.08"/>
</g>
<!-- traigent_optimizers_optuna_optimizer_OptunaCMAESOptimizer -->
<g id="node24" class="node">
<title>traigent_optimizers_optuna_optimizer_OptunaCMAESOptimizer</title>
<polygon fill="#c8e6c9" stroke="black" points="2105,-75 1971,-75 1971,-39 2105,-39 2105,-75"/>
<text text-anchor="middle" x="2038" y="-60" font-family="Helvetica,sans-Serif" font-size="10.00">OptunaCMAESOptimizer</text>
<text text-anchor="middle" x="2038" y="-49" font-family="Helvetica,sans-Serif" font-size="10.00">(0 methods)</text>
</g>
<!-- traigent_optimizers_optuna_optimizer_OptunaCMAESOptimizer&#45;&gt;traigent_optimizers_optuna_optimizer_OptunaBaseOptimizer -->
<g id="edge11" class="edge">
<title>traigent_optimizers_optuna_optimizer_OptunaCMAESOptimizer&#45;&gt;traigent_optimizers_optuna_optimizer_OptunaBaseOptimizer</title>
<path fill="none" stroke="black" d="M2053.27,-75.18C2063.39,-86.56 2076.82,-101.67 2088.08,-114.34"/>
<polygon fill="none" stroke="black" points="2085.49,-116.7 2094.75,-121.85 2090.72,-112.05 2085.49,-116.7"/>
</g>
<!-- traigent_optimizers_optuna_optimizer_OptunaRandomOptimizer -->
<g id="node25" class="node">
<title>traigent_optimizers_optuna_optimizer_OptunaRandomOptimizer</title>
<polygon fill="#c8e6c9" stroke="black" points="1953,-75 1813,-75 1813,-39 1953,-39 1953,-75"/>
<text text-anchor="middle" x="1883" y="-60" font-family="Helvetica,sans-Serif" font-size="10.00">OptunaRandomOptimizer</text>
<text text-anchor="middle" x="1883" y="-49" font-family="Helvetica,sans-Serif" font-size="10.00">(0 methods)</text>
</g>
<!-- traigent_optimizers_optuna_optimizer_OptunaRandomOptimizer&#45;&gt;traigent_optimizers_optuna_optimizer_OptunaBaseOptimizer -->
<g id="edge10" class="edge">
<title>traigent_optimizers_optuna_optimizer_OptunaRandomOptimizer&#45;&gt;traigent_optimizers_optuna_optimizer_OptunaBaseOptimizer</title>
<path fill="none" stroke="black" d="M1930.86,-75.08C1966.33,-87.73 2014.82,-105.04 2052.4,-118.45"/>
<polygon fill="none" stroke="black" points="2051.61,-121.88 2062.2,-121.94 2053.96,-115.29 2051.61,-121.88"/>
</g>
<!-- traigent_optimizers_optuna_optimizer_OptunaTrialPayload -->
<g id="node26" class="node">
<title>traigent_optimizers_optuna_optimizer_OptunaTrialPayload</title>
<polygon fill="#c8e6c9" stroke="black" points="1795,-75 1685,-75 1685,-39 1795,-39 1795,-75"/>
<text text-anchor="middle" x="1740" y="-60" font-family="Helvetica,sans-Serif" font-size="10.00">OptunaTrialPayload</text>
<text text-anchor="middle" x="1740" y="-49" font-family="Helvetica,sans-Serif" font-size="10.00">(0 methods)</text>
</g>
<!-- traigent_optimizers_pruners_CeilingPruner -->
<g id="node27" class="node">
<title>traigent_optimizers_pruners_CeilingPruner</title>
<polygon fill="#c8e6c9" stroke="black" points="4334,-75 4252,-75 4252,-39 4334,-39 4334,-75"/>
<text text-anchor="middle" x="4293" y="-60" font-family="Helvetica,sans-Serif" font-size="10.00">CeilingPruner</text>
<text text-anchor="middle" x="4293" y="-49" font-family="Helvetica,sans-Serif" font-size="10.00">(2 methods)</text>
</g>
<!-- optuna_pruners_BasePruner -->
<g id="node47" class="node">
<title>optuna_pruners_BasePruner</title>
<polygon fill="#eeeeee" stroke="black" stroke-dasharray="5,2" points="4367.5,-158 4218.5,-158 4218.5,-122 4367.5,-122 4367.5,-158"/>
<text text-anchor="middle" x="4293" y="-137.5" font-family="Helvetica,sans-Serif" font-size="10.00">optuna.pruners.BasePruner</text>
</g>
<!-- traigent_optimizers_pruners_CeilingPruner&#45;&gt;optuna_pruners_BasePruner -->
<g id="edge14" class="edge">
<title>traigent_optimizers_pruners_CeilingPruner&#45;&gt;optuna_pruners_BasePruner</title>
<path fill="none" stroke="black" d="M4293,-75.18C4293,-85.81 4293,-99.69 4293,-111.8"/>
<polygon fill="none" stroke="black" points="4289.5,-111.85 4293,-121.85 4296.5,-111.85 4289.5,-111.85"/>
</g>
<!-- traigent_optimizers_pruners_CeilingPrunerConfig -->
<g id="node28" class="node">
<title>traigent_optimizers_pruners_CeilingPrunerConfig</title>
<polygon fill="#c8e6c9" stroke="black" points="4233.5,-75 4120.5,-75 4120.5,-39 4233.5,-39 4233.5,-75"/>
<text text-anchor="middle" x="4177" y="-60" font-family="Helvetica,sans-Serif" font-size="10.00">CeilingPrunerConfig</text>
<text text-anchor="middle" x="4177" y="-49" font-family="Helvetica,sans-Serif" font-size="10.00">(0 methods)</text>
</g>
<!-- traigent_optimizers_random_RandomSearchOptimizer -->
<g id="node29" class="node">
<title>traigent_optimizers_random_RandomSearchOptimizer</title>
<polygon fill="#c8e6c9" stroke="black" points="2693,-158 2555,-158 2555,-122 2693,-122 2693,-158"/>
<text text-anchor="middle" x="2624" y="-143" font-family="Helvetica,sans-Serif" font-size="10.00">RandomSearchOptimizer</text>
<text text-anchor="middle" x="2624" y="-132" font-family="Helvetica,sans-Serif" font-size="10.00">(8 methods)</text>
</g>
<!-- traigent_optimizers_random_RandomSearchOptimizer&#45;&gt;traigent_optimizers_base_BaseOptimizer -->
<g id="edge15" class="edge">
<title>traigent_optimizers_random_RandomSearchOptimizer&#45;&gt;traigent_optimizers_base_BaseOptimizer</title>
<path fill="none" stroke="black" d="M2576.1,-158.02C2565.34,-161.21 2553.88,-164.13 2543,-166 2281.05,-210.95 1438.8,-220.03 1215.67,-221.67"/>
<polygon fill="none" stroke="black" points="1215.49,-218.17 1205.52,-221.74 1215.54,-225.17 1215.49,-218.17"/>
</g>
<!-- traigent_optimizers_remote_MockRemoteSuggestionClient -->
<g id="node30" class="node">
<title>traigent_optimizers_remote_MockRemoteSuggestionClient</title>
<polygon fill="#c8e6c9" stroke="black" points="3063,-158 2899,-158 2899,-122 3063,-122 3063,-158"/>
<text text-anchor="middle" x="2981" y="-143" font-family="Helvetica,sans-Serif" font-size="10.00">MockRemoteSuggestionClient</text>
<text text-anchor="middle" x="2981" y="-132" font-family="Helvetica,sans-Serif" font-size="10.00">(3 methods)</text>
</g>
<!-- traigent_optimizers_remote_RemoteOptimizer -->
<g id="node31" class="node">
<title>traigent_optimizers_remote_RemoteOptimizer</title>
<polygon fill="#c8e6c9" stroke="black" points="2880.5,-158 2777.5,-158 2777.5,-122 2880.5,-122 2880.5,-158"/>
<text text-anchor="middle" x="2829" y="-143" font-family="Helvetica,sans-Serif" font-size="10.00">RemoteOptimizer</text>
<text text-anchor="middle" x="2829" y="-132" font-family="Helvetica,sans-Serif" font-size="10.00">(6 methods)</text>
</g>
<!-- traigent_optimizers_remote_RemoteOptimizer&#45;&gt;traigent_optimizers_base_BaseOptimizer -->
<g id="edge16" class="edge">
<title>traigent_optimizers_remote_RemoteOptimizer&#45;&gt;traigent_optimizers_base_BaseOptimizer</title>
<path fill="none" stroke="black" d="M2791.4,-158.11C2782.88,-161.3 2773.76,-164.19 2765,-166 2610.83,-197.84 1478.96,-217.1 1215.63,-221.18"/>
<polygon fill="none" stroke="black" points="1215.49,-217.69 1205.55,-221.34 1215.6,-224.68 1215.49,-217.69"/>
</g>
<!-- traigent_optimizers_remote_services_ServiceStatus -->
<g id="node32" class="node">
<title>traigent_optimizers_remote_services_ServiceStatus</title>
<polygon fill="#c8e6c9" stroke="black" points="5493.5,-75 5410.5,-75 5410.5,-39 5493.5,-39 5493.5,-75"/>
<text text-anchor="middle" x="5452" y="-60" font-family="Helvetica,sans-Serif" font-size="10.00">ServiceStatus</text>
<text text-anchor="middle" x="5452" y="-49" font-family="Helvetica,sans-Serif" font-size="10.00">(0 methods)</text>
</g>
<!-- str -->
<g id="node48" class="node">
<title>str</title>
<polygon fill="#eeeeee" stroke="black" stroke-dasharray="5,2" points="5564,-158 5510,-158 5510,-122 5564,-122 5564,-158"/>
<text text-anchor="middle" x="5537" y="-137.5" font-family="Helvetica,sans-Serif" font-size="10.00">str</text>
</g>
<!-- traigent_optimizers_remote_services_ServiceStatus&#45;&gt;str -->
<g id="edge17" class="edge">
<title>traigent_optimizers_remote_services_ServiceStatus&#45;&gt;str</title>
<path fill="none" stroke="black" d="M5485.4,-75.18C5492.65,-79.75 5499.94,-85.09 5506,-91 5512.53,-97.37 5518.37,-105.36 5523.18,-112.99"/>
<polygon fill="none" stroke="black" points="5520.2,-114.84 5528.32,-121.65 5526.22,-111.26 5520.2,-114.84"/>
</g>
<!-- traigent_optimizers_remote_services_DatasetSubset -->
<g id="node33" class="node">
<title>traigent_optimizers_remote_services_DatasetSubset</title>
<polygon fill="#c8e6c9" stroke="black" points="5392,-75 5304,-75 5304,-39 5392,-39 5392,-75"/>
<text text-anchor="middle" x="5348" y="-60" font-family="Helvetica,sans-Serif" font-size="10.00">DatasetSubset</text>
<text text-anchor="middle" x="5348" y="-49" font-family="Helvetica,sans-Serif" font-size="10.00">(2 methods)</text>
</g>
<!-- traigent_optimizers_remote_services_OptimizationStrategy -->
<g id="node34" class="node">
<title>traigent_optimizers_remote_services_OptimizationStrategy</title>
<polygon fill="#c8e6c9" stroke="black" points="5285.5,-75 5164.5,-75 5164.5,-39 5285.5,-39 5285.5,-75"/>
<text text-anchor="middle" x="5225" y="-60" font-family="Helvetica,sans-Serif" font-size="10.00">OptimizationStrategy</text>
<text text-anchor="middle" x="5225" y="-49" font-family="Helvetica,sans-Serif" font-size="10.00">(0 methods)</text>
</g>
<!-- traigent_optimizers_remote_services_OptimizationSessionStatus -->
<g id="node35" class="node">
<title>traigent_optimizers_remote_services_OptimizationSessionStatus</title>
<polygon fill="#c8e6c9" stroke="black" points="5146,-75 4998,-75 4998,-39 5146,-39 5146,-75"/>
<text text-anchor="middle" x="5072" y="-60" font-family="Helvetica,sans-Serif" font-size="10.00">OptimizationSessionStatus</text>
<text text-anchor="middle" x="5072" y="-49" font-family="Helvetica,sans-Serif" font-size="10.00">(0 methods)</text>
</g>
<!-- traigent_optimizers_remote_services_OptimizationSessionStatus&#45;&gt;str -->
<g id="edge18" class="edge">
<title>traigent_optimizers_remote_services_OptimizationSessionStatus&#45;&gt;str</title>
<path fill="none" stroke="black" d="M5121.24,-75.03C5132.53,-78.27 5144.58,-81.2 5156,-83 5175.21,-86.02 5489.03,-81.5 5506,-91 5514.65,-95.84 5521.26,-104.21 5526.12,-112.61"/>
<polygon fill="none" stroke="black" points="5523.04,-114.28 5530.71,-121.59 5529.27,-111.09 5523.04,-114.28"/>
</g>
<!-- traigent_optimizers_remote_services_ServiceMetrics -->
<g id="node36" class="node">
<title>traigent_optimizers_remote_services_ServiceMetrics</title>
<polygon fill="#c8e6c9" stroke="black" points="4979.5,-75 4890.5,-75 4890.5,-39 4979.5,-39 4979.5,-75"/>
<text text-anchor="middle" x="4935" y="-60" font-family="Helvetica,sans-Serif" font-size="10.00">ServiceMetrics</text>
<text text-anchor="middle" x="4935" y="-49" font-family="Helvetica,sans-Serif" font-size="10.00">(0 methods)</text>
</g>
<!-- traigent_optimizers_remote_services_ServiceInfo -->
<g id="node37" class="node">
<title>traigent_optimizers_remote_services_ServiceInfo</title>
<polygon fill="#c8e6c9" stroke="black" points="4872,-75 4796,-75 4796,-39 4872,-39 4872,-75"/>
<text text-anchor="middle" x="4834" y="-60" font-family="Helvetica,sans-Serif" font-size="10.00">ServiceInfo</text>
<text text-anchor="middle" x="4834" y="-49" font-family="Helvetica,sans-Serif" font-size="10.00">(0 methods)</text>
</g>
<!-- traigent_optimizers_remote_services_RemoteOptimizationService -->
<g id="node38" class="node">
<title>traigent_optimizers_remote_services_RemoteOptimizationService</title>
<polygon fill="#bbdefb" stroke="black" points="4540,-158 4386,-158 4386,-122 4540,-122 4540,-158"/>
<text text-anchor="middle" x="4463" y="-143" font-family="Helvetica,sans-Serif" font-size="10.00">RemoteOptimizationService</text>
<text text-anchor="middle" x="4463" y="-132" font-family="Helvetica,sans-Serif" font-size="10.00">(23 methods)</text>
</g>
<!-- traigent_optimizers_remote_services_OptimizationSession -->
<g id="node39" class="node">
<title>traigent_optimizers_remote_services_OptimizationSession</title>
<polygon fill="#c8e6c9" stroke="black" points="4777.5,-75 4660.5,-75 4660.5,-39 4777.5,-39 4777.5,-75"/>
<text text-anchor="middle" x="4719" y="-60" font-family="Helvetica,sans-Serif" font-size="10.00">OptimizationSession</text>
<text text-anchor="middle" x="4719" y="-49" font-family="Helvetica,sans-Serif" font-size="10.00">(0 methods)</text>
</g>
<!-- traigent_optimizers_remote_services_SmartTrialSuggestion -->
<g id="node40" class="node">
<title>traigent_optimizers_remote_services_SmartTrialSuggestion</title>
<polygon fill="#c8e6c9" stroke="black" points="4642,-75 4522,-75 4522,-39 4642,-39 4642,-75"/>
<text text-anchor="middle" x="4582" y="-60" font-family="Helvetica,sans-Serif" font-size="10.00">SmartTrialSuggestion</text>
<text text-anchor="middle" x="4582" y="-49" font-family="Helvetica,sans-Serif" font-size="10.00">(0 methods)</text>
</g>
<!-- traigent_optimizers_remote_services_MockRemoteService -->
<g id="node41" class="node">
<title>traigent_optimizers_remote_services_MockRemoteService</title>
<polygon fill="#c8e6c9" stroke="black" points="4503.5,-75 4386.5,-75 4386.5,-39 4503.5,-39 4503.5,-75"/>
<text text-anchor="middle" x="4445" y="-60" font-family="Helvetica,sans-Serif" font-size="10.00">MockRemoteService</text>
<text text-anchor="middle" x="4445" y="-49" font-family="Helvetica,sans-Serif" font-size="10.00">(14 methods)</text>
</g>
<!-- traigent_optimizers_remote_services_MockRemoteService&#45;&gt;traigent_optimizers_remote_services_RemoteOptimizationService -->
<g id="edge19" class="edge">
<title>traigent_optimizers_remote_services_MockRemoteService&#45;&gt;traigent_optimizers_remote_services_RemoteOptimizationService</title>
<path fill="none" stroke="black" d="M4448.82,-75.18C4451.18,-85.81 4454.27,-99.69 4456.95,-111.8"/>
<polygon fill="none" stroke="black" points="4453.6,-112.84 4459.19,-121.85 4460.44,-111.33 4453.6,-112.84"/>
</g>
<!-- traigent_optimizers_results_OptimizationResult -->
<g id="node42" class="node">
<title>traigent_optimizers_results_OptimizationResult</title>
<polygon fill="#c8e6c9" stroke="black" points="5722,-75 5612,-75 5612,-39 5722,-39 5722,-75"/>
<text text-anchor="middle" x="5667" y="-60" font-family="Helvetica,sans-Serif" font-size="10.00">OptimizationResult</text>
<text text-anchor="middle" x="5667" y="-49" font-family="Helvetica,sans-Serif" font-size="10.00">(3 methods)</text>
</g>
<!-- traigent_optimizers_results_Trial -->
<g id="node43" class="node">
<title>traigent_optimizers_results_Trial</title>
<polygon fill="#c8e6c9" stroke="black" points="5594,-75 5518,-75 5518,-39 5594,-39 5594,-75"/>
<text text-anchor="middle" x="5556" y="-60" font-family="Helvetica,sans-Serif" font-size="10.00">Trial</text>
<text text-anchor="middle" x="5556" y="-49" font-family="Helvetica,sans-Serif" font-size="10.00">(1 methods)</text>
</g>
<!-- traigent_optimizers_service_registry_ServiceRequirements -->
<g id="node44" class="node">
<title>traigent_optimizers_service_registry_ServiceRequirements</title>
<polygon fill="#c8e6c9" stroke="black" points="6127.5,-75 6006.5,-75 6006.5,-39 6127.5,-39 6127.5,-75"/>
<text text-anchor="middle" x="6067" y="-60" font-family="Helvetica,sans-Serif" font-size="10.00">ServiceRequirements</text>
<text text-anchor="middle" x="6067" y="-49" font-family="Helvetica,sans-Serif" font-size="10.00">(0 methods)</text>
</g>
<!-- traigent_optimizers_service_registry_ServiceRanking -->
<g id="node45" class="node">
<title>traigent_optimizers_service_registry_ServiceRanking</title>
<polygon fill="#c8e6c9" stroke="black" points="5988,-75 5896,-75 5896,-39 5988,-39 5988,-75"/>
<text text-anchor="middle" x="5942" y="-60" font-family="Helvetica,sans-Serif" font-size="10.00">ServiceRanking</text>
<text text-anchor="middle" x="5942" y="-49" font-family="Helvetica,sans-Serif" font-size="10.00">(0 methods)</text>
</g>
<!-- traigent_optimizers_service_registry_RemoteServiceRegistry -->
<g id="node46" class="node">
<title>traigent_optimizers_service_registry_RemoteServiceRegistry</title>
<polygon fill="#c8e6c9" stroke="black" points="5877.5,-75 5746.5,-75 5746.5,-39 5877.5,-39 5877.5,-75"/>
<text text-anchor="middle" x="5812" y="-60" font-family="Helvetica,sans-Serif" font-size="10.00">RemoteServiceRegistry</text>
<text text-anchor="middle" x="5812" y="-49" font-family="Helvetica,sans-Serif" font-size="10.00">(40 methods)</text>
</g>
</g>
</svg>
