<?xml version="1.0" encoding="UTF-8" standalone="no"?>
<!DOCTYPE svg PUBLIC "-//W3C//DTD SVG 1.1//EN"
 "http://www.w3.org/Graphics/SVG/1.1/DTD/svg11.dtd">
<!-- Generated by graphviz version 2.43.0 (0)
 -->
<!-- Title: ComplexityTop20 Pages: 1 -->
<svg width="300pt" height="1532pt"
 viewBox="0.00 0.00 300.00 1532.00" xmlns="http://www.w3.org/2000/svg" xmlns:xlink="http://www.w3.org/1999/xlink">
<g id="graph0" class="graph" transform="scale(1 1) rotate(0) translate(4 1528)">
<title>ComplexityTop20</title>
<polygon fill="white" stroke="transparent" points="-4,4 -4,-1528 296,-1528 296,4 -4,4"/>
<text text-anchor="middle" x="146" y="-1507.2" font-family="Times,serif" font-size="16.00">Top 20 High&#45;Complexity Modules</text>
<text text-anchor="middle" x="146" y="-1489.2" font-family="Times,serif" font-size="16.00">(Max Cyclomatic Complexity)</text>
<g id="clust1" class="cluster">
<title>cluster_legend</title>
<polygon fill="none" stroke="black" stroke-dasharray="5,2" points="66.5,-1232 66.5,-1472 225.5,-1472 225.5,-1232 66.5,-1232"/>
<text text-anchor="middle" x="146" y="-1455.2" font-family="Times,serif" font-size="16.00">Complexity Scale</text>
</g>
<!-- mod0 -->
<g id="node1" class="node">
<title>mod0</title>
<polygon fill="#ffcc80" stroke="black" points="228,-44 64,-44 64,0 228,0 228,-44"/>
<text text-anchor="middle" x="146" y="-31.2" font-family="Helvetica,sans-Serif" font-size="11.00">evaluators/metrics_tracker</text>
<text text-anchor="middle" x="146" y="-19.2" font-family="Helvetica,sans-Serif" font-size="11.00">Max CC: 29</text>
<text text-anchor="middle" x="146" y="-7.2" font-family="Helvetica,sans-Serif" font-size="11.00">Avg CC: 5.8</text>
</g>
<!-- mod1 -->
<g id="node2" class="node">
<title>mod1</title>
<polygon fill="#ffcc80" stroke="black" points="207,-106 85,-106 85,-62 207,-62 207,-106"/>
<text text-anchor="middle" x="146" y="-93.2" font-family="Helvetica,sans-Serif" font-size="11.00">integrations/wandb</text>
<text text-anchor="middle" x="146" y="-81.2" font-family="Helvetica,sans-Serif" font-size="11.00">Max CC: 29</text>
<text text-anchor="middle" x="146" y="-69.2" font-family="Helvetica,sans-Serif" font-size="11.00">Avg CC: 4.5</text>
</g>
<!-- mod2 -->
<g id="node3" class="node">
<title>mod2</title>
<polygon fill="#ffcc80" stroke="black" points="218.5,-168 73.5,-168 73.5,-124 218.5,-124 218.5,-168"/>
<text text-anchor="middle" x="146" y="-155.2" font-family="Helvetica,sans-Serif" font-size="11.00">optimizers/optuna_utils</text>
<text text-anchor="middle" x="146" y="-143.2" font-family="Helvetica,sans-Serif" font-size="11.00">Max CC: 29</text>
<text text-anchor="middle" x="146" y="-131.2" font-family="Helvetica,sans-Serif" font-size="11.00">Avg CC: 11.6</text>
</g>
<!-- mod3 -->
<g id="node4" class="node">
<title>mod3</title>
<polygon fill="#ffcc80" stroke="black" points="187,-230 105,-230 105,-186 187,-186 187,-230"/>
<text text-anchor="middle" x="146" y="-217.2" font-family="Helvetica,sans-Serif" font-size="11.00">cloud/billing</text>
<text text-anchor="middle" x="146" y="-205.2" font-family="Helvetica,sans-Serif" font-size="11.00">Max CC: 28</text>
<text text-anchor="middle" x="146" y="-193.2" font-family="Helvetica,sans-Serif" font-size="11.00">Avg CC: 3.1</text>
</g>
<!-- mod4 -->
<g id="node5" class="node">
<title>mod4</title>
<polygon fill="#ffcc80" stroke="black" points="220,-292 72,-292 72,-248 220,-248 220,-292"/>
<text text-anchor="middle" x="146" y="-279.2" font-family="Helvetica,sans-Serif" font-size="11.00">core/optimized_function</text>
<text text-anchor="middle" x="146" y="-267.2" font-family="Helvetica,sans-Serif" font-size="11.00">Max CC: 28</text>
<text text-anchor="middle" x="146" y="-255.2" font-family="Helvetica,sans-Serif" font-size="11.00">Avg CC: 5.3</text>
</g>
<!-- mod5 -->
<g id="node6" class="node">
<title>mod5</title>
<polygon fill="#ffcc80" stroke="black" points="198,-354 94,-354 94,-310 198,-310 198,-354"/>
<text text-anchor="middle" x="146" y="-341.2" font-family="Helvetica,sans-Serif" font-size="11.00">evaluators/local</text>
<text text-anchor="middle" x="146" y="-329.2" font-family="Helvetica,sans-Serif" font-size="11.00">Max CC: 28</text>
<text text-anchor="middle" x="146" y="-317.2" font-family="Helvetica,sans-Serif" font-size="11.00">Avg CC: 7.3</text>
</g>
<!-- mod6 -->
<g id="node7" class="node">
<title>mod6</title>
<polygon fill="#ffcc80" stroke="black" points="206,-416 86,-416 86,-372 206,-372 206,-416"/>
<text text-anchor="middle" x="146" y="-403.2" font-family="Helvetica,sans-Serif" font-size="11.00">evaluators/metrics</text>
<text text-anchor="middle" x="146" y="-391.2" font-family="Helvetica,sans-Serif" font-size="11.00">Max CC: 28</text>
<text text-anchor="middle" x="146" y="-379.2" font-family="Helvetica,sans-Serif" font-size="11.00">Avg CC: 8.0</text>
</g>
<!-- mod7 -->
<g id="node8" class="node">
<title>mod7</title>
<polygon fill="#ffcc80" stroke="black" points="271.5,-478 20.5,-478 20.5,-434 271.5,-434 271.5,-478"/>
<text text-anchor="middle" x="146" y="-465.2" font-family="Helvetica,sans-Serif" font-size="11.00">optigen_integration.py/optigen_integration</text>
<text text-anchor="middle" x="146" y="-453.2" font-family="Helvetica,sans-Serif" font-size="11.00">Max CC: 27</text>
<text text-anchor="middle" x="146" y="-441.2" font-family="Helvetica,sans-Serif" font-size="11.00">Avg CC: 8.1</text>
</g>
<!-- mod8 -->
<g id="node9" class="node">
<title>mod8</title>
<polygon fill="#ffcc80" stroke="black" points="241.5,-540 50.5,-540 50.5,-496 241.5,-496 241.5,-540"/>
<text text-anchor="middle" x="146" y="-527.2" font-family="Helvetica,sans-Serif" font-size="11.00">core/backend_session_manager</text>
<text text-anchor="middle" x="146" y="-515.2" font-family="Helvetica,sans-Serif" font-size="11.00">Max CC: 27</text>
<text text-anchor="middle" x="146" y="-503.2" font-family="Helvetica,sans-Serif" font-size="11.00">Avg CC: 9.8</text>
</g>
<!-- mod9 -->
<g id="node10" class="node">
<title>mod9</title>
<polygon fill="#ffcc80" stroke="black" points="228,-602 64,-602 64,-558 228,-558 228,-602"/>
<text text-anchor="middle" x="146" y="-589.2" font-family="Helvetica,sans-Serif" font-size="11.00">utils/optimization_analyzer</text>
<text text-anchor="middle" x="146" y="-577.2" font-family="Helvetica,sans-Serif" font-size="11.00">Max CC: 27</text>
<text text-anchor="middle" x="146" y="-565.2" font-family="Helvetica,sans-Serif" font-size="11.00">Avg CC: 7.6</text>
</g>
<!-- mod10 -->
<g id="node11" class="node">
<title>mod10</title>
<polygon fill="#ffcc80" stroke="black" points="194,-664 98,-664 98,-620 194,-620 194,-664"/>
<text text-anchor="middle" x="146" y="-651.2" font-family="Helvetica,sans-Serif" font-size="11.00">api/decorators</text>
<text text-anchor="middle" x="146" y="-639.2" font-family="Helvetica,sans-Serif" font-size="11.00">Max CC: 26</text>
<text text-anchor="middle" x="146" y="-627.2" font-family="Helvetica,sans-Serif" font-size="11.00">Avg CC: 5.5</text>
</g>
<!-- mod11 -->
<g id="node12" class="node">
<title>mod11</title>
<polygon fill="#ffcc80" stroke="black" points="234,-726 58,-726 58,-682 234,-682 234,-726"/>
<text text-anchor="middle" x="146" y="-713.2" font-family="Helvetica,sans-Serif" font-size="11.00">integrations/anthropic_plugin</text>
<text text-anchor="middle" x="146" y="-701.2" font-family="Helvetica,sans-Serif" font-size="11.00">Max CC: 26</text>
<text text-anchor="middle" x="146" y="-689.2" font-family="Helvetica,sans-Serif" font-size="11.00">Avg CC: 5.3</text>
</g>
<!-- mod12 -->
<g id="node13" class="node">
<title>mod12</title>
<polygon fill="#ffcc80" stroke="black" points="207.5,-788 84.5,-788 84.5,-744 207.5,-744 207.5,-788"/>
<text text-anchor="middle" x="146" y="-775.2" font-family="Helvetica,sans-Serif" font-size="11.00">cli/local_commands</text>
<text text-anchor="middle" x="146" y="-763.2" font-family="Helvetica,sans-Serif" font-size="11.00">Max CC: 25</text>
<text text-anchor="middle" x="146" y="-751.2" font-family="Helvetica,sans-Serif" font-size="11.00">Avg CC: 8.8</text>
</g>
<!-- mod13 -->
<g id="node14" class="node">
<title>mod13</title>
<polygon fill="#ffcc80" stroke="black" points="231.5,-850 60.5,-850 60.5,-806 231.5,-806 231.5,-850"/>
<text text-anchor="middle" x="146" y="-837.2" font-family="Helvetica,sans-Serif" font-size="11.00">cloud/backend_synchronizer</text>
<text text-anchor="middle" x="146" y="-825.2" font-family="Helvetica,sans-Serif" font-size="11.00">Max CC: 25</text>
<text text-anchor="middle" x="146" y="-813.2" font-family="Helvetica,sans-Serif" font-size="11.00">Avg CC: 5.2</text>
</g>
<!-- mod14 -->
<g id="node15" class="node">
<title>mod14</title>
<polygon fill="#ffcc80" stroke="black" points="198.5,-912 93.5,-912 93.5,-868 198.5,-868 198.5,-912"/>
<text text-anchor="middle" x="146" y="-899.2" font-family="Helvetica,sans-Serif" font-size="11.00">evaluators/base</text>
<text text-anchor="middle" x="146" y="-887.2" font-family="Helvetica,sans-Serif" font-size="11.00">Max CC: 25</text>
<text text-anchor="middle" x="146" y="-875.2" font-family="Helvetica,sans-Serif" font-size="11.00">Avg CC: 5.8</text>
</g>
<!-- mod15 -->
<g id="node16" class="node">
<title>mod15</title>
<polygon fill="#ffcc80" stroke="black" points="230.5,-974 61.5,-974 61.5,-930 230.5,-930 230.5,-974"/>
<text text-anchor="middle" x="146" y="-961.2" font-family="Helvetica,sans-Serif" font-size="11.00">evaluators/dataset_registry</text>
<text text-anchor="middle" x="146" y="-949.2" font-family="Helvetica,sans-Serif" font-size="11.00">Max CC: 25</text>
<text text-anchor="middle" x="146" y="-937.2" font-family="Helvetica,sans-Serif" font-size="11.00">Avg CC: 6.0</text>
</g>
<!-- mod16 -->
<g id="node17" class="node">
<title>mod16</title>
<polygon fill="#ffcc80" stroke="black" points="213.5,-1036 78.5,-1036 78.5,-992 213.5,-992 213.5,-1036"/>
<text text-anchor="middle" x="146" y="-1023.2" font-family="Helvetica,sans-Serif" font-size="11.00">cli/function_discovery</text>
<text text-anchor="middle" x="146" y="-1011.2" font-family="Helvetica,sans-Serif" font-size="11.00">Max CC: 24</text>
<text text-anchor="middle" x="146" y="-999.2" font-family="Helvetica,sans-Serif" font-size="11.00">Avg CC: 9.4</text>
</g>
<!-- mod17 -->
<g id="node18" class="node">
<title>mod17</title>
<polygon fill="#ffcc80" stroke="black" points="210,-1098 82,-1098 82,-1054 210,-1054 210,-1098"/>
<text text-anchor="middle" x="146" y="-1085.2" font-family="Helvetica,sans-Serif" font-size="11.00">analytics/scheduling</text>
<text text-anchor="middle" x="146" y="-1073.2" font-family="Helvetica,sans-Serif" font-size="11.00">Max CC: 23</text>
<text text-anchor="middle" x="146" y="-1061.2" font-family="Helvetica,sans-Serif" font-size="11.00">Avg CC: 5.8</text>
</g>
<!-- mod18 -->
<g id="node19" class="node">
<title>mod18</title>
<polygon fill="#ffcc80" stroke="black" points="198,-1160 94,-1160 94,-1116 198,-1116 198,-1160"/>
<text text-anchor="middle" x="146" y="-1147.2" font-family="Helvetica,sans-Serif" font-size="11.00">cloud/validators</text>
<text text-anchor="middle" x="146" y="-1135.2" font-family="Helvetica,sans-Serif" font-size="11.00">Max CC: 23</text>
<text text-anchor="middle" x="146" y="-1123.2" font-family="Helvetica,sans-Serif" font-size="11.00">Avg CC: 10.2</text>
</g>
<!-- mod19 -->
<g id="node20" class="node">
<title>mod19</title>
<polygon fill="#ffcc80" stroke="black" points="211.5,-1222 80.5,-1222 80.5,-1178 211.5,-1178 211.5,-1222"/>
<text text-anchor="middle" x="146" y="-1209.2" font-family="Helvetica,sans-Serif" font-size="11.00">core/result_selection</text>
<text text-anchor="middle" x="146" y="-1197.2" font-family="Helvetica,sans-Serif" font-size="11.00">Max CC: 23</text>
<text text-anchor="middle" x="146" y="-1185.2" font-family="Helvetica,sans-Serif" font-size="11.00">Avg CC: 8.7</text>
</g>
<!-- leg1 -->
<g id="node21" class="node">
<title>leg1</title>
<polygon fill="#d32f2f" stroke="black" points="191,-1438 101,-1438 101,-1402 191,-1402 191,-1438"/>
<text text-anchor="middle" x="146" y="-1417.2" font-family="Helvetica,sans-Serif" font-size="11.00">Critical (50+)</text>
</g>
<!-- leg2 -->
<g id="node22" class="node">
<title>leg2</title>
<polygon fill="#ef5350" stroke="black" points="202.5,-1384 89.5,-1384 89.5,-1348 202.5,-1348 202.5,-1384"/>
<text text-anchor="middle" x="146" y="-1363.2" font-family="Helvetica,sans-Serif" font-size="11.00">Very High (30&#45;50)</text>
</g>
<!-- leg3 -->
<g id="node23" class="node">
<title>leg3</title>
<polygon fill="#ffcc80" stroke="black" points="188.5,-1330 103.5,-1330 103.5,-1294 188.5,-1294 188.5,-1330"/>
<text text-anchor="middle" x="146" y="-1309.2" font-family="Helvetica,sans-Serif" font-size="11.00">High (20&#45;30)</text>
</g>
<!-- leg4 -->
<g id="node24" class="node">
<title>leg4</title>
<polygon fill="#fff9c4" stroke="black" points="202.5,-1276 89.5,-1276 89.5,-1240 202.5,-1240 202.5,-1276"/>
<text text-anchor="middle" x="146" y="-1255.2" font-family="Helvetica,sans-Serif" font-size="11.00">Moderate (15&#45;20)</text>
</g>
</g>
</svg>
