<?xml version="1.0" encoding="UTF-8" standalone="no"?>
<!DOCTYPE svg PUBLIC "-//W3C//DTD SVG 1.1//EN"
 "http://www.w3.org/Graphics/SVG/1.1/DTD/svg11.dtd">
<!-- Generated by graphviz version 2.43.0 (0)
 -->
<!-- Title: HubModules Pages: 1 -->
<svg width="307pt" height="1102pt"
 viewBox="0.00 0.00 307.00 1102.00" xmlns="http://www.w3.org/2000/svg" xmlns:xlink="http://www.w3.org/1999/xlink">
<g id="graph0" class="graph" transform="scale(1 1) rotate(0) translate(4 1098)">
<title>HubModules</title>
<polygon fill="white" stroke="transparent" points="-4,4 -4,-1098 303,-1098 303,4 -4,4"/>
<text text-anchor="middle" x="149.5" y="-1077.2" font-family="Times,serif" font-size="16.00">Hub Modules (High Fan&#45;In)</text>
<text text-anchor="middle" x="149.5" y="-1059.2" font-family="Times,serif" font-size="16.00">Modules imported by many others</text>
<g id="clust1" class="cluster">
<title>cluster_legend</title>
<polygon fill="none" stroke="black" stroke-dasharray="5,2" points="86.5,-802 86.5,-1042 213.5,-1042 213.5,-802 86.5,-802"/>
<text text-anchor="middle" x="150" y="-1025.2" font-family="Times,serif" font-size="16.00">Stability Risk</text>
</g>
<!-- hub0 -->
<g id="node1" class="node">
<title>hub0</title>
<polygon fill="#d32f2f" stroke="black" points="202,-36 97,-36 97,0 202,0 202,-36"/>
<text text-anchor="middle" x="149.5" y="-21.2" font-family="Helvetica,sans-Serif" font-size="11.00">utils.logging</text>
<text text-anchor="middle" x="149.5" y="-9.2" font-family="Helvetica,sans-Serif" font-size="11.00">103 dependents</text>
</g>
<!-- hub1 -->
<g id="node2" class="node">
<title>hub1</title>
<polygon fill="#d32f2f" stroke="black" points="201,-90 98,-90 98,-54 201,-54 201,-90"/>
<text text-anchor="middle" x="149.5" y="-75.2" font-family="Helvetica,sans-Serif" font-size="11.00">utils.exceptions</text>
<text text-anchor="middle" x="149.5" y="-63.2" font-family="Helvetica,sans-Serif" font-size="11.00">52 dependents</text>
</g>
<!-- hub2 -->
<g id="node3" class="node">
<title>hub2</title>
<polygon fill="#ef5350" stroke="black" points="198.5,-144 100.5,-144 100.5,-108 198.5,-108 198.5,-144"/>
<text text-anchor="middle" x="149.5" y="-129.2" font-family="Helvetica,sans-Serif" font-size="11.00">api.types</text>
<text text-anchor="middle" x="149.5" y="-117.2" font-family="Helvetica,sans-Serif" font-size="11.00">35 dependents</text>
</g>
<!-- hub3 -->
<g id="node4" class="node">
<title>hub3</title>
<polygon fill="#ef5350" stroke="black" points="198.5,-198 100.5,-198 100.5,-162 198.5,-162 198.5,-198"/>
<text text-anchor="middle" x="149.5" y="-183.2" font-family="Helvetica,sans-Serif" font-size="11.00">config.types</text>
<text text-anchor="middle" x="149.5" y="-171.2" font-family="Helvetica,sans-Serif" font-size="11.00">26 dependents</text>
</g>
<!-- hub4 -->
<g id="node5" class="node">
<title>hub4</title>
<polygon fill="#ef5350" stroke="black" points="202,-252 97,-252 97,-216 202,-216 202,-252"/>
<text text-anchor="middle" x="149.5" y="-237.2" font-family="Helvetica,sans-Serif" font-size="11.00">evaluators.base</text>
<text text-anchor="middle" x="149.5" y="-225.2" font-family="Helvetica,sans-Serif" font-size="11.00">25 dependents</text>
</g>
<!-- hub5 -->
<g id="node6" class="node">
<title>hub5</title>
<polygon fill="#ef5350" stroke="black" points="198.5,-306 100.5,-306 100.5,-270 198.5,-270 198.5,-306"/>
<text text-anchor="middle" x="149.5" y="-291.2" font-family="Helvetica,sans-Serif" font-size="11.00">utils.validation</text>
<text text-anchor="middle" x="149.5" y="-279.2" font-family="Helvetica,sans-Serif" font-size="11.00">20 dependents</text>
</g>
<!-- hub6 -->
<g id="node7" class="node">
<title>hub6</title>
<polygon fill="#ffcc80" stroke="black" points="201.5,-360 97.5,-360 97.5,-324 201.5,-324 201.5,-360"/>
<text text-anchor="middle" x="149.5" y="-345.2" font-family="Helvetica,sans-Serif" font-size="11.00">optimizers.base</text>
<text text-anchor="middle" x="149.5" y="-333.2" font-family="Helvetica,sans-Serif" font-size="11.00">15 dependents</text>
</g>
<!-- hub7 -->
<g id="node8" class="node">
<title>hub7</title>
<polygon fill="#ffcc80" stroke="black" points="200,-414 99,-414 99,-378 200,-378 200,-414"/>
<text text-anchor="middle" x="149.5" y="-399.2" font-family="Helvetica,sans-Serif" font-size="11.00">core.objectives</text>
<text text-anchor="middle" x="149.5" y="-387.2" font-family="Helvetica,sans-Serif" font-size="11.00">13 dependents</text>
</g>
<!-- hub8 -->
<g id="node9" class="node">
<title>hub8</title>
<polygon fill="#ffcc80" stroke="black" points="198.5,-468 100.5,-468 100.5,-432 198.5,-432 198.5,-468"/>
<text text-anchor="middle" x="149.5" y="-453.2" font-family="Helvetica,sans-Serif" font-size="11.00">cloud.models</text>
<text text-anchor="middle" x="149.5" y="-441.2" font-family="Helvetica,sans-Serif" font-size="11.00">11 dependents</text>
</g>
<!-- hub9 -->
<g id="node10" class="node">
<title>hub9</title>
<polygon fill="#fff9c4" stroke="black" points="215,-522 84,-522 84,-486 215,-486 215,-522"/>
<text text-anchor="middle" x="149.5" y="-507.2" font-family="Helvetica,sans-Serif" font-size="11.00">cloud.backend_client</text>
<text text-anchor="middle" x="149.5" y="-495.2" font-family="Helvetica,sans-Serif" font-size="11.00">8 dependents</text>
</g>
<!-- hub10 -->
<g id="node11" class="node">
<title>hub10</title>
<polygon fill="#fff9c4" stroke="black" points="218,-576 81,-576 81,-540 218,-540 218,-576"/>
<text text-anchor="middle" x="149.5" y="-561.2" font-family="Helvetica,sans-Serif" font-size="11.00">config.backend_config</text>
<text text-anchor="middle" x="149.5" y="-549.2" font-family="Helvetica,sans-Serif" font-size="11.00">8 dependents</text>
</g>
<!-- hub11 -->
<g id="node12" class="node">
<title>hub11</title>
<polygon fill="#fff9c4" stroke="black" points="196,-630 103,-630 103,-594 196,-594 196,-630"/>
<text text-anchor="middle" x="149.5" y="-615.2" font-family="Helvetica,sans-Serif" font-size="11.00">invokers.base</text>
<text text-anchor="middle" x="149.5" y="-603.2" font-family="Helvetica,sans-Serif" font-size="11.00">7 dependents</text>
</g>
<!-- hub12 -->
<g id="node13" class="node">
<title>hub12</title>
<polygon fill="#fff9c4" stroke="black" points="195.5,-684 103.5,-684 103.5,-648 195.5,-648 195.5,-684"/>
<text text-anchor="middle" x="149.5" y="-669.2" font-family="Helvetica,sans-Serif" font-size="11.00">utils.retry</text>
<text text-anchor="middle" x="149.5" y="-657.2" font-family="Helvetica,sans-Serif" font-size="11.00">6 dependents</text>
</g>
<!-- hub13 -->
<g id="node14" class="node">
<title>hub13</title>
<polygon fill="#fff9c4" stroke="black" points="195.5,-738 103.5,-738 103.5,-702 195.5,-702 195.5,-738"/>
<text text-anchor="middle" x="149.5" y="-723.2" font-family="Helvetica,sans-Serif" font-size="11.00">core.utils</text>
<text text-anchor="middle" x="149.5" y="-711.2" font-family="Helvetica,sans-Serif" font-size="11.00">6 dependents</text>
</g>
<!-- hub14 -->
<g id="node15" class="node">
<title>hub14</title>
<polygon fill="#fff9c4" stroke="black" points="195.5,-792 103.5,-792 103.5,-756 195.5,-756 195.5,-792"/>
<text text-anchor="middle" x="149.5" y="-777.2" font-family="Helvetica,sans-Serif" font-size="11.00">api.functions</text>
<text text-anchor="middle" x="149.5" y="-765.2" font-family="Helvetica,sans-Serif" font-size="11.00">5 dependents</text>
</g>
<!-- leg1 -->
<g id="node16" class="node">
<title>leg1</title>
<polygon fill="#d32f2f" stroke="black" points="194.5,-1008 104.5,-1008 104.5,-972 194.5,-972 194.5,-1008"/>
<text text-anchor="middle" x="149.5" y="-987.2" font-family="Helvetica,sans-Serif" font-size="11.00">Critical (50+)</text>
</g>
<!-- leg2 -->
<g id="node17" class="node">
<title>leg2</title>
<polygon fill="#ef5350" stroke="black" points="192,-954 107,-954 107,-918 192,-918 192,-954"/>
<text text-anchor="middle" x="149.5" y="-933.2" font-family="Helvetica,sans-Serif" font-size="11.00">High (20&#45;50)</text>
</g>
<!-- leg3 -->
<g id="node18" class="node">
<title>leg3</title>
<polygon fill="#ffcc80" stroke="black" points="201.5,-900 97.5,-900 97.5,-864 201.5,-864 201.5,-900"/>
<text text-anchor="middle" x="149.5" y="-879.2" font-family="Helvetica,sans-Serif" font-size="11.00">Medium (10&#45;20)</text>
</g>
<!-- leg4 -->
<g id="node19" class="node">
<title>leg4</title>
<polygon fill="#fff9c4" stroke="black" points="187,-846 112,-846 112,-810 187,-810 187,-846"/>
<text text-anchor="middle" x="149.5" y="-825.2" font-family="Helvetica,sans-Serif" font-size="11.00">Low (5&#45;10)</text>
</g>
</g>
</svg>
