<?xml version="1.0" encoding="UTF-8" standalone="no"?>
<!DOCTYPE svg PUBLIC "-//W3C//DTD SVG 1.1//EN"
 "http://www.w3.org/Graphics/SVG/1.1/DTD/svg11.dtd">
<!-- Generated by graphviz version 2.43.0 (0)
 -->
<!-- Title: TraigentArchitecture Pages: 1 -->
<svg width="1685pt" height="166pt"
 viewBox="0.00 0.00 1684.50 166.00" xmlns="http://www.w3.org/2000/svg" xmlns:xlink="http://www.w3.org/1999/xlink">
<g id="graph0" class="graph" transform="scale(1 1) rotate(0) translate(4 162)">
<title>TraigentArchitecture</title>
<polygon fill="white" stroke="transparent" points="-4,4 -4,-162 1680.5,-162 1680.5,4 -4,4"/>
<g id="clust1" class="cluster">
<title>cluster_legend</title>
<polygon fill="none" stroke="black" stroke-dasharray="5,2" points="186,-75 186,-150 748,-150 748,-75 186,-75"/>
<text text-anchor="middle" x="467" y="-134.8" font-family="Times,serif" font-size="14.00">Layer Legend</text>
</g>
<!-- l5 -->
<g id="node1" class="node">
<title>l5</title>
<polygon fill="#e8f5e9" stroke="black" points="740.5,-119 643.5,-119 643.5,-83 740.5,-83 740.5,-119"/>
<text text-anchor="middle" x="692" y="-97.3" font-family="Helvetica,sans-Serif" font-size="14.00">API/CLI (L5)</text>
</g>
<!-- l4 -->
<g id="node2" class="node">
<title>l4</title>
<polygon fill="#fff3e0" stroke="black" points="625,-119 545,-119 545,-83 625,-83 625,-119"/>
<text text-anchor="middle" x="585" y="-97.3" font-family="Helvetica,sans-Serif" font-size="14.00">Core (L4)</text>
</g>
<!-- l3 -->
<g id="node3" class="node">
<title>l3</title>
<polygon fill="#e3f2fd" stroke="black" points="526.5,-119 419.5,-119 419.5,-83 526.5,-83 526.5,-119"/>
<text text-anchor="middle" x="473" y="-97.3" font-family="Helvetica,sans-Serif" font-size="14.00">Services (L3)</text>
</g>
<!-- l2 -->
<g id="node4" class="node">
<title>l2</title>
<polygon fill="#fce4ec" stroke="black" points="401,-119 291,-119 291,-83 401,-83 401,-119"/>
<text text-anchor="middle" x="346" y="-97.3" font-family="Helvetica,sans-Serif" font-size="14.00">Adapters (L2)</text>
</g>
<!-- l1 -->
<g id="node5" class="node">
<title>l1</title>
<polygon fill="#f3e5f5" stroke="black" points="272.5,-119 193.5,-119 193.5,-83 272.5,-83 272.5,-119"/>
<text text-anchor="middle" x="233" y="-97.3" font-family="Helvetica,sans-Serif" font-size="14.00">Utils (L1)</text>
</g>
<!-- _version -->
<g id="node6" class="node">
<title>_version</title>
<polygon fill="#ffffff" stroke="black" points="74,-36 0,-36 0,0 74,0 74,-36"/>
<text text-anchor="middle" x="37" y="-14.3" font-family="Helvetica,sans-Serif" font-size="14.00">_version</text>
</g>
<!-- adapters -->
<g id="node7" class="node">
<title>adapters</title>
<polygon fill="#ffffff" stroke="black" points="170,-36 92,-36 92,0 170,0 170,-36"/>
<text text-anchor="middle" x="131" y="-14.3" font-family="Helvetica,sans-Serif" font-size="14.00">adapters</text>
</g>
<!-- agents -->
<g id="node8" class="node">
<title>agents</title>
<polygon fill="#ffffff" stroke="black" points="252,-36 188,-36 188,0 252,0 252,-36"/>
<text text-anchor="middle" x="220" y="-14.3" font-family="Helvetica,sans-Serif" font-size="14.00">agents</text>
</g>
<!-- api -->
<g id="node9" class="node">
<title>api</title>
<polygon fill="#e8f5e9" stroke="black" points="324,-36 270,-36 270,0 324,0 324,-36"/>
<text text-anchor="middle" x="297" y="-14.3" font-family="Helvetica,sans-Serif" font-size="14.00">api</text>
</g>
<!-- cli -->
<g id="node10" class="node">
<title>cli</title>
<polygon fill="#e8f5e9" stroke="black" points="396,-36 342,-36 342,0 396,0 396,-36"/>
<text text-anchor="middle" x="369" y="-14.3" font-family="Helvetica,sans-Serif" font-size="14.00">cli</text>
</g>
<!-- cloud -->
<g id="node11" class="node">
<title>cloud</title>
<polygon fill="#e3f2fd" stroke="black" points="468,-36 414,-36 414,0 468,0 468,-36"/>
<text text-anchor="middle" x="441" y="-14.3" font-family="Helvetica,sans-Serif" font-size="14.00">cloud</text>
</g>
<!-- config -->
<g id="node12" class="node">
<title>config</title>
<polygon fill="#fce4ec" stroke="black" points="545.5,-36 486.5,-36 486.5,0 545.5,0 545.5,-36"/>
<text text-anchor="middle" x="516" y="-14.3" font-family="Helvetica,sans-Serif" font-size="14.00">config</text>
</g>
<!-- core -->
<g id="node13" class="node">
<title>core</title>
<polygon fill="#fff3e0" stroke="black" points="618,-36 564,-36 564,0 618,0 618,-36"/>
<text text-anchor="middle" x="591" y="-14.3" font-family="Helvetica,sans-Serif" font-size="14.00">core</text>
</g>
<!-- evaluators -->
<g id="node14" class="node">
<title>evaluators</title>
<polygon fill="#e3f2fd" stroke="black" points="725.5,-36 636.5,-36 636.5,0 725.5,0 725.5,-36"/>
<text text-anchor="middle" x="681" y="-14.3" font-family="Helvetica,sans-Serif" font-size="14.00">evaluators</text>
</g>
<!-- integrations -->
<g id="node15" class="node">
<title>integrations</title>
<polygon fill="#fce4ec" stroke="black" points="844,-36 744,-36 744,0 844,0 844,-36"/>
<text text-anchor="middle" x="794" y="-14.3" font-family="Helvetica,sans-Serif" font-size="14.00">integrations</text>
</g>
<!-- invokers -->
<g id="node16" class="node">
<title>invokers</title>
<polygon fill="#ffffff" stroke="black" points="937.5,-36 862.5,-36 862.5,0 937.5,0 937.5,-36"/>
<text text-anchor="middle" x="900" y="-14.3" font-family="Helvetica,sans-Serif" font-size="14.00">invokers</text>
</g>
<!-- metrics -->
<g id="node17" class="node">
<title>metrics</title>
<polygon fill="#ffffff" stroke="black" points="1024,-36 956,-36 956,0 1024,0 1024,-36"/>
<text text-anchor="middle" x="990" y="-14.3" font-family="Helvetica,sans-Serif" font-size="14.00">metrics</text>
</g>
<!-- optimizers -->
<g id="node18" class="node">
<title>optimizers</title>
<polygon fill="#e3f2fd" stroke="black" points="1131.5,-36 1042.5,-36 1042.5,0 1131.5,0 1131.5,-36"/>
<text text-anchor="middle" x="1087" y="-14.3" font-family="Helvetica,sans-Serif" font-size="14.00">optimizers</text>
</g>
<!-- security -->
<g id="node19" class="node">
<title>security</title>
<polygon fill="#fce4ec" stroke="black" points="1222,-36 1150,-36 1150,0 1222,0 1222,-36"/>
<text text-anchor="middle" x="1186" y="-14.3" font-family="Helvetica,sans-Serif" font-size="14.00">security</text>
</g>
<!-- storage -->
<g id="node20" class="node">
<title>storage</title>
<polygon fill="#f3e5f5" stroke="black" points="1309.5,-36 1240.5,-36 1240.5,0 1309.5,0 1309.5,-36"/>
<text text-anchor="middle" x="1275" y="-14.3" font-family="Helvetica,sans-Serif" font-size="14.00">storage</text>
</g>
<!-- telemetry -->
<g id="node21" class="node">
<title>telemetry</title>
<polygon fill="#f3e5f5" stroke="black" points="1410.5,-36 1327.5,-36 1327.5,0 1410.5,0 1410.5,-36"/>
<text text-anchor="middle" x="1369" y="-14.3" font-family="Helvetica,sans-Serif" font-size="14.00">telemetry</text>
</g>
<!-- traigent -->
<g id="node22" class="node">
<title>traigent</title>
<polygon fill="#ffffff" stroke="black" points="829.5,-119 758.5,-119 758.5,-83 829.5,-83 829.5,-119"/>
<text text-anchor="middle" x="794" y="-97.3" font-family="Helvetica,sans-Serif" font-size="14.00">traigent</text>
</g>
<!-- traigent&#45;&gt;_version -->
<g id="edge1" class="edge">
<title>traigent&#45;&gt;_version</title>
<path fill="none" stroke="#1976d2" stroke-width="1.9" d="M770.1,-82.93C764.42,-79.69 758.2,-76.77 752,-75 696.75,-59.23 292.15,-70.96 235,-65 169.67,-58.19 150.92,-54.74 84.01,-36.08"/>
<polygon fill="#1976d2" stroke="#1976d2" stroke-width="1.9" points="84.81,-32.67 74.24,-33.35 82.92,-39.42 84.81,-32.67"/>
<text text-anchor="middle" x="238.5" y="-57" font-family="Times,serif" font-size="10.00">3</text>
</g>
<!-- traigent&#45;&gt;adapters -->
<g id="edge2" class="edge">
<title>traigent&#45;&gt;adapters</title>
<path fill="none" stroke="#1976d2" stroke-width="1.3" d="M770.1,-82.94C764.42,-79.71 758.2,-76.78 752,-75 704.68,-61.41 357.87,-70.94 309,-65 253.22,-58.22 237.46,-52.92 179.8,-36.11"/>
<polygon fill="#1976d2" stroke="#1976d2" stroke-width="1.3" points="180.75,-32.74 170.17,-33.31 178.79,-39.46 180.75,-32.74"/>
<text text-anchor="middle" x="312.5" y="-57" font-family="Times,serif" font-size="10.00">1</text>
</g>
<!-- traigent&#45;&gt;agents -->
<g id="edge3" class="edge">
<title>traigent&#45;&gt;agents</title>
<path fill="none" stroke="#1976d2" stroke-width="1.3" d="M770.09,-82.96C764.41,-79.73 758.19,-76.79 752,-75 712.18,-63.47 420.09,-70.53 379,-65 328.51,-58.2 313.93,-53.4 261.86,-36.09"/>
<polygon fill="#1976d2" stroke="#1976d2" stroke-width="1.3" points="262.65,-32.66 252.05,-32.83 260.44,-39.31 262.65,-32.66"/>
<text text-anchor="middle" x="382.5" y="-57" font-family="Times,serif" font-size="10.00">1</text>
</g>
<!-- traigent&#45;&gt;api -->
<g id="edge4" class="edge">
<title>traigent&#45;&gt;api</title>
<path fill="none" stroke="#d32f2f" stroke-width="5" d="M770.09,-82.99C764.41,-79.75 758.19,-76.81 752,-75 686.92,-55.94 514.14,-74.53 447,-65 398.17,-58.07 383.8,-54.15 333.71,-35.98"/>
<polygon fill="#d32f2f" stroke="#d32f2f" stroke-width="5" points="335.18,-31.86 324.29,-32.55 332.19,-40.08 335.18,-31.86"/>
<text text-anchor="middle" x="453.5" y="-57" font-family="Times,serif" font-size="10.00">44</text>
</g>
<!-- traigent&#45;&gt;cli -->
<g id="edge5" class="edge">
<title>traigent&#45;&gt;cli</title>
<path fill="none" stroke="#1976d2" stroke-width="2.5" d="M769.62,-82.79C764.06,-79.65 758.02,-76.8 752,-75 703.41,-60.48 574.21,-72.15 524,-65 473.05,-57.75 457.95,-54.52 405.73,-35.96"/>
<polygon fill="#1976d2" stroke="#1976d2" stroke-width="2.5" points="406.87,-32.65 396.28,-32.58 404.51,-39.24 406.87,-32.65"/>
<text text-anchor="middle" x="527.5" y="-57" font-family="Times,serif" font-size="10.00">5</text>
</g>
<!-- traigent&#45;&gt;cloud -->
<g id="edge6" class="edge">
<title>traigent&#45;&gt;cloud</title>
<path fill="none" stroke="#d32f2f" stroke-width="5" d="M769.6,-82.87C764.04,-79.73 758,-76.86 752,-75 684.78,-54.2 663.54,-75.73 594,-65 544.05,-57.29 529.13,-54.31 477.91,-36.03"/>
<polygon fill="#d32f2f" stroke="#d32f2f" stroke-width="5" points="479.17,-31.83 468.28,-32.57 476.21,-40.07 479.17,-31.83"/>
<text text-anchor="middle" x="600.5" y="-57" font-family="Times,serif" font-size="10.00">45</text>
</g>
<!-- traigent&#45;&gt;config -->
<g id="edge7" class="edge">
<title>traigent&#45;&gt;config</title>
<path fill="none" stroke="#d32f2f" stroke-width="5" d="M769.08,-82.83C763.65,-79.77 757.79,-76.94 752,-75 713.42,-62.08 700.97,-72.61 661,-65 613.02,-55.86 601.06,-52.24 555,-36 554.9,-35.97 554.81,-35.93 554.71,-35.9"/>
<polygon fill="#d32f2f" stroke="#d32f2f" stroke-width="5" points="556.54,-31.91 545.63,-32.44 553.42,-40.09 556.54,-31.91"/>
<text text-anchor="middle" x="667.5" y="-57" font-family="Times,serif" font-size="10.00">52</text>
</g>
<!-- traigent&#45;&gt;core -->
<g id="edge8" class="edge">
<title>traigent&#45;&gt;core</title>
<path fill="none" stroke="#d32f2f" stroke-width="5" d="M767.93,-82.97C762.78,-80.04 757.32,-77.23 752,-75 735.9,-68.25 730.74,-69.99 714,-65 677.68,-54.18 666.39,-51.53 627.65,-36.07"/>
<polygon fill="#d32f2f" stroke="#d32f2f" stroke-width="5" points="629.28,-32.01 618.37,-32.34 626.01,-40.13 629.28,-32.01"/>
<text text-anchor="middle" x="720.5" y="-57" font-family="Times,serif" font-size="10.00">55</text>
</g>
<!-- traigent&#45;&gt;evaluators -->
<g id="edge9" class="edge">
<title>traigent&#45;&gt;evaluators</title>
<path fill="none" stroke="#d32f2f" stroke-width="5" d="M770.04,-82.82C753.56,-71.01 731.47,-55.18 713.42,-42.24"/>
<polygon fill="#d32f2f" stroke="#d32f2f" stroke-width="5" points="715.61,-38.42 704.93,-36.15 710.51,-45.54 715.61,-38.42"/>
<text text-anchor="middle" x="751.5" y="-57" font-family="Times,serif" font-size="10.00">33</text>
</g>
<!-- traigent&#45;&gt;integrations -->
<g id="edge10" class="edge">
<title>traigent&#45;&gt;integrations</title>
<path fill="none" stroke="#1976d2" stroke-width="2.8" d="M794,-82.82C794,-72.19 794,-58.31 794,-46.2"/>
<polygon fill="#1976d2" stroke="#1976d2" stroke-width="2.8" points="797.5,-46.15 794,-36.15 790.5,-46.15 797.5,-46.15"/>
<text text-anchor="middle" x="797.5" y="-57" font-family="Times,serif" font-size="10.00">6</text>
</g>
<!-- traigent&#45;&gt;invokers -->
<g id="edge11" class="edge">
<title>traigent&#45;&gt;invokers</title>
<path fill="none" stroke="#1976d2" stroke-width="4" d="M816.48,-82.82C831.94,-71.01 852.65,-55.18 869.58,-42.24"/>
<polygon fill="#1976d2" stroke="#1976d2" stroke-width="4" points="871.73,-45.01 877.55,-36.15 867.48,-39.44 871.73,-45.01"/>
<text text-anchor="middle" x="860.5" y="-57" font-family="Times,serif" font-size="10.00">10</text>
</g>
<!-- traigent&#45;&gt;metrics -->
<g id="edge12" class="edge">
<title>traigent&#45;&gt;metrics</title>
<path fill="none" stroke="#1976d2" stroke-width="1.6" d="M829.95,-85.14C862.78,-71.58 911.39,-51.49 946.42,-37.01"/>
<polygon fill="#1976d2" stroke="#1976d2" stroke-width="1.6" points="948.01,-40.14 955.92,-33.08 945.34,-33.67 948.01,-40.14"/>
<text text-anchor="middle" x="907.5" y="-57" font-family="Times,serif" font-size="10.00">2</text>
</g>
<!-- traigent&#45;&gt;optimizers -->
<g id="edge13" class="edge">
<title>traigent&#45;&gt;optimizers</title>
<path fill="none" stroke="#d32f2f" stroke-width="5" d="M829.77,-90.94C874.69,-79.44 954.36,-58.69 1032.27,-36.15"/>
<polygon fill="#d32f2f" stroke="#d32f2f" stroke-width="5" points="1033.87,-40.24 1042.26,-33.25 1031.43,-31.84 1033.87,-40.24"/>
<text text-anchor="middle" x="974.5" y="-57" font-family="Times,serif" font-size="10.00">40</text>
</g>
<!-- traigent&#45;&gt;security -->
<g id="edge14" class="edge">
<title>traigent&#45;&gt;security</title>
<path fill="none" stroke="#1976d2" stroke-width="2.8" d="M829.57,-95.49C892.8,-87.03 1028.56,-66.78 1140,-36 1140.1,-35.97 1140.2,-35.94 1140.3,-35.92"/>
<polygon fill="#1976d2" stroke="#1976d2" stroke-width="2.8" points="1141.23,-39.29 1149.78,-33.03 1139.19,-32.6 1141.23,-39.29"/>
<text text-anchor="middle" x="1069.5" y="-57" font-family="Times,serif" font-size="10.00">6</text>
</g>
<!-- traigent&#45;&gt;storage -->
<g id="edge15" class="edge">
<title>traigent&#45;&gt;storage</title>
<path fill="none" stroke="#1976d2" stroke-width="1.9" d="M829.79,-97.96C903.63,-93.08 1078.01,-78.03 1230.14,-35.95"/>
<polygon fill="#1976d2" stroke="#1976d2" stroke-width="1.9" points="1231.45,-39.21 1240.13,-33.13 1229.56,-32.47 1231.45,-39.21"/>
<text text-anchor="middle" x="1153.5" y="-57" font-family="Times,serif" font-size="10.00">3</text>
</g>
<!-- traigent&#45;&gt;telemetry -->
<g id="edge16" class="edge">
<title>traigent&#45;&gt;telemetry</title>
<path fill="none" stroke="#1976d2" stroke-width="1.3" d="M829.54,-98.85C913.55,-95.46 1130.69,-82.76 1317.67,-35.87"/>
<polygon fill="#1976d2" stroke="#1976d2" stroke-width="1.3" points="1318.57,-39.25 1327.39,-33.39 1316.84,-32.47 1318.57,-39.25"/>
<text text-anchor="middle" x="1237.5" y="-57" font-family="Times,serif" font-size="10.00">1</text>
</g>
<!-- tvl -->
<g id="node23" class="node">
<title>tvl</title>
<polygon fill="#ffffff" stroke="black" points="1483,-36 1429,-36 1429,0 1483,0 1483,-36"/>
<text text-anchor="middle" x="1456" y="-14.3" font-family="Helvetica,sans-Serif" font-size="14.00">tvl</text>
</g>
<!-- traigent&#45;&gt;tvl -->
<g id="edge17" class="edge">
<title>traigent&#45;&gt;tvl</title>
<path fill="none" stroke="#1976d2" stroke-width="2.2" d="M829.77,-98.28C906.2,-94.38 1091.03,-83.7 1245,-65 1320.21,-55.87 1342.98,-59.21 1419.23,-35.79"/>
<polygon fill="#1976d2" stroke="#1976d2" stroke-width="2.2" points="1420.3,-39.12 1428.8,-32.8 1418.21,-32.44 1420.3,-39.12"/>
<text text-anchor="middle" x="1349.5" y="-57" font-family="Times,serif" font-size="10.00">4</text>
</g>
<!-- utils -->
<g id="node24" class="node">
<title>utils</title>
<polygon fill="#f3e5f5" stroke="black" points="1555,-36 1501,-36 1501,0 1555,0 1555,-36"/>
<text text-anchor="middle" x="1528" y="-14.3" font-family="Helvetica,sans-Serif" font-size="14.00">utils</text>
</g>
<!-- traigent&#45;&gt;utils -->
<g id="edge18" class="edge">
<title>traigent&#45;&gt;utils</title>
<path fill="none" stroke="#d32f2f" stroke-width="5" d="M829.75,-99.63C919.09,-98.3 1159.09,-92.25 1357,-65 1414.71,-57.05 1432.12,-55.79 1490.94,-36"/>
<polygon fill="#d32f2f" stroke="#d32f2f" stroke-width="5" points="1492.7,-40.02 1500.75,-32.66 1489.87,-31.74 1492.7,-40.02"/>
<text text-anchor="middle" x="1436.5" y="-57" font-family="Times,serif" font-size="10.00">213</text>
</g>
<!-- visualization -->
<g id="node25" class="node">
<title>visualization</title>
<polygon fill="#ffffff" stroke="black" points="1676.5,-36 1573.5,-36 1573.5,0 1676.5,0 1676.5,-36"/>
<text text-anchor="middle" x="1625" y="-14.3" font-family="Helvetica,sans-Serif" font-size="14.00">visualization</text>
</g>
<!-- traigent&#45;&gt;visualization -->
<g id="edge19" class="edge">
<title>traigent&#45;&gt;visualization</title>
<path fill="none" stroke="#1976d2" stroke-width="1.6" d="M829.8,-100.54C928.99,-101.51 1215.48,-100.73 1450,-65 1488.14,-59.19 1529.95,-48.37 1563.14,-38.68"/>
<polygon fill="#1976d2" stroke="#1976d2" stroke-width="1.6" points="1564.56,-41.91 1573.15,-35.72 1562.57,-35.2 1564.56,-41.91"/>
<text text-anchor="middle" x="1506.5" y="-57" font-family="Times,serif" font-size="10.00">2</text>
</g>
</g>
</svg>
