<?xml version="1.0" encoding="UTF-8" standalone="no"?>
<!DOCTYPE svg PUBLIC "-//W3C//DTD SVG 1.1//EN"
 "http://www.w3.org/Graphics/SVG/1.1/DTD/svg11.dtd">
<!-- Generated by graphviz version 2.43.0 (0)
 -->
<!-- Title: TopClasses Pages: 1 -->
<svg width="216pt" height="964pt"
 viewBox="0.00 0.00 216.00 964.00" xmlns="http://www.w3.org/2000/svg" xmlns:xlink="http://www.w3.org/1999/xlink">
<g id="graph0" class="graph" transform="scale(1 1) rotate(0) translate(4 960)">
<title>TopClasses</title>
<polygon fill="white" stroke="transparent" points="-4,4 -4,-960 212,-960 212,4 -4,4"/>
<text text-anchor="middle" x="104" y="-939.2" font-family="Times,serif" font-size="16.00">Top 15 Largest Classes</text>
<text text-anchor="middle" x="104" y="-921.2" font-family="Times,serif" font-size="16.00">(by method count)</text>
<!-- cls0 -->
<g id="node1" class="node">
<title>cls0</title>
<polygon fill="#ef9a9a" stroke="black" points="149,-44 59,-44 59,0 149,0 149,-44"/>
<text text-anchor="middle" x="104" y="-31.2" font-family="Helvetica,sans-Serif" font-size="11.00">AuthManager</text>
<text text-anchor="middle" x="104" y="-19.2" font-family="Helvetica,sans-Serif" font-size="11.00">cloud.auth</text>
<text text-anchor="middle" x="104" y="-7.2" font-family="Helvetica,sans-Serif" font-size="11.00">65 methods</text>
</g>
<!-- cls1 -->
<g id="node2" class="node">
<title>cls1</title>
<polygon fill="#ef9a9a" stroke="black" points="183,-106 25,-106 25,-62 183,-62 183,-106"/>
<text text-anchor="middle" x="104" y="-93.2" font-family="Helvetica,sans-Serif" font-size="11.00">OptimizationOrchestrator</text>
<text text-anchor="middle" x="104" y="-81.2" font-family="Helvetica,sans-Serif" font-size="11.00">core.orchestrator</text>
<text text-anchor="middle" x="104" y="-69.2" font-family="Helvetica,sans-Serif" font-size="11.00">61 methods</text>
</g>
<!-- cls2 -->
<g id="node3" class="node">
<title>cls2</title>
<polygon fill="#ef9a9a" stroke="black" points="180,-168 28,-168 28,-124 180,-124 180,-168"/>
<text text-anchor="middle" x="104" y="-155.2" font-family="Helvetica,sans-Serif" font-size="11.00">BackendIntegratedClient</text>
<text text-anchor="middle" x="104" y="-143.2" font-family="Helvetica,sans-Serif" font-size="11.00">cloud.backend_client</text>
<text text-anchor="middle" x="104" y="-131.2" font-family="Helvetica,sans-Serif" font-size="11.00">55 methods</text>
</g>
<!-- cls3 -->
<g id="node4" class="node">
<title>cls3</title>
<polygon fill="#ef9a9a" stroke="black" points="170.5,-230 37.5,-230 37.5,-186 170.5,-186 170.5,-230"/>
<text text-anchor="middle" x="104" y="-217.2" font-family="Helvetica,sans-Serif" font-size="11.00">CostOptimizationAI</text>
<text text-anchor="middle" x="104" y="-205.2" font-family="Helvetica,sans-Serif" font-size="11.00">analytics.intelligence</text>
<text text-anchor="middle" x="104" y="-193.2" font-family="Helvetica,sans-Serif" font-size="11.00">54 methods</text>
</g>
<!-- cls4 -->
<g id="node5" class="node">
<title>cls4</title>
<polygon fill="#ef9a9a" stroke="black" points="178,-292 30,-292 30,-248 178,-248 178,-292"/>
<text text-anchor="middle" x="104" y="-279.2" font-family="Helvetica,sans-Serif" font-size="11.00">OptimizedFunction</text>
<text text-anchor="middle" x="104" y="-267.2" font-family="Helvetica,sans-Serif" font-size="11.00">core.optimized_function</text>
<text text-anchor="middle" x="104" y="-255.2" font-family="Helvetica,sans-Serif" font-size="11.00">50 methods</text>
</g>
<!-- cls5 -->
<g id="node6" class="node">
<title>cls5</title>
<polygon fill="#ffcc80" stroke="black" points="166.5,-354 41.5,-354 41.5,-310 166.5,-310 166.5,-354"/>
<text text-anchor="middle" x="104" y="-341.2" font-family="Helvetica,sans-Serif" font-size="11.00">TraiGentCloudClient</text>
<text text-anchor="middle" x="104" y="-329.2" font-family="Helvetica,sans-Serif" font-size="11.00">cloud.client</text>
<text text-anchor="middle" x="104" y="-317.2" font-family="Helvetica,sans-Serif" font-size="11.00">46 methods</text>
</g>
<!-- cls6 -->
<g id="node7" class="node">
<title>cls6</title>
<polygon fill="#ffcc80" stroke="black" points="187,-416 21,-416 21,-372 187,-372 187,-416"/>
<text text-anchor="middle" x="104" y="-403.2" font-family="Helvetica,sans-Serif" font-size="11.00">RemoteServiceRegistry</text>
<text text-anchor="middle" x="104" y="-391.2" font-family="Helvetica,sans-Serif" font-size="11.00">optimizers.service_registry</text>
<text text-anchor="middle" x="104" y="-379.2" font-family="Helvetica,sans-Serif" font-size="11.00">40 methods</text>
</g>
<!-- cls7 -->
<g id="node8" class="node">
<title>cls7</title>
<polygon fill="#fff9c4" stroke="black" points="165,-478 43,-478 43,-434 165,-434 165,-478"/>
<text text-anchor="middle" x="104" y="-465.2" font-family="Helvetica,sans-Serif" font-size="11.00">OptimizationResult</text>
<text text-anchor="middle" x="104" y="-453.2" font-family="Helvetica,sans-Serif" font-size="11.00">api.types</text>
<text text-anchor="middle" x="104" y="-441.2" font-family="Helvetica,sans-Serif" font-size="11.00">28 methods</text>
</g>
<!-- cls8 -->
<g id="node9" class="node">
<title>cls8</title>
<polygon fill="#fff9c4" stroke="black" points="197,-540 11,-540 11,-496 197,-496 197,-540"/>
<text text-anchor="middle" x="104" y="-527.2" font-family="Helvetica,sans-Serif" font-size="11.00">SpecificationGenerator</text>
<text text-anchor="middle" x="104" y="-515.2" font-family="Helvetica,sans-Serif" font-size="11.00">agents.specification_generator</text>
<text text-anchor="middle" x="104" y="-503.2" font-family="Helvetica,sans-Serif" font-size="11.00">26 methods</text>
</g>
<!-- cls9 -->
<g id="node10" class="node">
<title>cls9</title>
<polygon fill="#fff9c4" stroke="black" points="174.5,-602 33.5,-602 33.5,-558 174.5,-558 174.5,-602"/>
<text text-anchor="middle" x="104" y="-589.2" font-family="Helvetica,sans-Serif" font-size="11.00">SDKBackendBridge</text>
<text text-anchor="middle" x="104" y="-577.2" font-family="Helvetica,sans-Serif" font-size="11.00">cloud.backend_bridges</text>
<text text-anchor="middle" x="104" y="-565.2" font-family="Helvetica,sans-Serif" font-size="11.00">25 methods</text>
</g>
<!-- cls10 -->
<g id="node11" class="node">
<title>cls10</title>
<polygon fill="#fff9c4" stroke="black" points="179,-664 29,-664 29,-620 179,-620 179,-664"/>
<text text-anchor="middle" x="104" y="-651.2" font-family="Helvetica,sans-Serif" font-size="11.00">DatasetConverter</text>
<text text-anchor="middle" x="104" y="-639.2" font-family="Helvetica,sans-Serif" font-size="11.00">cloud.dataset_converter</text>
<text text-anchor="middle" x="104" y="-627.2" font-family="Helvetica,sans-Serif" font-size="11.00">25 methods</text>
</g>
<!-- cls11 -->
<g id="node12" class="node">
<title>cls11</title>
<polygon fill="#fff9c4" stroke="black" points="190,-726 18,-726 18,-682 190,-682 190,-726"/>
<text text-anchor="middle" x="104" y="-713.2" font-family="Helvetica,sans-Serif" font-size="11.00">ProductionMCPClient</text>
<text text-anchor="middle" x="104" y="-701.2" font-family="Helvetica,sans-Serif" font-size="11.00">cloud.production_mcp_client</text>
<text text-anchor="middle" x="104" y="-689.2" font-family="Helvetica,sans-Serif" font-size="11.00">25 methods</text>
</g>
<!-- cls12 -->
<g id="node13" class="node">
<title>cls12</title>
<polygon fill="#fff9c4" stroke="black" points="169,-788 39,-788 39,-744 169,-744 169,-788"/>
<text text-anchor="middle" x="104" y="-775.2" font-family="Helvetica,sans-Serif" font-size="11.00">ApiOperations</text>
<text text-anchor="middle" x="104" y="-763.2" font-family="Helvetica,sans-Serif" font-size="11.00">cloud.api_operations</text>
<text text-anchor="middle" x="104" y="-751.2" font-family="Helvetica,sans-Serif" font-size="11.00">24 methods</text>
</g>
<!-- cls13 -->
<g id="node14" class="node">
<title>cls13</title>
<polygon fill="#fff9c4" stroke="black" points="174,-850 34,-850 34,-806 174,-806 174,-850"/>
<text text-anchor="middle" x="104" y="-837.2" font-family="Helvetica,sans-Serif" font-size="11.00">BaseOverrideManager</text>
<text text-anchor="middle" x="104" y="-825.2" font-family="Helvetica,sans-Serif" font-size="11.00">integrations.base</text>
<text text-anchor="middle" x="104" y="-813.2" font-family="Helvetica,sans-Serif" font-size="11.00">23 methods</text>
</g>
<!-- cls14 -->
<g id="node15" class="node">
<title>cls14</title>
<polygon fill="#fff9c4" stroke="black" points="202,-912 6,-912 6,-868 202,-868 202,-912"/>
<text text-anchor="middle" x="104" y="-899.2" font-family="Helvetica,sans-Serif" font-size="11.00">FrameworkOverride</text>
<text text-anchor="middle" x="104" y="-887.2" font-family="Helvetica,sans-Serif" font-size="11.00">integrations.framework_override</text>
<text text-anchor="middle" x="104" y="-875.2" font-family="Helvetica,sans-Serif" font-size="11.00">23 methods</text>
</g>
</g>
</svg>
