<svg xmlns="http://www.w3.org/2000/svg" xmlns:xlink="http://www.w3.org/1999/xlink" width="840" height="581.04"><rect width="840" height="581.04" rx="5" ry="5" class="a"/><svg y="0%" x="0%"><circle cx="20" cy="20" r="6" fill="#ff5f58"/><circle cx="40" cy="20" r="6" fill="#ffbd2e"/><circle cx="60" cy="20" r="6" fill="#18c132"/></svg><svg height="521.04" viewBox="0 0 80 52.104" width="800" x="15" xmlns="http://www.w3.org/2000/svg" xmlns:xlink="http://www.w3.org/1999/xlink" y="50"><style>@keyframes p{0%{transform:translateX(-80px)}1.3%{transform:translateX(-160px)}2.6%{transform:translateX(-240px)}3.5%{transform:translateX(-320px)}4.1%{transform:translateX(-400px)}4.6%{transform:translateX(-480px)}5.2%{transform:translateX(-560px)}5.7%{transform:translateX(-640px)}6.3%{transform:translateX(-720px)}6.8%{transform:translateX(-800px)}7.3%{transform:translateX(-880px)}7.9%{transform:translateX(-960px)}8.4%{transform:translateX(-1040px)}9%{transform:translateX(-1120px)}9.5%{transform:translateX(-1200px)}10.1%{transform:translateX(-1280px)}10.6%{transform:translateX(-1360px)}11.2%{transform:translateX(-1440px)}11.7%{transform:translateX(-1520px)}12.3%{transform:translateX(-1600px)}12.8%{transform:translateX(-1680px)}13.4%{transform:translateX(-1760px)}13.9%{transform:translateX(-1840px)}14.5%{transform:translateX(-1920px)}15%{transform:translateX(-2000px)}15.6%{transform:translateX(-2080px)}16.1%{transform:translateX(-2160px)}16.7%{transform:translateX(-2240px)}17.2%{transform:translateX(-2320px)}17.8%{transform:translateX(-2400px)}18.3%{transform:translateX(-2480px)}18.9%{transform:translateX(-2560px)}19.4%{transform:translateX(-2640px)}20%{transform:translateX(-2720px)}20.5%{transform:translateX(-2800px)}21.1%{transform:translateX(-2880px)}21.6%{transform:translateX(-2960px)}22.1%{transform:translateX(-3040px)}22.7%{transform:translateX(-3120px)}23.2%{transform:translateX(-3200px)}23.8%{transform:translateX(-3280px)}24.3%{transform:translateX(-3360px)}24.9%{transform:translateX(-3440px)}25.4%{transform:translateX(-3520px)}26%{transform:translateX(-3600px)}26.5%{transform:translateX(-3680px)}27.1%{transform:translateX(-3760px)}27.6%{transform:translateX(-3840px)}28.2%{transform:translateX(-3920px)}28.7%{transform:translateX(-4000px)}29.3%{transform:translateX(-4080px)}29.8%{transform:translateX(-4160px)}30.4%{transform:translateX(-4240px)}30.9%{transform:translateX(-4320px)}31.5%{transform:translateX(-4400px)}32%{transform:translateX(-4480px)}32.6%{transform:translateX(-4560px)}33.1%{transform:translateX(-4640px)}33.7%{transform:translateX(-4720px)}34.2%{transform:translateX(-4800px)}34.8%{transform:translateX(-4880px)}35.3%{transform:translateX(-4960px)}35.9%{transform:translateX(-5040px)}36.4%{transform:translateX(-5120px)}37%{transform:translateX(-5200px)}37.5%{transform:translateX(-5280px)}38%{transform:translateX(-5360px)}43%{transform:translateX(-5440px)}49.6%{transform:translateX(-5520px)}50.4%{transform:translateX(-5600px)}51.8%{transform:translateX(-5680px)}52.6%{transform:translateX(-5760px)}53.9%{transform:translateX(-5840px)}55.3%{transform:translateX(-5920px)}56.1%{transform:translateX(-6000px)}57.5%{transform:translateX(-6080px)}58.8%{transform:translateX(-6160px)}60.1%{transform:translateX(-6240px)}61.4%{transform:translateX(-6320px)}62.7%{transform:translateX(-6400px)}63.6%{transform:translateX(-6480px)}64.9%{transform:translateX(-6560px)}66.2%{transform:translateX(-6640px)}67.5%{transform:translateX(-6720px)}68.9%{transform:translateX(-6800px)}70.2%{transform:translateX(-6880px)}71.5%{transform:translateX(-6960px)}72.8%{transform:translateX(-7040px)}73.7%{transform:translateX(-7120px)}75%{transform:translateX(-7200px)}76.3%{transform:translateX(-7280px)}77.2%{transform:translateX(-7360px)}to{transform:translateX(-7440px)}}.a{fill:#282d35}.f{fill:#71bef2;font-weight:700;white-space:pre}.g{fill:#b9c0cb}.g,.h,.i{white-space:pre}.h{fill:#dbab79;font-weight:700}.i{fill:#e88388}.j{fill:#66c2cd;font-weight:700}.j,.k,.l,.m{white-space:pre}.k{fill:#b9c0cb;font-weight:700}.l,.m{fill:#a8cc8c}.m{font-weight:700}</style><g font-family="Monaco,Consolas,Menlo,'Bitstream Vera Sans Mono','Powerline Symbols',monospace" font-size="1.67"><defs><symbol id="1"><text y="1.67" class="f">Support</text><text x="8.016" y="1.67" class="f">bots</text><text x="13.026" y="1.67" class="f">that</text><text x="18.036" y="1.67" class="f">resolve</text><text x="26.052" y="1.67" class="f">-</text><text x="28.056" y="1.67" class="f">and</text><text x="32.064" y="1.67" class="f">escalate</text><text x="41.082" y="1.67" class="f">only</text><text x="46.092" y="1.67" class="f">when</text><text x="51.102" y="1.67" class="f">needed</text></symbol><symbol id="2"><text y="1.67" class="g">Customer</text><text x="9.018" y="1.67" class="g">Support</text><text x="17.034" y="1.67" class="g">Agent</text><text x="23.046" y="1.67" class="g">|</text><text x="25.05" y="1.67" class="g">Resolution</text><text x="36.072" y="1.67" class="g">+</text><text x="38.076" y="1.67" class="g">Tone</text><text x="43.086" y="1.67" class="g">+</text><text x="45.09" y="1.67" class="g">Escalation</text></symbol><symbol id="3"><text y="1.67" class="g">$</text></symbol><symbol id="4"><text y="1.67" class="g">$</text><text x="2.004" y="1.67" class="h">python</text></symbol><symbol id="5"><text y="1.67" class="g">$</text><text x="2.004" y="1.67" class="h">python</text><text x="9.018" y="1.67" class="h">use-cases/customer-support/eval/evaluator.py</text></symbol><symbol id="6"><text y="1.67" class="i">[FALSE</text><text x="7.014" y="1.67" class="i">ESCALATION]</text><text x="19.038" y="1.67" class="g">Simple</text><text x="26.052" y="1.67" class="g">query</text><text x="32.064" y="1.67" class="g">-</text><text x="34.068" y="1.67" class="g">no</text><text x="37.074" y="1.67" class="g">escalation</text><text x="48.096" y="1.67" class="g">needed!</text></symbol><symbol id="7"><text y="1.67" class="j">OPTIMIZATION</text><text x="13.026" y="1.67" class="j">RUN</text><text x="16.032" y="1.67" class="g">:</text><text x="18.036" y="1.67" class="g">Testing</text><text x="26.052" y="1.67" class="g">Different</text><text x="36.072" y="1.67" class="g">Support</text><text x="44.088" y="1.67" class="g">Agent</text><text x="50.1" y="1.67" class="g">Configs</text></symbol><symbol id="8"><text y="1.67" class="g">Configs:</text><text x="9.018" y="1.67" class="k">5</text><text x="11.022" y="1.67" class="g">|</text><text x="13.026" y="1.67" class="g">Examples:</text><text x="23.046" y="1.67" class="k">10</text><text x="26.052" y="1.67" class="g">|</text><text x="28.056" y="1.67" class="g">Dataset:</text><text x="37.074" y="1.67" class="k">309</text><text x="41.082" y="1.67" class="k">scenarios</text><text x="51.102" y="1.67" class="k">(65</text><text x="55.11" y="1.67" class="k">escalations)</text></symbol><symbol id="9"><text y="1.67" class="g">[1/5]</text><text x="6.012" y="1.67" class="g">baseline</text><text x="18.036" y="1.67" class="g">...</text><text x="22.044" y="1.67" class="g">tone=</text><text x="27.054" y="1.67" class="h">0.70</text><text x="32.064" y="1.67" class="g">escalation=</text><text x="43.086" y="1.67" class="i">75%</text></symbol><symbol id="10"><text y="1.67" class="g">[2/5]</text><text x="6.012" y="1.67" class="g">formal</text><text x="18.036" y="1.67" class="g">...</text><text x="22.044" y="1.67" class="g">tone=</text><text x="27.054" y="1.67" class="h">0.73</text><text x="32.064" y="1.67" class="g">escalation=</text><text x="43.086" y="1.67" class="h">79%</text></symbol><symbol id="11"><text y="1.67" class="g">[3/5]</text><text x="6.012" y="1.67" class="g">empathetic</text><text x="18.036" y="1.67" class="g">...</text><text x="22.044" y="1.67" class="g">tone=</text><text x="27.054" y="1.67" class="l">0.88</text><text x="32.064" y="1.67" class="g">escalation=</text><text x="43.086" y="1.67" class="l">92%</text><text x="47.094" y="1.67" class="l">&lt;-</text><text x="50.1" y="1.67" class="l">best!</text></symbol><symbol id="12"><text y="1.67" class="g">[4/5]</text><text x="6.012" y="1.67" class="g">concise</text><text x="18.036" y="1.67" class="g">...</text><text x="22.044" y="1.67" class="g">tone=</text><text x="27.054" y="1.67" class="h">0.76</text><text x="32.064" y="1.67" class="g">escalation=</text><text x="43.086" y="1.67" class="h">83%</text></symbol><symbol id="13"><text y="1.67" class="g">[5/5]</text><text x="6.012" y="1.67" class="g">detailed</text><text x="18.036" y="1.67" class="g">...</text><text x="22.044" y="1.67" class="g">tone=</text><text x="27.054" y="1.67" class="h">0.81</text><text x="32.064" y="1.67" class="g">escalation=</text><text x="43.086" y="1.67" class="h">87%</text></symbol><symbol id="14"><text y="1.67" class="k">RESULTS</text><text x="8.016" y="1.67" class="k">TABLE</text></symbol><symbol id="15"><text y="1.67" class="g">================================================================</text></symbol><symbol id="16"><text y="1.67" class="g">Config</text><text x="13.026" y="1.67" class="g">Tone</text><text x="22.044" y="1.67" class="g">Escalation</text><text x="36.072" y="1.67" class="g">Overall</text></symbol><symbol id="17"><text y="1.67" class="g">----------------------------------------------------------------</text></symbol><symbol id="18"><text y="1.67" class="g">baseline</text><text x="13.026" y="1.67" class="g">██████████████░░░░░░</text><text x="34.068" y="1.67" class="g">0.70</text><text x="44.088" y="1.67" class="g">75%</text><text x="56.112" y="1.67" class="h">0.72</text></symbol><symbol id="19"><text y="1.67" class="g">empathetic</text><text x="13.026" y="1.67" class="l">█████████████████░░░</text><text x="34.068" y="1.67" class="g">0.88</text><text x="44.088" y="1.67" class="g">92%</text><text x="56.112" y="1.67" class="m">0.90</text></symbol><symbol id="20"><text y="1.67" class="m">BEST:</text><text x="6.012" y="1.67" class="m">empathetic</text><text x="17.034" y="1.67" class="g">(score=</text><text x="24.048" y="1.67" class="l">0.90</text><text x="28.056" y="1.67" class="g">)</text></symbol><symbol id="21"><text x="2.004" y="1.67" class="g">Tone</text><text x="7.014" y="1.67" class="l">0.70</text><text x="12.024" y="1.67" class="l">-&gt;</text><text x="15.03" y="1.67" class="l">0.88</text><text x="20.04" y="1.67" class="g">|</text><text x="22.044" y="1.67" class="g">Escalation</text><text x="33.066" y="1.67" class="l">75%</text><text x="37.074" y="1.67" class="l">-&gt;</text><text x="40.08" y="1.67" class="l">92%</text></symbol><symbol id="a"><path fill="transparent" d="M0 0h80v25H0z"/></symbol><symbol id="b"><path fill="#6f7683" d="M0 0h1.102v2.171H0z"/></symbol></defs><path class="a" d="M0 0h80v52.104H0z"/><g style="animation-duration:9.119999999999997s;animation-iteration-count:infinite;animation-name:p;animation-timing-function:steps(1,end)"><svg width="7520"><svg><use xlink:href="#a"/><use xlink:href="#b" x="-.004"/></svg><svg x="80"><use xlink:href="#a"/><use xlink:href="#b" x="-.004" y="2.146"/><use xlink:href="#1"/></svg><svg x="160"><use xlink:href="#a"/><use xlink:href="#b" x="-.004" y="4.317"/><use xlink:href="#1"/><use xlink:href="#2" y="2.171"/></svg><svg x="240"><use xlink:href="#a"/><use xlink:href="#b" x="-.004" y="6.488"/><use xlink:href="#1"/><use xlink:href="#2" y="2.171"/></svg><svg x="320"><use xlink:href="#a"/><use xlink:href="#b" x=".996" y="6.488"/><use xlink:href="#1"/><use xlink:href="#2" y="2.171"/><use xlink:href="#3" y="6.513"/></svg><svg x="400"><use xlink:href="#a"/><use xlink:href="#b" x="1.996" y="6.488"/><use xlink:href="#1"/><use xlink:href="#2" y="2.171"/><use xlink:href="#3" y="6.513"/></svg><svg x="480"><use xlink:href="#a"/><use xlink:href="#b" x="1.996" y="6.488"/><use xlink:href="#1"/><use xlink:href="#2" y="2.171"/><use xlink:href="#3" y="6.513"/></svg><svg x="560"><use xlink:href="#a"/><use xlink:href="#b" x="1.996" y="6.488"/><use xlink:href="#1"/><use xlink:href="#2" y="2.171"/><use xlink:href="#3" y="6.513"/></svg><svg x="640"><use xlink:href="#a"/><use xlink:href="#b" x="1.996" y="6.488"/><use xlink:href="#1"/><use xlink:href="#2" y="2.171"/><use xlink:href="#3" y="6.513"/></svg><svg x="720"><use xlink:href="#a"/><use xlink:href="#b" x="1.996" y="6.488"/><use xlink:href="#1"/><use xlink:href="#2" y="2.171"/><use xlink:href="#3" y="6.513"/></svg><svg x="800"><use xlink:href="#a"/><use xlink:href="#b" x="1.996" y="6.488"/><use xlink:href="#1"/><use xlink:href="#2" y="2.171"/><use xlink:href="#3" y="6.513"/></svg><svg x="880"><use xlink:href="#a"/><use xlink:href="#b" x="1.996" y="6.488"/><use xlink:href="#1"/><use xlink:href="#2" y="2.171"/><use xlink:href="#3" y="6.513"/></svg><svg x="960"><use xlink:href="#a"/><use xlink:href="#b" x="1.996" y="6.488"/><use xlink:href="#1"/><use xlink:href="#2" y="2.171"/><use xlink:href="#3" y="6.513"/></svg><svg x="1040"><use xlink:href="#a"/><use xlink:href="#b" x="2.996" y="6.488"/><use xlink:href="#1"/><use xlink:href="#2" y="2.171"/><text y="8.183" class="g">$</text><text x="2.004" y="8.183" class="h">p</text></svg><svg x="1120"><use xlink:href="#a"/><use xlink:href="#b" x="3.996" y="6.488"/><use xlink:href="#1"/><use xlink:href="#2" y="2.171"/><text y="8.183" class="g">$</text><text x="2.004" y="8.183" class="h">py</text></svg><svg x="1200"><use xlink:href="#a"/><use xlink:href="#b" x="4.996" y="6.488"/><use xlink:href="#1"/><use xlink:href="#2" y="2.171"/><text y="8.183" class="g">$</text><text x="2.004" y="8.183" class="h">pyt</text></svg><svg x="1280"><use xlink:href="#a"/><use xlink:href="#b" x="5.996" y="6.488"/><use xlink:href="#1"/><use xlink:href="#2" y="2.171"/><text y="8.183" class="g">$</text><text x="2.004" y="8.183" class="h">pyth</text></svg><svg x="1360"><use xlink:href="#a"/><use xlink:href="#b" x="6.996" y="6.488"/><use xlink:href="#1"/><use xlink:href="#2" y="2.171"/><text y="8.183" class="g">$</text><text x="2.004" y="8.183" class="h">pytho</text></svg><svg x="1440"><use xlink:href="#a"/><use xlink:href="#b" x="7.996" y="6.488"/><use xlink:href="#1"/><use xlink:href="#2" y="2.171"/><use xlink:href="#4" y="6.513"/></svg><svg x="1520"><use xlink:href="#a"/><use xlink:href="#b" x="8.996" y="6.488"/><use xlink:href="#1"/><use xlink:href="#2" y="2.171"/><use xlink:href="#4" y="6.513"/></svg><svg x="1600"><use xlink:href="#a"/><use xlink:href="#b" x="9.996" y="6.488"/><use xlink:href="#1"/><use xlink:href="#2" y="2.171"/><text y="8.183" class="g">$</text><text x="2.004" y="8.183" class="h">python</text><text x="9.018" y="8.183" class="h">u</text></svg><svg x="1680"><use xlink:href="#a"/><use xlink:href="#b" x="10.996" y="6.488"/><use xlink:href="#1"/><use xlink:href="#2" y="2.171"/><text y="8.183" class="g">$</text><text x="2.004" y="8.183" class="h">python</text><text x="9.018" y="8.183" class="h">us</text></svg><svg x="1760"><use xlink:href="#a"/><use xlink:href="#b" x="11.996" y="6.488"/><use xlink:href="#1"/><use xlink:href="#2" y="2.171"/><text y="8.183" class="g">$</text><text x="2.004" y="8.183" class="h">python</text><text x="9.018" y="8.183" class="h">use</text></svg><svg x="1840"><use xlink:href="#a"/><use xlink:href="#b" x="12.996" y="6.488"/><use xlink:href="#1"/><use xlink:href="#2" y="2.171"/><text y="8.183" class="g">$</text><text x="2.004" y="8.183" class="h">python</text><text x="9.018" y="8.183" class="h">use-</text></svg><svg x="1920"><use xlink:href="#a"/><use xlink:href="#b" x="13.996" y="6.488"/><use xlink:href="#1"/><use xlink:href="#2" y="2.171"/><text y="8.183" class="g">$</text><text x="2.004" y="8.183" class="h">python</text><text x="9.018" y="8.183" class="h">use-c</text></svg><svg x="2000"><use xlink:href="#a"/><use xlink:href="#b" x="14.996" y="6.488"/><use xlink:href="#1"/><use xlink:href="#2" y="2.171"/><text y="8.183" class="g">$</text><text x="2.004" y="8.183" class="h">python</text><text x="9.018" y="8.183" class="h">use-ca</text></svg><svg x="2080"><use xlink:href="#a"/><use xlink:href="#b" x="15.996" y="6.488"/><use xlink:href="#1"/><use xlink:href="#2" y="2.171"/><text y="8.183" class="g">$</text><text x="2.004" y="8.183" class="h">python</text><text x="9.018" y="8.183" class="h">use-cas</text></svg><svg x="2160"><use xlink:href="#a"/><use xlink:href="#b" x="16.996" y="6.488"/><use xlink:href="#1"/><use xlink:href="#2" y="2.171"/><text y="8.183" class="g">$</text><text x="2.004" y="8.183" class="h">python</text><text x="9.018" y="8.183" class="h">use-case</text></svg><svg x="2240"><use xlink:href="#a"/><use xlink:href="#b" x="17.996" y="6.488"/><use xlink:href="#1"/><use xlink:href="#2" y="2.171"/><text y="8.183" class="g">$</text><text x="2.004" y="8.183" class="h">python</text><text x="9.018" y="8.183" class="h">use-cases</text></svg><svg x="2320"><use xlink:href="#a"/><use xlink:href="#b" x="18.996" y="6.488"/><use xlink:href="#1"/><use xlink:href="#2" y="2.171"/><text y="8.183" class="g">$</text><text x="2.004" y="8.183" class="h">python</text><text x="9.018" y="8.183" class="h">use-cases/</text></svg><svg x="2400"><use xlink:href="#a"/><use xlink:href="#b" x="19.996" y="6.488"/><use xlink:href="#1"/><use xlink:href="#2" y="2.171"/><text y="8.183" class="g">$</text><text x="2.004" y="8.183" class="h">python</text><text x="9.018" y="8.183" class="h">use-cases/c</text></svg><svg x="2480"><use xlink:href="#a"/><use xlink:href="#b" x="20.996" y="6.488"/><use xlink:href="#1"/><use xlink:href="#2" y="2.171"/><text y="8.183" class="g">$</text><text x="2.004" y="8.183" class="h">python</text><text x="9.018" y="8.183" class="h">use-cases/cu</text></svg><svg x="2560"><use xlink:href="#a"/><use xlink:href="#b" x="21.996" y="6.488"/><use xlink:href="#1"/><use xlink:href="#2" y="2.171"/><text y="8.183" class="g">$</text><text x="2.004" y="8.183" class="h">python</text><text x="9.018" y="8.183" class="h">use-cases/cus</text></svg><svg x="2640"><use xlink:href="#a"/><use xlink:href="#b" x="22.996" y="6.488"/><use xlink:href="#1"/><use xlink:href="#2" y="2.171"/><text y="8.183" class="g">$</text><text x="2.004" y="8.183" class="h">python</text><text x="9.018" y="8.183" class="h">use-cases/cust</text></svg><svg x="2720"><use xlink:href="#a"/><use xlink:href="#b" x="23.996" y="6.488"/><use xlink:href="#1"/><use xlink:href="#2" y="2.171"/><text y="8.183" class="g">$</text><text x="2.004" y="8.183" class="h">python</text><text x="9.018" y="8.183" class="h">use-cases/custo</text></svg><svg x="2800"><use xlink:href="#a"/><use xlink:href="#b" x="24.996" y="6.488"/><use xlink:href="#1"/><use xlink:href="#2" y="2.171"/><text y="8.183" class="g">$</text><text x="2.004" y="8.183" class="h">python</text><text x="9.018" y="8.183" class="h">use-cases/custom</text></svg><svg x="2880"><use xlink:href="#a"/><use xlink:href="#b" x="25.996" y="6.488"/><use xlink:href="#1"/><use xlink:href="#2" y="2.171"/><text y="8.183" class="g">$</text><text x="2.004" y="8.183" class="h">python</text><text x="9.018" y="8.183" class="h">use-cases/custome</text></svg><svg x="2960"><use xlink:href="#a"/><use xlink:href="#b" x="26.996" y="6.488"/><use xlink:href="#1"/><use xlink:href="#2" y="2.171"/><text y="8.183" class="g">$</text><text x="2.004" y="8.183" class="h">python</text><text x="9.018" y="8.183" class="h">use-cases/customer</text></svg><svg x="3040"><use xlink:href="#a"/><use xlink:href="#b" x="27.996" y="6.488"/><use xlink:href="#1"/><use xlink:href="#2" y="2.171"/><text y="8.183" class="g">$</text><text x="2.004" y="8.183" class="h">python</text><text x="9.018" y="8.183" class="h">use-cases/customer-</text></svg><svg x="3120"><use xlink:href="#a"/><use xlink:href="#b" x="28.996" y="6.488"/><use xlink:href="#1"/><use xlink:href="#2" y="2.171"/><text y="8.183" class="g">$</text><text x="2.004" y="8.183" class="h">python</text><text x="9.018" y="8.183" class="h">use-cases/customer-s</text></svg><svg x="3200"><use xlink:href="#a"/><use xlink:href="#b" x="29.996" y="6.488"/><use xlink:href="#1"/><use xlink:href="#2" y="2.171"/><text y="8.183" class="g">$</text><text x="2.004" y="8.183" class="h">python</text><text x="9.018" y="8.183" class="h">use-cases/customer-su</text></svg><svg x="3280"><use xlink:href="#a"/><use xlink:href="#b" x="30.996" y="6.488"/><use xlink:href="#1"/><use xlink:href="#2" y="2.171"/><text y="8.183" class="g">$</text><text x="2.004" y="8.183" class="h">python</text><text x="9.018" y="8.183" class="h">use-cases/customer-sup</text></svg><svg x="3360"><use xlink:href="#a"/><use xlink:href="#b" x="31.996" y="6.488"/><use xlink:href="#1"/><use xlink:href="#2" y="2.171"/><text y="8.183" class="g">$</text><text x="2.004" y="8.183" class="h">python</text><text x="9.018" y="8.183" class="h">use-cases/customer-supp</text></svg><svg x="3440"><use xlink:href="#a"/><use xlink:href="#b" x="32.996" y="6.488"/><use xlink:href="#1"/><use xlink:href="#2" y="2.171"/><text y="8.183" class="g">$</text><text x="2.004" y="8.183" class="h">python</text><text x="9.018" y="8.183" class="h">use-cases/customer-suppo</text></svg><svg x="3520"><use xlink:href="#a"/><use xlink:href="#b" x="33.996" y="6.488"/><use xlink:href="#1"/><use xlink:href="#2" y="2.171"/><text y="8.183" class="g">$</text><text x="2.004" y="8.183" class="h">python</text><text x="9.018" y="8.183" class="h">use-cases/customer-suppor</text></svg><svg x="3600"><use xlink:href="#a"/><use xlink:href="#b" x="34.996" y="6.488"/><use xlink:href="#1"/><use xlink:href="#2" y="2.171"/><text y="8.183" class="g">$</text><text x="2.004" y="8.183" class="h">python</text><text x="9.018" y="8.183" class="h">use-cases/customer-support</text></svg><svg x="3680"><use xlink:href="#a"/><use xlink:href="#b" x="35.996" y="6.488"/><use xlink:href="#1"/><use xlink:href="#2" y="2.171"/><text y="8.183" class="g">$</text><text x="2.004" y="8.183" class="h">python</text><text x="9.018" y="8.183" class="h">use-cases/customer-support/</text></svg><svg x="3760"><use xlink:href="#a"/><use xlink:href="#b" x="36.996" y="6.488"/><use xlink:href="#1"/><use xlink:href="#2" y="2.171"/><text y="8.183" class="g">$</text><text x="2.004" y="8.183" class="h">python</text><text x="9.018" y="8.183" class="h">use-cases/customer-support/e</text></svg><svg x="3840"><use xlink:href="#a"/><use xlink:href="#b" x="37.996" y="6.488"/><use xlink:href="#1"/><use xlink:href="#2" y="2.171"/><text y="8.183" class="g">$</text><text x="2.004" y="8.183" class="h">python</text><text x="9.018" y="8.183" class="h">use-cases/customer-support/ev</text></svg><svg x="3920"><use xlink:href="#a"/><use xlink:href="#b" x="38.996" y="6.488"/><use xlink:href="#1"/><use xlink:href="#2" y="2.171"/><text y="8.183" class="g">$</text><text x="2.004" y="8.183" class="h">python</text><text x="9.018" y="8.183" class="h">use-cases/customer-support/eva</text></svg><svg x="4000"><use xlink:href="#a"/><use xlink:href="#b" x="39.996" y="6.488"/><use xlink:href="#1"/><use xlink:href="#2" y="2.171"/><text y="8.183" class="g">$</text><text x="2.004" y="8.183" class="h">python</text><text x="9.018" y="8.183" class="h">use-cases/customer-support/eval</text></svg><svg x="4080"><use xlink:href="#a"/><use xlink:href="#b" x="40.996" y="6.488"/><use xlink:href="#1"/><use xlink:href="#2" y="2.171"/><text y="8.183" class="g">$</text><text x="2.004" y="8.183" class="h">python</text><text x="9.018" y="8.183" class="h">use-cases/customer-support/eval/</text></svg><svg x="4160"><use xlink:href="#a"/><use xlink:href="#b" x="41.996" y="6.488"/><use xlink:href="#1"/><use xlink:href="#2" y="2.171"/><text y="8.183" class="g">$</text><text x="2.004" y="8.183" class="h">python</text><text x="9.018" y="8.183" class="h">use-cases/customer-support/eval/e</text></svg><svg x="4240"><use xlink:href="#a"/><use xlink:href="#b" x="42.996" y="6.488"/><use xlink:href="#1"/><use xlink:href="#2" y="2.171"/><text y="8.183" class="g">$</text><text x="2.004" y="8.183" class="h">python</text><text x="9.018" y="8.183" class="h">use-cases/customer-support/eval/ev</text></svg><svg x="4320"><use xlink:href="#a"/><use xlink:href="#b" x="43.996" y="6.488"/><use xlink:href="#1"/><use xlink:href="#2" y="2.171"/><text y="8.183" class="g">$</text><text x="2.004" y="8.183" class="h">python</text><text x="9.018" y="8.183" class="h">use-cases/customer-support/eval/eva</text></svg><svg x="4400"><use xlink:href="#a"/><use xlink:href="#b" x="44.996" y="6.488"/><use xlink:href="#1"/><use xlink:href="#2" y="2.171"/><text y="8.183" class="g">$</text><text x="2.004" y="8.183" class="h">python</text><text x="9.018" y="8.183" class="h">use-cases/customer-support/eval/eval</text></svg><svg x="4480"><use xlink:href="#a"/><use xlink:href="#b" x="45.996" y="6.488"/><use xlink:href="#1"/><use xlink:href="#2" y="2.171"/><text y="8.183" class="g">$</text><text x="2.004" y="8.183" class="h">python</text><text x="9.018" y="8.183" class="h">use-cases/customer-support/eval/evalu</text></svg><svg x="4560"><use xlink:href="#a"/><use xlink:href="#b" x="46.996" y="6.488"/><use xlink:href="#1"/><use xlink:href="#2" y="2.171"/><text y="8.183" class="g">$</text><text x="2.004" y="8.183" class="h">python</text><text x="9.018" y="8.183" class="h">use-cases/customer-support/eval/evalua</text></svg><svg x="4640"><use xlink:href="#a"/><use xlink:href="#b" x="47.996" y="6.488"/><use xlink:href="#1"/><use xlink:href="#2" y="2.171"/><text y="8.183" class="g">$</text><text x="2.004" y="8.183" class="h">python</text><text x="9.018" y="8.183" class="h">use-cases/customer-support/eval/evaluat</text></svg><svg x="4720"><use xlink:href="#a"/><use xlink:href="#b" x="48.996" y="6.488"/><use xlink:href="#1"/><use xlink:href="#2" y="2.171"/><text y="8.183" class="g">$</text><text x="2.004" y="8.183" class="h">python</text><text x="9.018" y="8.183" class="h">use-cases/customer-support/eval/evaluato</text></svg><svg x="4800"><use xlink:href="#a"/><use xlink:href="#b" x="49.996" y="6.488"/><use xlink:href="#1"/><use xlink:href="#2" y="2.171"/><text y="8.183" class="g">$</text><text x="2.004" y="8.183" class="h">python</text><text x="9.018" y="8.183" class="h">use-cases/customer-support/eval/evaluator</text></svg><svg x="4880"><use xlink:href="#a"/><use xlink:href="#b" x="50.996" y="6.488"/><use xlink:href="#1"/><use xlink:href="#2" y="2.171"/><text y="8.183" class="g">$</text><text x="2.004" y="8.183" class="h">python</text><text x="9.018" y="8.183" class="h">use-cases/customer-support/eval/evaluator.</text></svg><svg x="4960"><use xlink:href="#a"/><use xlink:href="#b" x="51.996" y="6.488"/><use xlink:href="#1"/><use xlink:href="#2" y="2.171"/><text y="8.183" class="g">$</text><text x="2.004" y="8.183" class="h">python</text><text x="9.018" y="8.183" class="h">use-cases/customer-support/eval/evaluator.p</text></svg><svg x="5040"><use xlink:href="#a"/><use xlink:href="#b" x="52.996" y="6.488"/><use xlink:href="#1"/><use xlink:href="#2" y="2.171"/><use xlink:href="#5" y="6.513"/></svg><svg x="5120"><use xlink:href="#a"/><use xlink:href="#b" x="52.996" y="6.488"/><use xlink:href="#1"/><use xlink:href="#2" y="2.171"/><use xlink:href="#5" y="6.513"/></svg><svg x="5200"><use xlink:href="#a"/><use xlink:href="#b" x="52.996" y="6.488"/><use xlink:href="#1"/><use xlink:href="#2" y="2.171"/><use xlink:href="#5" y="6.513"/></svg><svg x="5280"><use xlink:href="#a"/><use xlink:href="#b" x="52.996" y="6.488"/><use xlink:href="#1"/><use xlink:href="#2" y="2.171"/><use xlink:href="#5" y="6.513"/></svg><svg x="5360"><use xlink:href="#a"/><use xlink:href="#b" x="52.996" y="6.488"/><use xlink:href="#1"/><use xlink:href="#2" y="2.171"/><use xlink:href="#5" y="6.513"/></svg><svg x="5440"><use xlink:href="#a"/><use xlink:href="#b" x="-.004" y="8.659"/><use xlink:href="#1"/><use xlink:href="#2" y="2.171"/><use xlink:href="#5" y="6.513"/></svg><svg x="5520"><use xlink:href="#a"/><use xlink:href="#b" x="-.004" y="10.83"/><use xlink:href="#1"/><use xlink:href="#2" y="2.171"/><use xlink:href="#5" y="6.513"/></svg><svg x="5600"><use xlink:href="#a"/><use xlink:href="#b" x="-.004" y="13.001"/><use xlink:href="#1"/><use xlink:href="#2" y="2.171"/><use xlink:href="#5" y="6.513"/><use xlink:href="#6" y="10.855"/></svg><svg x="5680"><use xlink:href="#a"/><use xlink:href="#b" x="-.004" y="15.172"/><use xlink:href="#1"/><use xlink:href="#2" y="2.171"/><use xlink:href="#5" y="6.513"/><use xlink:href="#6" y="10.855"/></svg><svg x="5760"><use xlink:href="#a"/><use xlink:href="#b" x="-.004" y="17.343"/><use xlink:href="#1"/><use xlink:href="#2" y="2.171"/><use xlink:href="#5" y="6.513"/><use xlink:href="#6" y="10.855"/><use xlink:href="#7" y="15.197"/></svg><svg x="5840"><use xlink:href="#a"/><use xlink:href="#b" x="-.004" y="19.514"/><use xlink:href="#1"/><use xlink:href="#2" y="2.171"/><use xlink:href="#5" y="6.513"/><use xlink:href="#6" y="10.855"/><use xlink:href="#7" y="15.197"/><use xlink:href="#8" y="17.368"/></svg><svg x="5920"><use xlink:href="#a"/><use xlink:href="#b" x="-.004" y="21.685"/><use xlink:href="#1"/><use xlink:href="#2" y="2.171"/><use xlink:href="#5" y="6.513"/><use xlink:href="#6" y="10.855"/><use xlink:href="#7" y="15.197"/><use xlink:href="#8" y="17.368"/></svg><svg x="6000"><use xlink:href="#a"/><use xlink:href="#b" x="-.004" y="23.856"/><use xlink:href="#1"/><use xlink:href="#2" y="2.171"/><use xlink:href="#5" y="6.513"/><use xlink:href="#6" y="10.855"/><use xlink:href="#7" y="15.197"/><use xlink:href="#8" y="17.368"/><use xlink:href="#9" y="21.71"/></svg><svg x="6080"><use xlink:href="#a"/><use xlink:href="#b" x="-.004" y="26.027"/><use xlink:href="#1"/><use xlink:href="#2" y="2.171"/><use xlink:href="#5" y="6.513"/><use xlink:href="#6" y="10.855"/><use xlink:href="#7" y="15.197"/><use xlink:href="#8" y="17.368"/><use xlink:href="#9" y="21.71"/><use xlink:href="#10" y="23.881"/></svg><svg x="6160"><use xlink:href="#a"/><use xlink:href="#b" x="-.004" y="28.198"/><use xlink:href="#1"/><use xlink:href="#2" y="2.171"/><use xlink:href="#5" y="6.513"/><use xlink:href="#6" y="10.855"/><use xlink:href="#7" y="15.197"/><use xlink:href="#8" y="17.368"/><use xlink:href="#9" y="21.71"/><use xlink:href="#10" y="23.881"/><use xlink:href="#11" y="26.052"/></svg><svg x="6240"><use xlink:href="#a"/><use xlink:href="#b" x="-.004" y="30.369"/><use xlink:href="#1"/><use xlink:href="#2" y="2.171"/><use xlink:href="#5" y="6.513"/><use xlink:href="#6" y="10.855"/><use xlink:href="#7" y="15.197"/><use xlink:href="#8" y="17.368"/><use xlink:href="#9" y="21.71"/><use xlink:href="#10" y="23.881"/><use xlink:href="#11" y="26.052"/><use xlink:href="#12" y="28.223"/></svg><svg x="6320"><use xlink:href="#a"/><use xlink:href="#b" x="-.004" y="32.54"/><use xlink:href="#1"/><use xlink:href="#2" y="2.171"/><use xlink:href="#5" y="6.513"/><use xlink:href="#6" y="10.855"/><use xlink:href="#7" y="15.197"/><use xlink:href="#8" y="17.368"/><use xlink:href="#9" y="21.71"/><use xlink:href="#10" y="23.881"/><use xlink:href="#11" y="26.052"/><use xlink:href="#12" y="28.223"/><use xlink:href="#13" y="30.394"/></svg><svg x="6400"><use xlink:href="#a"/><use xlink:href="#b" x="-.004" y="34.711"/><use xlink:href="#1"/><use xlink:href="#2" y="2.171"/><use xlink:href="#5" y="6.513"/><use xlink:href="#6" y="10.855"/><use xlink:href="#7" y="15.197"/><use xlink:href="#8" y="17.368"/><use xlink:href="#9" y="21.71"/><use xlink:href="#10" y="23.881"/><use xlink:href="#11" y="26.052"/><use xlink:href="#12" y="28.223"/><use xlink:href="#13" y="30.394"/></svg><svg x="6480"><use xlink:href="#a"/><use xlink:href="#b" x="-.004" y="36.882"/><use xlink:href="#1"/><use xlink:href="#2" y="2.171"/><use xlink:href="#5" y="6.513"/><use xlink:href="#6" y="10.855"/><use xlink:href="#7" y="15.197"/><use xlink:href="#8" y="17.368"/><use xlink:href="#9" y="21.71"/><use xlink:href="#10" y="23.881"/><use xlink:href="#11" y="26.052"/><use xlink:href="#12" y="28.223"/><use xlink:href="#13" y="30.394"/><use xlink:href="#14" y="34.736"/></svg><svg x="6560"><use xlink:href="#a"/><use xlink:href="#b" x="-.004" y="39.053"/><use xlink:href="#1"/><use xlink:href="#2" y="2.171"/><use xlink:href="#5" y="6.513"/><use xlink:href="#6" y="10.855"/><use xlink:href="#7" y="15.197"/><use xlink:href="#8" y="17.368"/><use xlink:href="#9" y="21.71"/><use xlink:href="#10" y="23.881"/><use xlink:href="#11" y="26.052"/><use xlink:href="#12" y="28.223"/><use xlink:href="#13" y="30.394"/><use xlink:href="#14" y="34.736"/><use xlink:href="#15" y="36.907"/></svg><svg x="6640"><use xlink:href="#a"/><use xlink:href="#b" x="-.004" y="41.224"/><use xlink:href="#1"/><use xlink:href="#2" y="2.171"/><use xlink:href="#5" y="6.513"/><use xlink:href="#6" y="10.855"/><use xlink:href="#7" y="15.197"/><use xlink:href="#8" y="17.368"/><use xlink:href="#9" y="21.71"/><use xlink:href="#10" y="23.881"/><use xlink:href="#11" y="26.052"/><use xlink:href="#12" y="28.223"/><use xlink:href="#13" y="30.394"/><use xlink:href="#14" y="34.736"/><use xlink:href="#15" y="36.907"/><use xlink:href="#16" y="39.078"/></svg><svg x="6720"><use xlink:href="#a"/><use xlink:href="#b" x="-.004" y="43.395"/><use xlink:href="#1"/><use xlink:href="#2" y="2.171"/><use xlink:href="#5" y="6.513"/><use xlink:href="#6" y="10.855"/><use xlink:href="#7" y="15.197"/><use xlink:href="#8" y="17.368"/><use xlink:href="#9" y="21.71"/><use xlink:href="#10" y="23.881"/><use xlink:href="#11" y="26.052"/><use xlink:href="#12" y="28.223"/><use xlink:href="#13" y="30.394"/><use xlink:href="#14" y="34.736"/><use xlink:href="#15" y="36.907"/><use xlink:href="#16" y="39.078"/><use xlink:href="#17" y="41.249"/></svg><svg x="6800"><use xlink:href="#a"/><use xlink:href="#b" x="-.004" y="45.566"/><use xlink:href="#1"/><use xlink:href="#2" y="2.171"/><use xlink:href="#5" y="6.513"/><use xlink:href="#6" y="10.855"/><use xlink:href="#7" y="15.197"/><use xlink:href="#8" y="17.368"/><use xlink:href="#9" y="21.71"/><use xlink:href="#10" y="23.881"/><use xlink:href="#11" y="26.052"/><use xlink:href="#12" y="28.223"/><use xlink:href="#13" y="30.394"/><use xlink:href="#14" y="34.736"/><use xlink:href="#15" y="36.907"/><use xlink:href="#16" y="39.078"/><use xlink:href="#17" y="41.249"/><use xlink:href="#18" y="43.42"/></svg><svg x="6880"><use xlink:href="#a"/><use xlink:href="#b" x="-.004" y="47.737"/><use xlink:href="#1"/><use xlink:href="#2" y="2.171"/><use xlink:href="#5" y="6.513"/><use xlink:href="#6" y="10.855"/><use xlink:href="#7" y="15.197"/><use xlink:href="#8" y="17.368"/><use xlink:href="#9" y="21.71"/><use xlink:href="#10" y="23.881"/><use xlink:href="#11" y="26.052"/><use xlink:href="#12" y="28.223"/><use xlink:href="#13" y="30.394"/><use xlink:href="#14" y="34.736"/><use xlink:href="#15" y="36.907"/><use xlink:href="#16" y="39.078"/><use xlink:href="#17" y="41.249"/><use xlink:href="#18" y="43.42"/><use xlink:href="#19" y="45.591"/></svg><svg x="6960"><use xlink:href="#a"/><use xlink:href="#b" x="-.004" y="49.908"/><use xlink:href="#1"/><use xlink:href="#2" y="2.171"/><use xlink:href="#5" y="6.513"/><use xlink:href="#6" y="10.855"/><use xlink:href="#7" y="15.197"/><use xlink:href="#8" y="17.368"/><use xlink:href="#9" y="21.71"/><use xlink:href="#10" y="23.881"/><use xlink:href="#11" y="26.052"/><use xlink:href="#12" y="28.223"/><use xlink:href="#13" y="30.394"/><use xlink:href="#14" y="34.736"/><use xlink:href="#15" y="36.907"/><use xlink:href="#16" y="39.078"/><use xlink:href="#17" y="41.249"/><use xlink:href="#18" y="43.42"/><use xlink:href="#19" y="45.591"/><use xlink:href="#15" y="47.762"/></svg><svg x="7040"><use xlink:href="#a"/><use xlink:href="#b" x="-.004" y="52.079"/><use xlink:href="#1"/><use xlink:href="#2" y="2.171"/><use xlink:href="#5" y="6.513"/><use xlink:href="#6" y="10.855"/><use xlink:href="#7" y="15.197"/><use xlink:href="#8" y="17.368"/><use xlink:href="#9" y="21.71"/><use xlink:href="#10" y="23.881"/><use xlink:href="#11" y="26.052"/><use xlink:href="#12" y="28.223"/><use xlink:href="#13" y="30.394"/><use xlink:href="#14" y="34.736"/><use xlink:href="#15" y="36.907"/><use xlink:href="#16" y="39.078"/><use xlink:href="#17" y="41.249"/><use xlink:href="#18" y="43.42"/><use xlink:href="#19" y="45.591"/><use xlink:href="#15" y="47.762"/></svg><svg x="7120"><use xlink:href="#a"/><use xlink:href="#b" x="-.004" y="52.079"/><use xlink:href="#2"/><use xlink:href="#5" y="4.342"/><use xlink:href="#6" y="8.684"/><use xlink:href="#7" y="13.026"/><use xlink:href="#8" y="15.197"/><use xlink:href="#9" y="19.539"/><use xlink:href="#10" y="21.71"/><use xlink:href="#11" y="23.881"/><use xlink:href="#12" y="26.052"/><use xlink:href="#13" y="28.223"/><use xlink:href="#14" y="32.565"/><use xlink:href="#15" y="34.736"/><use xlink:href="#16" y="36.907"/><use xlink:href="#17" y="39.078"/><use xlink:href="#18" y="41.249"/><use xlink:href="#19" y="43.42"/><use xlink:href="#15" y="45.591"/><use xlink:href="#20" y="49.933"/></svg><svg x="7200"><use xlink:href="#a"/><use xlink:href="#b" x="-.004" y="52.079"/><use xlink:href="#5" y="2.171"/><use xlink:href="#6" y="6.513"/><use xlink:href="#7" y="10.855"/><use xlink:href="#8" y="13.026"/><use xlink:href="#9" y="17.368"/><use xlink:href="#10" y="19.539"/><use xlink:href="#11" y="21.71"/><use xlink:href="#12" y="23.881"/><use xlink:href="#13" y="26.052"/><use xlink:href="#14" y="30.394"/><use xlink:href="#15" y="32.565"/><use xlink:href="#16" y="34.736"/><use xlink:href="#17" y="36.907"/><use xlink:href="#18" y="39.078"/><use xlink:href="#19" y="41.249"/><use xlink:href="#15" y="43.42"/><use xlink:href="#20" y="47.762"/><use xlink:href="#21" y="49.933"/></svg><svg x="7280"><use xlink:href="#a"/><use xlink:href="#b" x="-.004" y="52.079"/><use xlink:href="#5"/><use xlink:href="#6" y="4.342"/><use xlink:href="#7" y="8.684"/><use xlink:href="#8" y="10.855"/><use xlink:href="#9" y="15.197"/><use xlink:href="#10" y="17.368"/><use xlink:href="#11" y="19.539"/><use xlink:href="#12" y="21.71"/><use xlink:href="#13" y="23.881"/><use xlink:href="#14" y="28.223"/><use xlink:href="#15" y="30.394"/><use xlink:href="#16" y="32.565"/><use xlink:href="#17" y="34.736"/><use xlink:href="#18" y="36.907"/><use xlink:href="#19" y="39.078"/><use xlink:href="#15" y="41.249"/><use xlink:href="#20" y="45.591"/><use xlink:href="#21" y="47.762"/></svg><svg x="7360"><use xlink:href="#a"/><use xlink:href="#b" x="-.004" y="52.079"/><use xlink:href="#6" y="2.171"/><use xlink:href="#7" y="6.513"/><use xlink:href="#8" y="8.684"/><use xlink:href="#9" y="13.026"/><use xlink:href="#10" y="15.197"/><use xlink:href="#11" y="17.368"/><use xlink:href="#12" y="19.539"/><use xlink:href="#13" y="21.71"/><use xlink:href="#14" y="26.052"/><use xlink:href="#15" y="28.223"/><use xlink:href="#16" y="30.394"/><use xlink:href="#17" y="32.565"/><use xlink:href="#18" y="34.736"/><use xlink:href="#19" y="36.907"/><use xlink:href="#15" y="39.078"/><use xlink:href="#20" y="43.42"/><use xlink:href="#21" y="45.591"/></svg><svg x="7440"><use xlink:href="#a"/><use xlink:href="#b" x="-.004" y="52.079"/><use xlink:href="#6" y="2.171"/><use xlink:href="#7" y="6.513"/><use xlink:href="#8" y="8.684"/><use xlink:href="#9" y="13.026"/><use xlink:href="#10" y="15.197"/><use xlink:href="#11" y="17.368"/><use xlink:href="#12" y="19.539"/><use xlink:href="#13" y="21.71"/><use xlink:href="#14" y="26.052"/><use xlink:href="#15" y="28.223"/><use xlink:href="#16" y="30.394"/><use xlink:href="#17" y="32.565"/><use xlink:href="#18" y="34.736"/><use xlink:href="#19" y="36.907"/><use xlink:href="#15" y="39.078"/><use xlink:href="#20" y="43.42"/><use xlink:href="#21" y="45.591"/></svg></svg></g></g></svg></svg>