<svg xmlns="http://www.w3.org/2000/svg" xmlns:xlink="http://www.w3.org/1999/xlink" width="1040" height="711.3"><rect width="1040" height="711.3" rx="5" ry="5" class="a"/><svg y="0%" x="0%"><circle cx="20" cy="20" r="6" fill="#ff5f58"/><circle cx="40" cy="20" r="6" fill="#ffbd2e"/><circle cx="60" cy="20" r="6" fill="#18c132"/></svg><svg height="651.3" viewBox="0 0 100 65.13" width="1000" x="15" xmlns="http://www.w3.org/2000/svg" xmlns:xlink="http://www.w3.org/1999/xlink" y="50"><style>.a{fill:#282d35}.f,.i,.j{fill:#b9c0cb;white-space:pre}.i,.j{fill:#66c2cd}.j{fill:#b9c0cb;font-weight:700}.k,.l{fill:#a8cc8c;white-space:pre}.l,.m{font-weight:700}.m,.n{fill:#e88388;white-space:pre}</style><g font-family="Monaco,Consolas,Menlo,'Bitstream Vera Sans Mono','Powerline Symbols',monospace" font-size="1.67"><defs><symbol id="1"><text y="1.67" class="f">━━━━━━━━━━━━━━━━━━━━━━━━━━━━━━━━━━━━━━━━━━━━━━━━━━━━━━━━━━━━━━━━━━</text></symbol><symbol id="a"><path fill="transparent" d="M0 0h100v31H0z"/></symbol><symbol id="b"><path fill="#6f7683" d="M0 0h1.102v2.171H0z"/></symbol></defs><path class="a" d="M0 0h100v65.13H0z"/><svg width="100"><svg><use xlink:href="#a"/><use xlink:href="#b" x="-.004" y="65.105"/><text y="3.841" class="f">[</text><text x="1.002" y="3.841" class="i">traigent-validate</text><text x="18.036" y="3.841" class="f">]</text><text x="20.04" y="3.841" class="f">Checking</text><text x="29.058" y="3.841" class="f">agent</text><text x="35.07" y="3.841" class="f">configurations...</text><text x="2.004" y="6.012" class="f">Found</text><text x="8.016" y="6.012" class="f">1</text><text x="10.02" y="6.012" class="f">decorated</text><text x="20.04" y="6.012" class="f">function:</text><text x="30.06" y="6.012" class="j">support_agent</text><text x="2.004" y="8.183" class="f">Model:</text><text x="9.018" y="8.183" class="f">gpt-4o-mini</text><text x="21.042" y="8.183" class="f">.............</text><text x="35.07" y="8.183" class="k">✓</text><text x="37.074" y="8.183" class="k">ALLOWED</text><text x="2.004" y="10.354" class="f">Est.</text><text x="7.014" y="10.354" class="f">cost:</text><text x="13.026" y="10.354" class="f">$0.008/query</text><text x="26.052" y="10.354" class="f">........</text><text x="35.07" y="10.354" class="k">✓</text><text x="37.074" y="10.354" class="k">WITHIN</text><text x="44.088" y="10.354" class="k">BUDGET</text><text y="14.696" class="f">[</text><text x="1.002" y="14.696" class="i">traigent-performance</text><text x="21.042" y="14.696" class="f">]</text><text x="23.046" y="14.696" class="f">Checking</text><text x="32.064" y="14.696" class="f">performance</text><text x="44.088" y="14.696" class="f">baseline...</text><text x="2.004" y="16.867" class="f">Accuracy:</text><text x="12.024" y="16.867" class="f">0.89</text><text x="17.034" y="16.867" class="f">.................</text><text x="35.07" y="16.867" class="k">✓</text><text x="37.074" y="16.867" class="k">PASSES</text><text x="44.088" y="16.867" class="f">(min:</text><text x="50.1" y="16.867" class="f">0.85)</text><text x="2.004" y="19.038" class="f">Latency:</text><text x="11.022" y="19.038" class="f">120ms</text><text x="17.034" y="19.038" class="f">.................</text><text x="35.07" y="19.038" class="k">✓</text><text x="37.074" y="19.038" class="k">PASSES</text><text x="44.088" y="19.038" class="f">(max:</text><text x="50.1" y="19.038" class="f">500ms)</text><text y="23.38" class="l">✓</text><text x="2.004" y="23.38" class="l">All</text><text x="6.012" y="23.38" class="l">Traigent</text><text x="15.03" y="23.38" class="l">hooks</text><text x="21.042" y="23.38" class="l">passed!</text><text y="25.551" class="f">Pushing</text><text x="8.016" y="25.551" class="f">to</text><text x="11.022" y="25.551" class="f">origin/main...</text><use xlink:href="#1" y="28.223"/><text y="32.064" class="m">#</text><text x="2.004" y="32.064" class="m">Step</text><text x="7.014" y="32.064" class="m">4:</text><text x="10.02" y="32.064" class="m">Push</text><text x="15.03" y="32.064" class="m">an</text><text x="18.036" y="32.064" class="m">INVALID</text><text x="26.052" y="32.064" class="m">configuration</text><use xlink:href="#1" y="32.565"/><text y="38.577" class="i">@traigent.optimize</text><text x="18.036" y="38.577" class="f">(</text><text x="4.008" y="40.748" class="f">configuration_space={</text><text x="8.016" y="42.919" class="n">&quot;model&quot;</text><text x="15.03" y="42.919" class="f">:</text><text x="17.034" y="42.919" class="f">[&quot;gpt-4-32k&quot;],</text><text x="39.078" y="42.919" class="n">#</text><text x="41.082" y="42.919" class="n">BLOCKED</text><text x="49.098" y="42.919" class="n">model!</text><text x="8.016" y="45.09" class="n">&quot;temperature&quot;</text><text x="21.042" y="45.09" class="f">:</text><text x="23.046" y="45.09" class="f">[0.9]</text><text x="4.008" y="47.261" class="f">}</text><text y="49.432" class="f">)</text><text y="51.603" style="white-space:pre" fill="#71bef2">def</text><text x="4.008" y="51.603" style="white-space:pre" fill="#dbab79" font-weight="700">expensive_agent</text><text x="19.038" y="51.603" class="f">(query:</text><text x="27.054" y="51.603" class="f">str)</text><text x="32.064" y="51.603" class="f">-&gt;</text><text x="35.07" y="51.603" class="f">str:</text><text x="4.008" y="53.774" class="f">llm</text><text x="8.016" y="53.774" class="f">=</text><text x="10.02" y="53.774" class="f">ChatOpenAI(model=</text><text x="27.054" y="53.774" class="n">&quot;gpt-4-32k&quot;</text><text x="38.076" y="53.774" class="f">,</text><text x="40.08" y="53.774" class="f">temperature=</text><text x="52.104" y="53.774" class="i">0.9</text><text x="55.11" y="53.774" class="f">)</text><text x="4.008" y="55.945" style="white-space:pre" fill="#d290e4">return</text><text x="11.022" y="55.945" class="f">llm.invoke(query).content</text><text y="60.287" class="f">$</text><text x="2.004" y="60.287" class="j">git</text><text x="6.012" y="60.287" class="j">commit</text><text x="13.026" y="60.287" class="j">-m</text><text x="16.032" y="60.287" class="j">&quot;Add</text><text x="21.042" y="60.287" class="j">expensive</text><text x="31.062" y="60.287" class="j">agent&quot;</text><text y="62.458" class="f">$</text><text x="2.004" y="62.458" class="j">git</text><text x="6.012" y="62.458" class="j">push</text><text x="11.022" y="62.458" class="j">origin</text><text x="18.036" y="62.458" class="j">main</text></svg></svg></g></svg></svg>
