<svg xmlns="http://www.w3.org/2000/svg" xmlns:xlink="http://www.w3.org/1999/xlink" width="1040" height="711.3"><rect width="1040" height="711.3" rx="5" ry="5" class="a"/><svg y="0%" x="0%"><circle cx="20" cy="20" r="6" fill="#ff5f58"/><circle cx="40" cy="20" r="6" fill="#ffbd2e"/><circle cx="60" cy="20" r="6" fill="#18c132"/></svg><svg height="651.3" viewBox="0 0 100 65.13" width="1000" x="15" xmlns="http://www.w3.org/2000/svg" xmlns:xlink="http://www.w3.org/1999/xlink" y="50"><style>.a{fill:#282d35}.f{fill:#b9c0cb;white-space:pre}.i,.j{fill:#a8cc8c}.i{white-space:pre}.j{font-weight:700}.j,.k,.l,.m,.o{white-space:pre}.k{fill:#66c2cd;font-weight:700}.l,.m,.o{fill:#d290e4}.m,.o{fill:#71bef2}.o{fill:#66c2cd}</style><g font-family="Monaco,Consolas,Menlo,'Bitstream Vera Sans Mono','Powerline Symbols',monospace" font-size="1.67"><defs><symbol id="1"><text y="1.67" class="f">━━━━━━━━━━━━━━━━━━━━━━━━━━━━━━━━━━━━━━━━━━━━━━━━━━━━━━━━━━━━━━━━━━</text></symbol><symbol id="a"><path fill="transparent" d="M0 0h100v31H0z"/></symbol><symbol id="b"><path fill="#6f7683" d="M0 0h1.102v2.171H0z"/></symbol></defs><path class="a" d="M0 0h100v65.13H0z"/><svg width="100"><svg><use xlink:href="#a"/><use xlink:href="#b" x="-.004" y="65.105"/><text y="1.67" class="f">[</text><text x="1.002" y="1.67" class="i">██████████</text><text x="11.022" y="1.67" class="f">░░░░░░░░░░░░░░░░░░░░░░░░░░░░░░░░░░░░░░░░]</text><text x="54.108" y="1.67" class="f">20%</text><text x="58.116" y="1.67" class="f">(1/5)</text><text x="64.128" y="1.67" class="f">Best:</text><text x="70.14" y="1.67" class="f">0.72</text><text y="3.841" class="f">[</text><text x="1.002" y="3.841" class="i">████████████████████</text><text x="21.042" y="3.841" class="f">░░░░░░░░░░░░░░░░░░░░░░░░░░░░░░]</text><text x="54.108" y="3.841" class="f">40%</text><text x="58.116" y="3.841" class="f">(2/5)</text><text x="64.128" y="3.841" class="f">Best:</text><text x="70.14" y="3.841" class="i">0.78</text><text y="6.012" class="f">[</text><text x="1.002" y="6.012" class="i">██████████████████████████████</text><text x="31.062" y="6.012" class="f">░░░░░░░░░░░░░░░░░░░░]</text><text x="54.108" y="6.012" class="f">60%</text><text x="58.116" y="6.012" class="f">(3/5)</text><text x="64.128" y="6.012" class="f">Best:</text><text x="70.14" y="6.012" class="i">0.85</text><text y="8.183" class="f">[</text><text x="1.002" y="8.183" class="i">████████████████████████████████████████</text><text x="41.082" y="8.183" class="f">░░░░░░░░░░]</text><text x="54.108" y="8.183" class="f">80%</text><text x="58.116" y="8.183" class="f">(4/5)</text><text x="64.128" y="8.183" class="f">Best:</text><text x="70.14" y="8.183" class="f">0.85</text><text y="10.354" class="f">[</text><text x="1.002" y="10.354" class="i">██████████████████████████████████████████████████</text><text x="51.102" y="10.354" class="f">]</text><text x="53.106" y="10.354" class="f">100%</text><text x="58.116" y="10.354" class="f">(5/5)</text><text x="64.128" y="10.354" class="f">Best:</text><text x="70.14" y="10.354" class="j">0.89</text><text y="14.696" class="i">✓</text><text x="2.004" y="14.696" class="f">Optimization</text><text x="15.03" y="14.696" class="f">complete!</text><text x="25.05" y="14.696" class="f">Best</text><text x="30.06" y="14.696" class="f">score:</text><text x="37.074" y="14.696" class="j">0.89</text><use xlink:href="#1" y="17.368"/><text y="21.209" class="k">#</text><text x="2.004" y="21.209" class="k">Creating</text><text x="11.022" y="21.209" class="k">a</text><text x="13.026" y="21.209" class="k">Custom</text><text x="20.04" y="21.209" class="k">Callback</text><use xlink:href="#1" y="21.71"/><text y="27.722" class="l">from</text><text x="5.01" y="27.722" class="f">traigent.utils.callbacks</text><text x="30.06" y="27.722" class="l">import</text><text x="37.074" y="27.722" class="f">OptimizationCallback</text><text y="32.064" class="m">class</text><text x="6.012" y="32.064" style="white-space:pre" fill="#dbab79" font-weight="700">SlackNotificationCallback</text><text x="31.062" y="32.064" class="f">(OptimizationCallback):</text><text x="4.008" y="34.235" class="f">&quot;&quot;&quot;Send</text><text x="12.024" y="34.235" class="f">Slack</text><text x="18.036" y="34.235" class="f">notifications</text><text x="32.064" y="34.235" class="f">on</text><text x="35.07" y="34.235" class="f">optimization</text><text x="48.096" y="34.235" class="f">events.&quot;&quot;&quot;</text><text x="4.008" y="38.577" class="m">def</text><text x="8.016" y="38.577" class="o">on_optimization_start</text><text x="29.058" y="38.577" class="f">(self,</text><text x="36.072" y="38.577" class="f">config_space,</text><text x="50.1" y="38.577" class="f">objectives,</text><text x="62.124" y="38.577" class="f">algorithm):</text><text x="8.016" y="40.748" class="f">slack.post(f</text><text x="20.04" y="40.748" class="i">&quot;🚀</text><text x="24.048" y="40.748" class="i">Optimization</text><text x="37.074" y="40.748" class="i">started:</text><text x="46.092" y="40.748" class="i">{algorithm}&quot;</text><text x="58.116" y="40.748" class="f">)</text><text x="4.008" y="45.09" class="m">def</text><text x="8.016" y="45.09" class="o">on_trial_complete</text><text x="25.05" y="45.09" class="f">(self,</text><text x="32.064" y="45.09" class="f">trial,</text><text x="39.078" y="45.09" class="f">progress):</text><text x="8.016" y="47.261" class="l">if</text><text x="11.022" y="47.261" class="f">progress.best_score</text><text x="31.062" y="47.261" class="l">and</text><text x="35.07" y="47.261" class="f">progress.best_score</text><text x="55.11" y="47.261" class="f">&gt;</text><text x="57.114" y="47.261" class="o">0.9</text><text x="60.12" y="47.261" class="f">:</text><text x="12.024" y="49.432" class="f">slack.post(f</text><text x="24.048" y="49.432" class="i">&quot;🎯</text><text x="28.056" y="49.432" class="i">New</text><text x="32.064" y="49.432" class="i">best</text><text x="37.074" y="49.432" class="i">score:</text><text x="44.088" y="49.432" class="i">{progress.best_score:.1%}&quot;</text><text x="70.14" y="49.432" class="f">)</text><text x="4.008" y="53.774" class="m">def</text><text x="8.016" y="53.774" class="o">on_optimization_complete</text><text x="32.064" y="53.774" class="f">(self,</text><text x="39.078" y="53.774" class="f">result):</text><text x="8.016" y="55.945" class="f">slack.post(f</text><text x="20.04" y="55.945" class="i">&quot;✅</text><text x="23.046" y="55.945" class="i">Done!</text><text x="29.058" y="55.945" class="i">Best:</text><text x="35.07" y="55.945" class="i">{result.best_config}&quot;</text><text x="56.112" y="55.945" class="f">)</text><use xlink:href="#1" y="58.617"/><text y="62.458" class="k">#</text><text x="2.004" y="62.458" class="k">Parameter</text><text x="12.024" y="62.458" class="k">Importance</text><text x="23.046" y="62.458" class="k">Analysis</text><use xlink:href="#1" y="62.959"/></svg></svg></g></svg></svg>
