<svg xmlns="http://www.w3.org/2000/svg" xmlns:xlink="http://www.w3.org/1999/xlink" width="840" height="581.04"><rect width="840" height="581.04" rx="5" ry="5" class="a"/><svg y="0%" x="0%"><circle cx="20" cy="20" r="6" fill="#ff5f58"/><circle cx="40" cy="20" r="6" fill="#ffbd2e"/><circle cx="60" cy="20" r="6" fill="#18c132"/></svg><svg height="521.04" viewBox="0 0 80 52.104" width="800" x="15" xmlns="http://www.w3.org/2000/svg" xmlns:xlink="http://www.w3.org/1999/xlink" y="50"><style>@keyframes p{0%{transform:translateX(-80px)}1.4%{transform:translateX(-160px)}2.7%{transform:translateX(-240px)}3.6%{transform:translateX(-320px)}4.2%{transform:translateX(-400px)}4.7%{transform:translateX(-480px)}5.3%{transform:translateX(-560px)}5.9%{transform:translateX(-640px)}6.4%{transform:translateX(-720px)}7%{transform:translateX(-800px)}7.6%{transform:translateX(-880px)}8.1%{transform:translateX(-960px)}8.7%{transform:translateX(-1040px)}9.2%{transform:translateX(-1120px)}9.8%{transform:translateX(-1200px)}10.4%{transform:translateX(-1280px)}10.9%{transform:translateX(-1360px)}11.5%{transform:translateX(-1440px)}12.1%{transform:translateX(-1520px)}12.6%{transform:translateX(-1600px)}13.2%{transform:translateX(-1680px)}13.8%{transform:translateX(-1760px)}14.3%{transform:translateX(-1840px)}14.9%{transform:translateX(-1920px)}15.4%{transform:translateX(-2000px)}16%{transform:translateX(-2080px)}16.6%{transform:translateX(-2160px)}17.1%{transform:translateX(-2240px)}17.7%{transform:translateX(-2320px)}18.3%{transform:translateX(-2400px)}18.8%{transform:translateX(-2480px)}19.4%{transform:translateX(-2560px)}20%{transform:translateX(-2640px)}20.5%{transform:translateX(-2720px)}21.1%{transform:translateX(-2800px)}21.6%{transform:translateX(-2880px)}22.2%{transform:translateX(-2960px)}22.8%{transform:translateX(-3040px)}23.3%{transform:translateX(-3120px)}23.9%{transform:translateX(-3200px)}24.5%{transform:translateX(-3280px)}25%{transform:translateX(-3360px)}25.6%{transform:translateX(-3440px)}26.2%{transform:translateX(-3520px)}26.7%{transform:translateX(-3600px)}27.3%{transform:translateX(-3680px)}27.8%{transform:translateX(-3760px)}28.4%{transform:translateX(-3840px)}29%{transform:translateX(-3920px)}29.5%{transform:translateX(-4000px)}30.1%{transform:translateX(-4080px)}30.7%{transform:translateX(-4160px)}31.2%{transform:translateX(-4240px)}31.8%{transform:translateX(-4320px)}32.4%{transform:translateX(-4400px)}32.9%{transform:translateX(-4480px)}33.5%{transform:translateX(-4560px)}34%{transform:translateX(-4640px)}34.6%{transform:translateX(-4720px)}35.2%{transform:translateX(-4800px)}35.7%{transform:translateX(-4880px)}36.3%{transform:translateX(-4960px)}36.9%{transform:translateX(-5040px)}37.4%{transform:translateX(-5120px)}38%{transform:translateX(-5200px)}38.6%{transform:translateX(-5280px)}43.6%{transform:translateX(-5360px)}50.4%{transform:translateX(-5440px)}51.3%{transform:translateX(-5520px)}52.6%{transform:translateX(-5600px)}54%{transform:translateX(-5680px)}54.9%{transform:translateX(-5760px)}56.3%{transform:translateX(-5840px)}57.6%{transform:translateX(-5920px)}59%{transform:translateX(-6000px)}60.3%{transform:translateX(-6080px)}61.7%{transform:translateX(-6160px)}62.6%{transform:translateX(-6240px)}63.9%{transform:translateX(-6320px)}65.3%{transform:translateX(-6400px)}66.6%{transform:translateX(-6480px)}68%{transform:translateX(-6560px)}69.3%{transform:translateX(-6640px)}70.7%{transform:translateX(-6720px)}72%{transform:translateX(-6800px)}72.9%{transform:translateX(-6880px)}74.3%{transform:translateX(-6960px)}75.6%{transform:translateX(-7040px)}76.6%{transform:translateX(-7120px)}to{transform:translateX(-7200px)}}.a{fill:#282d35}.f,.g{white-space:pre}.f{fill:#71bef2;font-weight:700}.g{fill:#b9c0cb}.h,.i{font-weight:700}.h{fill:#dbab79;white-space:pre}.i{fill:#66c2cd}.i,.j,.k,.l,.m{white-space:pre}.j{fill:#b9c0cb;font-weight:700}.k,.l,.m{fill:#e88388}.l,.m{fill:#a8cc8c}.m{font-weight:700}</style><g font-family="Monaco,Consolas,Menlo,'Bitstream Vera Sans Mono','Powerline Symbols',monospace" font-size="1.67"><defs><symbol id="1"><text y="1.67" class="f">Cold</text><text x="5.01" y="1.67" class="f">outreach</text><text x="14.028" y="1.67" class="f">-&gt;</text><text x="17.034" y="1.67" class="f">high-quality</text><text x="30.06" y="1.67" class="f">emails,</text><text x="38.076" y="1.67" class="f">auto-optimized</text></symbol><symbol id="2"><text y="1.67" class="g">GTM</text><text x="4.008" y="1.67" class="g">&amp;</text><text x="6.012" y="1.67" class="g">Acquisition</text><text x="18.036" y="1.67" class="g">Agent</text><text x="24.048" y="1.67" class="g">|</text><text x="26.052" y="1.67" class="g">LLM-as-Judge</text><text x="39.078" y="1.67" class="g">Evaluation</text></symbol><symbol id="3"><text y="1.67" class="g">$</text></symbol><symbol id="4"><text y="1.67" class="g">$</text><text x="2.004" y="1.67" class="h">python</text></symbol><symbol id="5"><text y="1.67" class="g">$</text><text x="2.004" y="1.67" class="h">python</text><text x="9.018" y="1.67" class="h">use-cases/gtm-acquisition/eval/evaluator.py</text></symbol><symbol id="6"><text y="1.67" class="i">OPTIMIZATION</text><text x="13.026" y="1.67" class="i">RUN</text><text x="16.032" y="1.67" class="g">:</text><text x="18.036" y="1.67" class="g">Testing</text><text x="26.052" y="1.67" class="g">Different</text><text x="36.072" y="1.67" class="g">Prompt</text><text x="43.086" y="1.67" class="g">Configurations</text></symbol><symbol id="7"><text y="1.67" class="g">Configs:</text><text x="9.018" y="1.67" class="j">5</text><text x="11.022" y="1.67" class="g">|</text><text x="13.026" y="1.67" class="g">Examples:</text><text x="23.046" y="1.67" class="j">10</text><text x="26.052" y="1.67" class="g">|</text><text x="28.056" y="1.67" class="g">Dataset:</text><text x="37.074" y="1.67" class="j">218</text><text x="41.082" y="1.67" class="j">lead</text><text x="46.092" y="1.67" class="j">profiles</text></symbol><symbol id="8"><text y="1.67" class="g">[1/5]</text><text x="6.012" y="1.67" class="g">baseline</text><text x="21.042" y="1.67" class="g">...</text><text x="25.05" y="1.67" class="g">quality=</text><text x="33.066" y="1.67" class="h">0.67</text><text x="38.076" y="1.67" class="g">compliance=</text><text x="49.098" y="1.67" class="k">84%</text></symbol><symbol id="9"><text y="1.67" class="g">[2/5]</text><text x="6.012" y="1.67" class="g">formal</text><text x="21.042" y="1.67" class="g">...</text><text x="25.05" y="1.67" class="g">quality=</text><text x="33.066" y="1.67" class="h">0.71</text><text x="38.076" y="1.67" class="g">compliance=</text><text x="49.098" y="1.67" class="h">89%</text></symbol><symbol id="10"><text y="1.67" class="g">[3/5]</text><text x="6.012" y="1.67" class="g">empathy-first</text><text x="21.042" y="1.67" class="g">...</text><text x="25.05" y="1.67" class="g">quality=</text><text x="33.066" y="1.67" class="l">0.84</text><text x="38.076" y="1.67" class="g">compliance=</text><text x="49.098" y="1.67" class="l">97%</text><text x="53.106" y="1.67" class="l">&lt;-</text><text x="56.112" y="1.67" class="l">best!</text></symbol><symbol id="11"><text y="1.67" class="g">[4/5]</text><text x="6.012" y="1.67" class="g">aggressive</text><text x="21.042" y="1.67" class="g">...</text><text x="25.05" y="1.67" class="g">quality=</text><text x="33.066" y="1.67" class="h">0.76</text><text x="38.076" y="1.67" class="g">compliance=</text><text x="49.098" y="1.67" class="k">72%</text></symbol><symbol id="12"><text y="1.67" class="g">[5/5]</text><text x="6.012" y="1.67" class="g">concise</text><text x="21.042" y="1.67" class="g">...</text><text x="25.05" y="1.67" class="g">quality=</text><text x="33.066" y="1.67" class="h">0.73</text><text x="38.076" y="1.67" class="g">compliance=</text><text x="49.098" y="1.67" class="l">95%</text></symbol><symbol id="13"><text y="1.67" class="j">RESULTS</text><text x="8.016" y="1.67" class="j">TABLE</text></symbol><symbol id="14"><text y="1.67" class="g">================================================================</text></symbol><symbol id="15"><text y="1.67" class="g">Config</text><text x="16.032" y="1.67" class="g">Quality</text><text x="27.054" y="1.67" class="g">Compliance</text><text x="41.082" y="1.67" class="g">Overall</text></symbol><symbol id="16"><text y="1.67" class="g">----------------------------------------------------------------</text></symbol><symbol id="17"><text y="1.67" class="g">baseline</text><text x="16.032" y="1.67" class="g">████████████░░░░░░░░</text><text x="37.074" y="1.67" class="g">0.67</text><text x="45.09" y="1.67" class="g">84%</text><text x="57.114" y="1.67" class="h">0.76</text></symbol><symbol id="18"><text y="1.67" class="g">empathy-first</text><text x="16.032" y="1.67" class="l">████████████████░░░░</text><text x="37.074" y="1.67" class="g">0.84</text><text x="45.09" y="1.67" class="g">97%</text><text x="57.114" y="1.67" class="m">0.91</text></symbol><symbol id="19"><text y="1.67" class="m">BEST:</text><text x="6.012" y="1.67" class="m">empathy-first</text><text x="20.04" y="1.67" class="g">(score=</text><text x="27.054" y="1.67" class="l">0.91</text><text x="31.062" y="1.67" class="g">)</text></symbol><symbol id="20"><text x="2.004" y="1.67" class="l">+0.15</text><text x="8.016" y="1.67" class="l">overall</text><text x="16.032" y="1.67" class="g">|</text><text x="18.036" y="1.67" class="g">Compliance</text><text x="29.058" y="1.67" class="l">84%</text><text x="33.066" y="1.67" class="l">-&gt;</text><text x="36.072" y="1.67" class="l">97%</text></symbol><symbol id="a"><path fill="transparent" d="M0 0h80v25H0z"/></symbol><symbol id="b"><path fill="#6f7683" d="M0 0h1.102v2.171H0z"/></symbol></defs><path class="a" d="M0 0h80v52.104H0z"/><g style="animation-duration:8.869999999999997s;animation-iteration-count:infinite;animation-name:p;animation-timing-function:steps(1,end)"><svg width="7280"><svg><use xlink:href="#a"/><use xlink:href="#b" x="-.004"/></svg><svg x="80"><use xlink:href="#a"/><use xlink:href="#b" x="-.004" y="2.146"/><use xlink:href="#1"/></svg><svg x="160"><use xlink:href="#a"/><use xlink:href="#b" x="-.004" y="4.317"/><use xlink:href="#1"/><use xlink:href="#2" y="2.171"/></svg><svg x="240"><use xlink:href="#a"/><use xlink:href="#b" x="-.004" y="6.488"/><use xlink:href="#1"/><use xlink:href="#2" y="2.171"/></svg><svg x="320"><use xlink:href="#a"/><use xlink:href="#b" x=".996" y="6.488"/><use xlink:href="#1"/><use xlink:href="#2" y="2.171"/><use xlink:href="#3" y="6.513"/></svg><svg x="400"><use xlink:href="#a"/><use xlink:href="#b" x="1.996" y="6.488"/><use xlink:href="#1"/><use xlink:href="#2" y="2.171"/><use xlink:href="#3" y="6.513"/></svg><svg x="480"><use xlink:href="#a"/><use xlink:href="#b" x="1.996" y="6.488"/><use xlink:href="#1"/><use xlink:href="#2" y="2.171"/><use xlink:href="#3" y="6.513"/></svg><svg x="560"><use xlink:href="#a"/><use xlink:href="#b" x="1.996" y="6.488"/><use xlink:href="#1"/><use xlink:href="#2" y="2.171"/><use xlink:href="#3" y="6.513"/></svg><svg x="640"><use xlink:href="#a"/><use xlink:href="#b" x="1.996" y="6.488"/><use xlink:href="#1"/><use xlink:href="#2" y="2.171"/><use xlink:href="#3" y="6.513"/></svg><svg x="720"><use xlink:href="#a"/><use xlink:href="#b" x="1.996" y="6.488"/><use xlink:href="#1"/><use xlink:href="#2" y="2.171"/><use xlink:href="#3" y="6.513"/></svg><svg x="800"><use xlink:href="#a"/><use xlink:href="#b" x="1.996" y="6.488"/><use xlink:href="#1"/><use xlink:href="#2" y="2.171"/><use xlink:href="#3" y="6.513"/></svg><svg x="880"><use xlink:href="#a"/><use xlink:href="#b" x="1.996" y="6.488"/><use xlink:href="#1"/><use xlink:href="#2" y="2.171"/><use xlink:href="#3" y="6.513"/></svg><svg x="960"><use xlink:href="#a"/><use xlink:href="#b" x="1.996" y="6.488"/><use xlink:href="#1"/><use xlink:href="#2" y="2.171"/><use xlink:href="#3" y="6.513"/></svg><svg x="1040"><use xlink:href="#a"/><use xlink:href="#b" x="2.996" y="6.488"/><use xlink:href="#1"/><use xlink:href="#2" y="2.171"/><text y="8.183" class="g">$</text><text x="2.004" y="8.183" class="h">p</text></svg><svg x="1120"><use xlink:href="#a"/><use xlink:href="#b" x="3.996" y="6.488"/><use xlink:href="#1"/><use xlink:href="#2" y="2.171"/><text y="8.183" class="g">$</text><text x="2.004" y="8.183" class="h">py</text></svg><svg x="1200"><use xlink:href="#a"/><use xlink:href="#b" x="4.996" y="6.488"/><use xlink:href="#1"/><use xlink:href="#2" y="2.171"/><text y="8.183" class="g">$</text><text x="2.004" y="8.183" class="h">pyt</text></svg><svg x="1280"><use xlink:href="#a"/><use xlink:href="#b" x="5.996" y="6.488"/><use xlink:href="#1"/><use xlink:href="#2" y="2.171"/><text y="8.183" class="g">$</text><text x="2.004" y="8.183" class="h">pyth</text></svg><svg x="1360"><use xlink:href="#a"/><use xlink:href="#b" x="6.996" y="6.488"/><use xlink:href="#1"/><use xlink:href="#2" y="2.171"/><text y="8.183" class="g">$</text><text x="2.004" y="8.183" class="h">pytho</text></svg><svg x="1440"><use xlink:href="#a"/><use xlink:href="#b" x="7.996" y="6.488"/><use xlink:href="#1"/><use xlink:href="#2" y="2.171"/><use xlink:href="#4" y="6.513"/></svg><svg x="1520"><use xlink:href="#a"/><use xlink:href="#b" x="8.996" y="6.488"/><use xlink:href="#1"/><use xlink:href="#2" y="2.171"/><use xlink:href="#4" y="6.513"/></svg><svg x="1600"><use xlink:href="#a"/><use xlink:href="#b" x="9.996" y="6.488"/><use xlink:href="#1"/><use xlink:href="#2" y="2.171"/><text y="8.183" class="g">$</text><text x="2.004" y="8.183" class="h">python</text><text x="9.018" y="8.183" class="h">u</text></svg><svg x="1680"><use xlink:href="#a"/><use xlink:href="#b" x="10.996" y="6.488"/><use xlink:href="#1"/><use xlink:href="#2" y="2.171"/><text y="8.183" class="g">$</text><text x="2.004" y="8.183" class="h">python</text><text x="9.018" y="8.183" class="h">us</text></svg><svg x="1760"><use xlink:href="#a"/><use xlink:href="#b" x="11.996" y="6.488"/><use xlink:href="#1"/><use xlink:href="#2" y="2.171"/><text y="8.183" class="g">$</text><text x="2.004" y="8.183" class="h">python</text><text x="9.018" y="8.183" class="h">use</text></svg><svg x="1840"><use xlink:href="#a"/><use xlink:href="#b" x="12.996" y="6.488"/><use xlink:href="#1"/><use xlink:href="#2" y="2.171"/><text y="8.183" class="g">$</text><text x="2.004" y="8.183" class="h">python</text><text x="9.018" y="8.183" class="h">use-</text></svg><svg x="1920"><use xlink:href="#a"/><use xlink:href="#b" x="13.996" y="6.488"/><use xlink:href="#1"/><use xlink:href="#2" y="2.171"/><text y="8.183" class="g">$</text><text x="2.004" y="8.183" class="h">python</text><text x="9.018" y="8.183" class="h">use-c</text></svg><svg x="2000"><use xlink:href="#a"/><use xlink:href="#b" x="14.996" y="6.488"/><use xlink:href="#1"/><use xlink:href="#2" y="2.171"/><text y="8.183" class="g">$</text><text x="2.004" y="8.183" class="h">python</text><text x="9.018" y="8.183" class="h">use-ca</text></svg><svg x="2080"><use xlink:href="#a"/><use xlink:href="#b" x="15.996" y="6.488"/><use xlink:href="#1"/><use xlink:href="#2" y="2.171"/><text y="8.183" class="g">$</text><text x="2.004" y="8.183" class="h">python</text><text x="9.018" y="8.183" class="h">use-cas</text></svg><svg x="2160"><use xlink:href="#a"/><use xlink:href="#b" x="16.996" y="6.488"/><use xlink:href="#1"/><use xlink:href="#2" y="2.171"/><text y="8.183" class="g">$</text><text x="2.004" y="8.183" class="h">python</text><text x="9.018" y="8.183" class="h">use-case</text></svg><svg x="2240"><use xlink:href="#a"/><use xlink:href="#b" x="17.996" y="6.488"/><use xlink:href="#1"/><use xlink:href="#2" y="2.171"/><text y="8.183" class="g">$</text><text x="2.004" y="8.183" class="h">python</text><text x="9.018" y="8.183" class="h">use-cases</text></svg><svg x="2320"><use xlink:href="#a"/><use xlink:href="#b" x="18.996" y="6.488"/><use xlink:href="#1"/><use xlink:href="#2" y="2.171"/><text y="8.183" class="g">$</text><text x="2.004" y="8.183" class="h">python</text><text x="9.018" y="8.183" class="h">use-cases/</text></svg><svg x="2400"><use xlink:href="#a"/><use xlink:href="#b" x="19.996" y="6.488"/><use xlink:href="#1"/><use xlink:href="#2" y="2.171"/><text y="8.183" class="g">$</text><text x="2.004" y="8.183" class="h">python</text><text x="9.018" y="8.183" class="h">use-cases/g</text></svg><svg x="2480"><use xlink:href="#a"/><use xlink:href="#b" x="20.996" y="6.488"/><use xlink:href="#1"/><use xlink:href="#2" y="2.171"/><text y="8.183" class="g">$</text><text x="2.004" y="8.183" class="h">python</text><text x="9.018" y="8.183" class="h">use-cases/gt</text></svg><svg x="2560"><use xlink:href="#a"/><use xlink:href="#b" x="21.996" y="6.488"/><use xlink:href="#1"/><use xlink:href="#2" y="2.171"/><text y="8.183" class="g">$</text><text x="2.004" y="8.183" class="h">python</text><text x="9.018" y="8.183" class="h">use-cases/gtm</text></svg><svg x="2640"><use xlink:href="#a"/><use xlink:href="#b" x="22.996" y="6.488"/><use xlink:href="#1"/><use xlink:href="#2" y="2.171"/><text y="8.183" class="g">$</text><text x="2.004" y="8.183" class="h">python</text><text x="9.018" y="8.183" class="h">use-cases/gtm-</text></svg><svg x="2720"><use xlink:href="#a"/><use xlink:href="#b" x="23.996" y="6.488"/><use xlink:href="#1"/><use xlink:href="#2" y="2.171"/><text y="8.183" class="g">$</text><text x="2.004" y="8.183" class="h">python</text><text x="9.018" y="8.183" class="h">use-cases/gtm-a</text></svg><svg x="2800"><use xlink:href="#a"/><use xlink:href="#b" x="24.996" y="6.488"/><use xlink:href="#1"/><use xlink:href="#2" y="2.171"/><text y="8.183" class="g">$</text><text x="2.004" y="8.183" class="h">python</text><text x="9.018" y="8.183" class="h">use-cases/gtm-ac</text></svg><svg x="2880"><use xlink:href="#a"/><use xlink:href="#b" x="25.996" y="6.488"/><use xlink:href="#1"/><use xlink:href="#2" y="2.171"/><text y="8.183" class="g">$</text><text x="2.004" y="8.183" class="h">python</text><text x="9.018" y="8.183" class="h">use-cases/gtm-acq</text></svg><svg x="2960"><use xlink:href="#a"/><use xlink:href="#b" x="26.996" y="6.488"/><use xlink:href="#1"/><use xlink:href="#2" y="2.171"/><text y="8.183" class="g">$</text><text x="2.004" y="8.183" class="h">python</text><text x="9.018" y="8.183" class="h">use-cases/gtm-acqu</text></svg><svg x="3040"><use xlink:href="#a"/><use xlink:href="#b" x="27.996" y="6.488"/><use xlink:href="#1"/><use xlink:href="#2" y="2.171"/><text y="8.183" class="g">$</text><text x="2.004" y="8.183" class="h">python</text><text x="9.018" y="8.183" class="h">use-cases/gtm-acqui</text></svg><svg x="3120"><use xlink:href="#a"/><use xlink:href="#b" x="28.996" y="6.488"/><use xlink:href="#1"/><use xlink:href="#2" y="2.171"/><text y="8.183" class="g">$</text><text x="2.004" y="8.183" class="h">python</text><text x="9.018" y="8.183" class="h">use-cases/gtm-acquis</text></svg><svg x="3200"><use xlink:href="#a"/><use xlink:href="#b" x="29.996" y="6.488"/><use xlink:href="#1"/><use xlink:href="#2" y="2.171"/><text y="8.183" class="g">$</text><text x="2.004" y="8.183" class="h">python</text><text x="9.018" y="8.183" class="h">use-cases/gtm-acquisi</text></svg><svg x="3280"><use xlink:href="#a"/><use xlink:href="#b" x="30.996" y="6.488"/><use xlink:href="#1"/><use xlink:href="#2" y="2.171"/><text y="8.183" class="g">$</text><text x="2.004" y="8.183" class="h">python</text><text x="9.018" y="8.183" class="h">use-cases/gtm-acquisit</text></svg><svg x="3360"><use xlink:href="#a"/><use xlink:href="#b" x="31.996" y="6.488"/><use xlink:href="#1"/><use xlink:href="#2" y="2.171"/><text y="8.183" class="g">$</text><text x="2.004" y="8.183" class="h">python</text><text x="9.018" y="8.183" class="h">use-cases/gtm-acquisiti</text></svg><svg x="3440"><use xlink:href="#a"/><use xlink:href="#b" x="32.996" y="6.488"/><use xlink:href="#1"/><use xlink:href="#2" y="2.171"/><text y="8.183" class="g">$</text><text x="2.004" y="8.183" class="h">python</text><text x="9.018" y="8.183" class="h">use-cases/gtm-acquisitio</text></svg><svg x="3520"><use xlink:href="#a"/><use xlink:href="#b" x="33.996" y="6.488"/><use xlink:href="#1"/><use xlink:href="#2" y="2.171"/><text y="8.183" class="g">$</text><text x="2.004" y="8.183" class="h">python</text><text x="9.018" y="8.183" class="h">use-cases/gtm-acquisition</text></svg><svg x="3600"><use xlink:href="#a"/><use xlink:href="#b" x="34.996" y="6.488"/><use xlink:href="#1"/><use xlink:href="#2" y="2.171"/><text y="8.183" class="g">$</text><text x="2.004" y="8.183" class="h">python</text><text x="9.018" y="8.183" class="h">use-cases/gtm-acquisition/</text></svg><svg x="3680"><use xlink:href="#a"/><use xlink:href="#b" x="35.996" y="6.488"/><use xlink:href="#1"/><use xlink:href="#2" y="2.171"/><text y="8.183" class="g">$</text><text x="2.004" y="8.183" class="h">python</text><text x="9.018" y="8.183" class="h">use-cases/gtm-acquisition/e</text></svg><svg x="3760"><use xlink:href="#a"/><use xlink:href="#b" x="36.996" y="6.488"/><use xlink:href="#1"/><use xlink:href="#2" y="2.171"/><text y="8.183" class="g">$</text><text x="2.004" y="8.183" class="h">python</text><text x="9.018" y="8.183" class="h">use-cases/gtm-acquisition/ev</text></svg><svg x="3840"><use xlink:href="#a"/><use xlink:href="#b" x="37.996" y="6.488"/><use xlink:href="#1"/><use xlink:href="#2" y="2.171"/><text y="8.183" class="g">$</text><text x="2.004" y="8.183" class="h">python</text><text x="9.018" y="8.183" class="h">use-cases/gtm-acquisition/eva</text></svg><svg x="3920"><use xlink:href="#a"/><use xlink:href="#b" x="38.996" y="6.488"/><use xlink:href="#1"/><use xlink:href="#2" y="2.171"/><text y="8.183" class="g">$</text><text x="2.004" y="8.183" class="h">python</text><text x="9.018" y="8.183" class="h">use-cases/gtm-acquisition/eval</text></svg><svg x="4000"><use xlink:href="#a"/><use xlink:href="#b" x="39.996" y="6.488"/><use xlink:href="#1"/><use xlink:href="#2" y="2.171"/><text y="8.183" class="g">$</text><text x="2.004" y="8.183" class="h">python</text><text x="9.018" y="8.183" class="h">use-cases/gtm-acquisition/eval/</text></svg><svg x="4080"><use xlink:href="#a"/><use xlink:href="#b" x="40.996" y="6.488"/><use xlink:href="#1"/><use xlink:href="#2" y="2.171"/><text y="8.183" class="g">$</text><text x="2.004" y="8.183" class="h">python</text><text x="9.018" y="8.183" class="h">use-cases/gtm-acquisition/eval/e</text></svg><svg x="4160"><use xlink:href="#a"/><use xlink:href="#b" x="41.996" y="6.488"/><use xlink:href="#1"/><use xlink:href="#2" y="2.171"/><text y="8.183" class="g">$</text><text x="2.004" y="8.183" class="h">python</text><text x="9.018" y="8.183" class="h">use-cases/gtm-acquisition/eval/ev</text></svg><svg x="4240"><use xlink:href="#a"/><use xlink:href="#b" x="42.996" y="6.488"/><use xlink:href="#1"/><use xlink:href="#2" y="2.171"/><text y="8.183" class="g">$</text><text x="2.004" y="8.183" class="h">python</text><text x="9.018" y="8.183" class="h">use-cases/gtm-acquisition/eval/eva</text></svg><svg x="4320"><use xlink:href="#a"/><use xlink:href="#b" x="43.996" y="6.488"/><use xlink:href="#1"/><use xlink:href="#2" y="2.171"/><text y="8.183" class="g">$</text><text x="2.004" y="8.183" class="h">python</text><text x="9.018" y="8.183" class="h">use-cases/gtm-acquisition/eval/eval</text></svg><svg x="4400"><use xlink:href="#a"/><use xlink:href="#b" x="44.996" y="6.488"/><use xlink:href="#1"/><use xlink:href="#2" y="2.171"/><text y="8.183" class="g">$</text><text x="2.004" y="8.183" class="h">python</text><text x="9.018" y="8.183" class="h">use-cases/gtm-acquisition/eval/evalu</text></svg><svg x="4480"><use xlink:href="#a"/><use xlink:href="#b" x="45.996" y="6.488"/><use xlink:href="#1"/><use xlink:href="#2" y="2.171"/><text y="8.183" class="g">$</text><text x="2.004" y="8.183" class="h">python</text><text x="9.018" y="8.183" class="h">use-cases/gtm-acquisition/eval/evalua</text></svg><svg x="4560"><use xlink:href="#a"/><use xlink:href="#b" x="46.996" y="6.488"/><use xlink:href="#1"/><use xlink:href="#2" y="2.171"/><text y="8.183" class="g">$</text><text x="2.004" y="8.183" class="h">python</text><text x="9.018" y="8.183" class="h">use-cases/gtm-acquisition/eval/evaluat</text></svg><svg x="4640"><use xlink:href="#a"/><use xlink:href="#b" x="47.996" y="6.488"/><use xlink:href="#1"/><use xlink:href="#2" y="2.171"/><text y="8.183" class="g">$</text><text x="2.004" y="8.183" class="h">python</text><text x="9.018" y="8.183" class="h">use-cases/gtm-acquisition/eval/evaluato</text></svg><svg x="4720"><use xlink:href="#a"/><use xlink:href="#b" x="48.996" y="6.488"/><use xlink:href="#1"/><use xlink:href="#2" y="2.171"/><text y="8.183" class="g">$</text><text x="2.004" y="8.183" class="h">python</text><text x="9.018" y="8.183" class="h">use-cases/gtm-acquisition/eval/evaluator</text></svg><svg x="4800"><use xlink:href="#a"/><use xlink:href="#b" x="49.996" y="6.488"/><use xlink:href="#1"/><use xlink:href="#2" y="2.171"/><text y="8.183" class="g">$</text><text x="2.004" y="8.183" class="h">python</text><text x="9.018" y="8.183" class="h">use-cases/gtm-acquisition/eval/evaluator.</text></svg><svg x="4880"><use xlink:href="#a"/><use xlink:href="#b" x="50.996" y="6.488"/><use xlink:href="#1"/><use xlink:href="#2" y="2.171"/><text y="8.183" class="g">$</text><text x="2.004" y="8.183" class="h">python</text><text x="9.018" y="8.183" class="h">use-cases/gtm-acquisition/eval/evaluator.p</text></svg><svg x="4960"><use xlink:href="#a"/><use xlink:href="#b" x="51.996" y="6.488"/><use xlink:href="#1"/><use xlink:href="#2" y="2.171"/><use xlink:href="#5" y="6.513"/></svg><svg x="5040"><use xlink:href="#a"/><use xlink:href="#b" x="51.996" y="6.488"/><use xlink:href="#1"/><use xlink:href="#2" y="2.171"/><use xlink:href="#5" y="6.513"/></svg><svg x="5120"><use xlink:href="#a"/><use xlink:href="#b" x="51.996" y="6.488"/><use xlink:href="#1"/><use xlink:href="#2" y="2.171"/><use xlink:href="#5" y="6.513"/></svg><svg x="5200"><use xlink:href="#a"/><use xlink:href="#b" x="51.996" y="6.488"/><use xlink:href="#1"/><use xlink:href="#2" y="2.171"/><use xlink:href="#5" y="6.513"/></svg><svg x="5280"><use xlink:href="#a"/><use xlink:href="#b" x="51.996" y="6.488"/><use xlink:href="#1"/><use xlink:href="#2" y="2.171"/><use xlink:href="#5" y="6.513"/></svg><svg x="5360"><use xlink:href="#a"/><use xlink:href="#b" x="-.004" y="8.659"/><use xlink:href="#1"/><use xlink:href="#2" y="2.171"/><use xlink:href="#5" y="6.513"/></svg><svg x="5440"><use xlink:href="#a"/><use xlink:href="#b" x="-.004" y="10.83"/><use xlink:href="#1"/><use xlink:href="#2" y="2.171"/><use xlink:href="#5" y="6.513"/></svg><svg x="5520"><use xlink:href="#a"/><use xlink:href="#b" x="-.004" y="13.001"/><use xlink:href="#1"/><use xlink:href="#2" y="2.171"/><use xlink:href="#5" y="6.513"/><use xlink:href="#6" y="10.855"/></svg><svg x="5600"><use xlink:href="#a"/><use xlink:href="#b" x="-.004" y="15.172"/><use xlink:href="#1"/><use xlink:href="#2" y="2.171"/><use xlink:href="#5" y="6.513"/><use xlink:href="#6" y="10.855"/><use xlink:href="#7" y="13.026"/></svg><svg x="5680"><use xlink:href="#a"/><use xlink:href="#b" x="-.004" y="17.343"/><use xlink:href="#1"/><use xlink:href="#2" y="2.171"/><use xlink:href="#5" y="6.513"/><use xlink:href="#6" y="10.855"/><use xlink:href="#7" y="13.026"/></svg><svg x="5760"><use xlink:href="#a"/><use xlink:href="#b" x="-.004" y="19.514"/><use xlink:href="#1"/><use xlink:href="#2" y="2.171"/><use xlink:href="#5" y="6.513"/><use xlink:href="#6" y="10.855"/><use xlink:href="#7" y="13.026"/><use xlink:href="#8" y="17.368"/></svg><svg x="5840"><use xlink:href="#a"/><use xlink:href="#b" x="-.004" y="21.685"/><use xlink:href="#1"/><use xlink:href="#2" y="2.171"/><use xlink:href="#5" y="6.513"/><use xlink:href="#6" y="10.855"/><use xlink:href="#7" y="13.026"/><use xlink:href="#8" y="17.368"/><use xlink:href="#9" y="19.539"/></svg><svg x="5920"><use xlink:href="#a"/><use xlink:href="#b" x="-.004" y="23.856"/><use xlink:href="#1"/><use xlink:href="#2" y="2.171"/><use xlink:href="#5" y="6.513"/><use xlink:href="#6" y="10.855"/><use xlink:href="#7" y="13.026"/><use xlink:href="#8" y="17.368"/><use xlink:href="#9" y="19.539"/><use xlink:href="#10" y="21.71"/></svg><svg x="6000"><use xlink:href="#a"/><use xlink:href="#b" x="-.004" y="26.027"/><use xlink:href="#1"/><use xlink:href="#2" y="2.171"/><use xlink:href="#5" y="6.513"/><use xlink:href="#6" y="10.855"/><use xlink:href="#7" y="13.026"/><use xlink:href="#8" y="17.368"/><use xlink:href="#9" y="19.539"/><use xlink:href="#10" y="21.71"/><use xlink:href="#11" y="23.881"/></svg><svg x="6080"><use xlink:href="#a"/><use xlink:href="#b" x="-.004" y="28.198"/><use xlink:href="#1"/><use xlink:href="#2" y="2.171"/><use xlink:href="#5" y="6.513"/><use xlink:href="#6" y="10.855"/><use xlink:href="#7" y="13.026"/><use xlink:href="#8" y="17.368"/><use xlink:href="#9" y="19.539"/><use xlink:href="#10" y="21.71"/><use xlink:href="#11" y="23.881"/><use xlink:href="#12" y="26.052"/></svg><svg x="6160"><use xlink:href="#a"/><use xlink:href="#b" x="-.004" y="30.369"/><use xlink:href="#1"/><use xlink:href="#2" y="2.171"/><use xlink:href="#5" y="6.513"/><use xlink:href="#6" y="10.855"/><use xlink:href="#7" y="13.026"/><use xlink:href="#8" y="17.368"/><use xlink:href="#9" y="19.539"/><use xlink:href="#10" y="21.71"/><use xlink:href="#11" y="23.881"/><use xlink:href="#12" y="26.052"/></svg><svg x="6240"><use xlink:href="#a"/><use xlink:href="#b" x="-.004" y="32.54"/><use xlink:href="#1"/><use xlink:href="#2" y="2.171"/><use xlink:href="#5" y="6.513"/><use xlink:href="#6" y="10.855"/><use xlink:href="#7" y="13.026"/><use xlink:href="#8" y="17.368"/><use xlink:href="#9" y="19.539"/><use xlink:href="#10" y="21.71"/><use xlink:href="#11" y="23.881"/><use xlink:href="#12" y="26.052"/><use xlink:href="#13" y="30.394"/></svg><svg x="6320"><use xlink:href="#a"/><use xlink:href="#b" x="-.004" y="34.711"/><use xlink:href="#1"/><use xlink:href="#2" y="2.171"/><use xlink:href="#5" y="6.513"/><use xlink:href="#6" y="10.855"/><use xlink:href="#7" y="13.026"/><use xlink:href="#8" y="17.368"/><use xlink:href="#9" y="19.539"/><use xlink:href="#10" y="21.71"/><use xlink:href="#11" y="23.881"/><use xlink:href="#12" y="26.052"/><use xlink:href="#13" y="30.394"/><use xlink:href="#14" y="32.565"/></svg><svg x="6400"><use xlink:href="#a"/><use xlink:href="#b" x="-.004" y="36.882"/><use xlink:href="#1"/><use xlink:href="#2" y="2.171"/><use xlink:href="#5" y="6.513"/><use xlink:href="#6" y="10.855"/><use xlink:href="#7" y="13.026"/><use xlink:href="#8" y="17.368"/><use xlink:href="#9" y="19.539"/><use xlink:href="#10" y="21.71"/><use xlink:href="#11" y="23.881"/><use xlink:href="#12" y="26.052"/><use xlink:href="#13" y="30.394"/><use xlink:href="#14" y="32.565"/><use xlink:href="#15" y="34.736"/></svg><svg x="6480"><use xlink:href="#a"/><use xlink:href="#b" x="-.004" y="39.053"/><use xlink:href="#1"/><use xlink:href="#2" y="2.171"/><use xlink:href="#5" y="6.513"/><use xlink:href="#6" y="10.855"/><use xlink:href="#7" y="13.026"/><use xlink:href="#8" y="17.368"/><use xlink:href="#9" y="19.539"/><use xlink:href="#10" y="21.71"/><use xlink:href="#11" y="23.881"/><use xlink:href="#12" y="26.052"/><use xlink:href="#13" y="30.394"/><use xlink:href="#14" y="32.565"/><use xlink:href="#15" y="34.736"/><use xlink:href="#16" y="36.907"/></svg><svg x="6560"><use xlink:href="#a"/><use xlink:href="#b" x="-.004" y="41.224"/><use xlink:href="#1"/><use xlink:href="#2" y="2.171"/><use xlink:href="#5" y="6.513"/><use xlink:href="#6" y="10.855"/><use xlink:href="#7" y="13.026"/><use xlink:href="#8" y="17.368"/><use xlink:href="#9" y="19.539"/><use xlink:href="#10" y="21.71"/><use xlink:href="#11" y="23.881"/><use xlink:href="#12" y="26.052"/><use xlink:href="#13" y="30.394"/><use xlink:href="#14" y="32.565"/><use xlink:href="#15" y="34.736"/><use xlink:href="#16" y="36.907"/><use xlink:href="#17" y="39.078"/></svg><svg x="6640"><use xlink:href="#a"/><use xlink:href="#b" x="-.004" y="43.395"/><use xlink:href="#1"/><use xlink:href="#2" y="2.171"/><use xlink:href="#5" y="6.513"/><use xlink:href="#6" y="10.855"/><use xlink:href="#7" y="13.026"/><use xlink:href="#8" y="17.368"/><use xlink:href="#9" y="19.539"/><use xlink:href="#10" y="21.71"/><use xlink:href="#11" y="23.881"/><use xlink:href="#12" y="26.052"/><use xlink:href="#13" y="30.394"/><use xlink:href="#14" y="32.565"/><use xlink:href="#15" y="34.736"/><use xlink:href="#16" y="36.907"/><use xlink:href="#17" y="39.078"/><use xlink:href="#18" y="41.249"/></svg><svg x="6720"><use xlink:href="#a"/><use xlink:href="#b" x="-.004" y="45.566"/><use xlink:href="#1"/><use xlink:href="#2" y="2.171"/><use xlink:href="#5" y="6.513"/><use xlink:href="#6" y="10.855"/><use xlink:href="#7" y="13.026"/><use xlink:href="#8" y="17.368"/><use xlink:href="#9" y="19.539"/><use xlink:href="#10" y="21.71"/><use xlink:href="#11" y="23.881"/><use xlink:href="#12" y="26.052"/><use xlink:href="#13" y="30.394"/><use xlink:href="#14" y="32.565"/><use xlink:href="#15" y="34.736"/><use xlink:href="#16" y="36.907"/><use xlink:href="#17" y="39.078"/><use xlink:href="#18" y="41.249"/><use xlink:href="#14" y="43.42"/></svg><svg x="6800"><use xlink:href="#a"/><use xlink:href="#b" x="-.004" y="47.737"/><use xlink:href="#1"/><use xlink:href="#2" y="2.171"/><use xlink:href="#5" y="6.513"/><use xlink:href="#6" y="10.855"/><use xlink:href="#7" y="13.026"/><use xlink:href="#8" y="17.368"/><use xlink:href="#9" y="19.539"/><use xlink:href="#10" y="21.71"/><use xlink:href="#11" y="23.881"/><use xlink:href="#12" y="26.052"/><use xlink:href="#13" y="30.394"/><use xlink:href="#14" y="32.565"/><use xlink:href="#15" y="34.736"/><use xlink:href="#16" y="36.907"/><use xlink:href="#17" y="39.078"/><use xlink:href="#18" y="41.249"/><use xlink:href="#14" y="43.42"/></svg><svg x="6880"><use xlink:href="#a"/><use xlink:href="#b" x="-.004" y="49.908"/><use xlink:href="#1"/><use xlink:href="#2" y="2.171"/><use xlink:href="#5" y="6.513"/><use xlink:href="#6" y="10.855"/><use xlink:href="#7" y="13.026"/><use xlink:href="#8" y="17.368"/><use xlink:href="#9" y="19.539"/><use xlink:href="#10" y="21.71"/><use xlink:href="#11" y="23.881"/><use xlink:href="#12" y="26.052"/><use xlink:href="#13" y="30.394"/><use xlink:href="#14" y="32.565"/><use xlink:href="#15" y="34.736"/><use xlink:href="#16" y="36.907"/><use xlink:href="#17" y="39.078"/><use xlink:href="#18" y="41.249"/><use xlink:href="#14" y="43.42"/><use xlink:href="#19" y="47.762"/></svg><svg x="6960"><use xlink:href="#a"/><use xlink:href="#b" x="-.004" y="52.079"/><use xlink:href="#1"/><use xlink:href="#2" y="2.171"/><use xlink:href="#5" y="6.513"/><use xlink:href="#6" y="10.855"/><use xlink:href="#7" y="13.026"/><use xlink:href="#8" y="17.368"/><use xlink:href="#9" y="19.539"/><use xlink:href="#10" y="21.71"/><use xlink:href="#11" y="23.881"/><use xlink:href="#12" y="26.052"/><use xlink:href="#13" y="30.394"/><use xlink:href="#14" y="32.565"/><use xlink:href="#15" y="34.736"/><use xlink:href="#16" y="36.907"/><use xlink:href="#17" y="39.078"/><use xlink:href="#18" y="41.249"/><use xlink:href="#14" y="43.42"/><use xlink:href="#19" y="47.762"/><use xlink:href="#20" y="49.933"/></svg><svg x="7040"><use xlink:href="#a"/><use xlink:href="#b" x="-.004" y="52.079"/><use xlink:href="#2"/><use xlink:href="#5" y="4.342"/><use xlink:href="#6" y="8.684"/><use xlink:href="#7" y="10.855"/><use xlink:href="#8" y="15.197"/><use xlink:href="#9" y="17.368"/><use xlink:href="#10" y="19.539"/><use xlink:href="#11" y="21.71"/><use xlink:href="#12" y="23.881"/><use xlink:href="#13" y="28.223"/><use xlink:href="#14" y="30.394"/><use xlink:href="#15" y="32.565"/><use xlink:href="#16" y="34.736"/><use xlink:href="#17" y="36.907"/><use xlink:href="#18" y="39.078"/><use xlink:href="#14" y="41.249"/><use xlink:href="#19" y="45.591"/><use xlink:href="#20" y="47.762"/></svg><svg x="7120"><use xlink:href="#a"/><use xlink:href="#b" x="-.004" y="52.079"/><use xlink:href="#5" y="2.171"/><use xlink:href="#6" y="6.513"/><use xlink:href="#7" y="8.684"/><use xlink:href="#8" y="13.026"/><use xlink:href="#9" y="15.197"/><use xlink:href="#10" y="17.368"/><use xlink:href="#11" y="19.539"/><use xlink:href="#12" y="21.71"/><use xlink:href="#13" y="26.052"/><use xlink:href="#14" y="28.223"/><use xlink:href="#15" y="30.394"/><use xlink:href="#16" y="32.565"/><use xlink:href="#17" y="34.736"/><use xlink:href="#18" y="36.907"/><use xlink:href="#14" y="39.078"/><use xlink:href="#19" y="43.42"/><use xlink:href="#20" y="45.591"/></svg><svg x="7200"><use xlink:href="#a"/><use xlink:href="#b" x="-.004" y="52.079"/><use xlink:href="#5" y="2.171"/><use xlink:href="#6" y="6.513"/><use xlink:href="#7" y="8.684"/><use xlink:href="#8" y="13.026"/><use xlink:href="#9" y="15.197"/><use xlink:href="#10" y="17.368"/><use xlink:href="#11" y="19.539"/><use xlink:href="#12" y="21.71"/><use xlink:href="#13" y="26.052"/><use xlink:href="#14" y="28.223"/><use xlink:href="#15" y="30.394"/><use xlink:href="#16" y="32.565"/><use xlink:href="#17" y="34.736"/><use xlink:href="#18" y="36.907"/><use xlink:href="#14" y="39.078"/><use xlink:href="#19" y="43.42"/><use xlink:href="#20" y="45.591"/></svg></svg></g></g></svg></svg>