<?xml version="1.0" encoding="UTF-8" standalone="no"?>
<!DOCTYPE svg PUBLIC "-//W3C//DTD SVG 1.1//EN"
 "http://www.w3.org/Graphics/SVG/1.1/DTD/svg11.dtd">
<!-- Generated by graphviz version 2.43.0 (0)
 -->
<!-- Title: PackageSummary Pages: 1 -->
<svg width="2001pt" height="88pt"
 viewBox="0.00 0.00 2000.50 88.00" xmlns="http://www.w3.org/2000/svg" xmlns:xlink="http://www.w3.org/1999/xlink">
<g id="graph0" class="graph" transform="scale(1 1) rotate(0) translate(4 84)">
<title>PackageSummary</title>
<polygon fill="white" stroke="transparent" points="-4,4 -4,-84 1996.5,-84 1996.5,4 -4,4"/>
<text text-anchor="middle" x="996.25" y="-63.2" font-family="Times,serif" font-size="16.00">TraiGent Package Summary</text>
<text text-anchor="middle" x="996.25" y="-45.2" font-family="Times,serif" font-size="16.00">(Files / Lines / Classes)</text>
<!-- cloud -->
<g id="node1" class="node">
<title>cloud</title>
<polygon fill="#ef9a9a" stroke="black" points="133,-36 0,-36 0,0 133,0 133,-36"/>
<text text-anchor="middle" x="66.5" y="-21" font-family="Helvetica,sans-Serif" font-size="10.00">cloud</text>
<text text-anchor="middle" x="66.5" y="-10" font-family="Helvetica,sans-Serif" font-size="10.00">29 files | 19,110L | 128C</text>
</g>
<!-- core -->
<g id="node2" class="node">
<title>core</title>
<polygon fill="#ef9a9a" stroke="black" points="278,-36 151,-36 151,0 278,0 278,-36"/>
<text text-anchor="middle" x="214.5" y="-21" font-family="Helvetica,sans-Serif" font-size="10.00">core</text>
<text text-anchor="middle" x="214.5" y="-10" font-family="Helvetica,sans-Serif" font-size="10.00">34 files | 11,897L | 72C</text>
</g>
<!-- utils -->
<g id="node3" class="node">
<title>utils</title>
<polygon fill="#ef9a9a" stroke="black" points="423,-36 296,-36 296,0 423,0 423,-36"/>
<text text-anchor="middle" x="359.5" y="-21" font-family="Helvetica,sans-Serif" font-size="10.00">utils</text>
<text text-anchor="middle" x="359.5" y="-10" font-family="Helvetica,sans-Serif" font-size="10.00">27 files | 11,409L | 98C</text>
</g>
<!-- security -->
<g id="node4" class="node">
<title>security</title>
<polygon fill="#ffcc80" stroke="black" points="562,-36 441,-36 441,0 562,0 562,-36"/>
<text text-anchor="middle" x="501.5" y="-21" font-family="Helvetica,sans-Serif" font-size="10.00">security</text>
<text text-anchor="middle" x="501.5" y="-10" font-family="Helvetica,sans-Serif" font-size="10.00">22 files | 9,367L | 88C</text>
</g>
<!-- integrations -->
<g id="node5" class="node">
<title>integrations</title>
<polygon fill="#ffcc80" stroke="black" points="701,-36 580,-36 580,0 701,0 701,-36"/>
<text text-anchor="middle" x="640.5" y="-21" font-family="Helvetica,sans-Serif" font-size="10.00">integrations</text>
<text text-anchor="middle" x="640.5" y="-10" font-family="Helvetica,sans-Serif" font-size="10.00">26 files | 8,241L | 35C</text>
</g>
<!-- optimizers -->
<g id="node6" class="node">
<title>optimizers</title>
<polygon fill="#ffcc80" stroke="black" points="840,-36 719,-36 719,0 840,0 840,-36"/>
<text text-anchor="middle" x="779.5" y="-21" font-family="Helvetica,sans-Serif" font-size="10.00">optimizers</text>
<text text-anchor="middle" x="779.5" y="-10" font-family="Helvetica,sans-Serif" font-size="10.00">20 files | 7,740L | 46C</text>
</g>
<!-- analytics -->
<g id="node7" class="node">
<title>analytics</title>
<polygon fill="#ffcc80" stroke="black" points="973,-36 858,-36 858,0 973,0 973,-36"/>
<text text-anchor="middle" x="915.5" y="-21" font-family="Helvetica,sans-Serif" font-size="10.00">analytics</text>
<text text-anchor="middle" x="915.5" y="-10" font-family="Helvetica,sans-Serif" font-size="10.00">7 files | 7,153L | 45C</text>
</g>
<!-- evaluators -->
<g id="node8" class="node">
<title>evaluators</title>
<polygon fill="#fff9c4" stroke="black" points="1106,-36 991,-36 991,0 1106,0 1106,-36"/>
<text text-anchor="middle" x="1048.5" y="-21" font-family="Helvetica,sans-Serif" font-size="10.00">evaluators</text>
<text text-anchor="middle" x="1048.5" y="-10" font-family="Helvetica,sans-Serif" font-size="10.00">6 files | 4,766L | 25C</text>
</g>
<!-- config -->
<g id="node9" class="node">
<title>config</title>
<polygon fill="#fff9c4" stroke="black" points="1245,-36 1124,-36 1124,0 1245,0 1245,-36"/>
<text text-anchor="middle" x="1184.5" y="-21" font-family="Helvetica,sans-Serif" font-size="10.00">config</text>
<text text-anchor="middle" x="1184.5" y="-10" font-family="Helvetica,sans-Serif" font-size="10.00">12 files | 3,418L | 25C</text>
</g>
<!-- cli -->
<g id="node10" class="node">
<title>cli</title>
<polygon fill="#fff9c4" stroke="black" points="1372,-36 1263,-36 1263,0 1372,0 1372,-36"/>
<text text-anchor="middle" x="1317.5" y="-21" font-family="Helvetica,sans-Serif" font-size="10.00">cli</text>
<text text-anchor="middle" x="1317.5" y="-10" font-family="Helvetica,sans-Serif" font-size="10.00">7 files | 3,240L | 4C</text>
</g>
<!-- api -->
<g id="node11" class="node">
<title>api</title>
<polygon fill="#fff9c4" stroke="black" points="1505,-36 1390,-36 1390,0 1505,0 1505,-36"/>
<text text-anchor="middle" x="1447.5" y="-21" font-family="Helvetica,sans-Serif" font-size="10.00">api</text>
<text text-anchor="middle" x="1447.5" y="-10" font-family="Helvetica,sans-Serif" font-size="10.00">6 files | 3,201L | 21C</text>
</g>
<!-- agents -->
<g id="node12" class="node">
<title>agents</title>
<polygon fill="#fff9c4" stroke="black" points="1638,-36 1523,-36 1523,0 1638,0 1638,-36"/>
<text text-anchor="middle" x="1580.5" y="-21" font-family="Helvetica,sans-Serif" font-size="10.00">agents</text>
<text text-anchor="middle" x="1580.5" y="-10" font-family="Helvetica,sans-Serif" font-size="10.00">5 files | 2,679L | 14C</text>
</g>
<!-- invokers -->
<g id="node13" class="node">
<title>invokers</title>
<polygon fill="#c8e6c9" stroke="black" points="1756.5,-36 1656.5,-36 1656.5,0 1756.5,0 1756.5,-36"/>
<text text-anchor="middle" x="1706.5" y="-21" font-family="Helvetica,sans-Serif" font-size="10.00">invokers</text>
<text text-anchor="middle" x="1706.5" y="-10" font-family="Helvetica,sans-Serif" font-size="10.00">4 files | 826L | 4C</text>
</g>
<!-- storage -->
<g id="node14" class="node">
<title>storage</title>
<polygon fill="#c8e6c9" stroke="black" points="1874.5,-36 1774.5,-36 1774.5,0 1874.5,0 1874.5,-36"/>
<text text-anchor="middle" x="1824.5" y="-21" font-family="Helvetica,sans-Serif" font-size="10.00">storage</text>
<text text-anchor="middle" x="1824.5" y="-10" font-family="Helvetica,sans-Serif" font-size="10.00">2 files | 748L | 3C</text>
</g>
<!-- tvl -->
<g id="node15" class="node">
<title>tvl</title>
<polygon fill="#c8e6c9" stroke="black" points="1992.5,-36 1892.5,-36 1892.5,0 1992.5,0 1992.5,-36"/>
<text text-anchor="middle" x="1942.5" y="-21" font-family="Helvetica,sans-Serif" font-size="10.00">tvl</text>
<text text-anchor="middle" x="1942.5" y="-10" font-family="Helvetica,sans-Serif" font-size="10.00">3 files | 703L | 5C</text>
</g>
</g>
</svg>
